<?xml version="1.0" encoding="UTF-8"?>
<svg xmlns="http://www.w3.org/2000/svg" xmlns:xlink="http://www.w3.org/1999/xlink" width="179px" height="147px" viewBox="0 0 178 147" version="1.1">
<g id="surface1">
<path style=" stroke:none;fill-rule:nonzero;fill:rgb(98.823529%,98.823529%,98.823529%);fill-opacity:1;" d="M 0 0.0351562 L 178 0.0351562 L 178 146.964844 L 0 146.964844 Z M 0 0.0351562 "/>
<path style=" stroke:none;fill-rule:nonzero;fill:rgb(99.215686%,99.215686%,99.215686%);fill-opacity:1;" d="M 86.914062 5.875 L 90.476562 5.875 L 94.824219 6.222656 L 97.515625 6.570312 L 99.953125 7.007812 L 102.558594 7.617188 L 105.078125 8.402344 L 108.207031 9.445312 L 110.816406 10.492188 L 112.554688 11.277344 L 114.640625 12.324219 L 116.464844 13.367188 L 118.375 14.589844 L 119.59375 15.460938 L 121.070312 16.507812 L 122.027344 17.203125 L 123.242188 18.160156 L 124.375 19.207031 L 125.328125 19.992188 L 126.023438 20.6875 L 126.71875 21.300781 L 129.589844 24.175781 L 130.285156 25.046875 L 131.328125 26.265625 L 132.457031 27.746094 L 133.585938 29.316406 L 135.0625 31.582031 L 136.542969 34.109375 L 137.757812 36.460938 L 138.714844 38.554688 L 139.84375 41.429688 L 140.976562 44.914062 L 141.757812 48.054688 L 142.367188 51.191406 L 142.710938 53.542969 L 142.972656 56.246094 L 143.0625 58.25 L 143.0625 62.519531 L 142.800781 65.917969 L 142.453125 68.445312 L 141.671875 72.28125 L 140.976562 75.070312 L 140.191406 77.597656 L 139.234375 80.210938 L 138.539062 81.867188 L 137.84375 83.261719 L 136.890625 85.265625 L 135.671875 87.445312 L 134.457031 89.359375 L 133.066406 91.453125 L 132.195312 92.585938 L 131.066406 94.066406 L 130.023438 95.285156 L 129.242188 96.15625 L 127.851562 97.640625 L 126.71875 98.773438 L 126.113281 99.46875 L 124.808594 100.691406 L 123.9375 101.472656 L 121.765625 103.21875 L 120.289062 104.261719 L 118.898438 105.222656 L 117.421875 106.179688 L 115.160156 107.488281 L 112.292969 108.96875 L 110.207031 109.925781 L 108.554688 110.625 L 106.210938 111.496094 L 104.210938 112.105469 L 101.601562 112.804688 L 99.257812 113.324219 L 96.125 113.847656 L 93.695312 114.109375 L 92.304688 114.199219 L 86.566406 114.199219 L 81.613281 113.761719 L 79.003906 113.324219 L 75.265625 112.542969 L 72.574219 111.757812 L 69.445312 110.710938 L 66.835938 109.578125 L 64.140625 108.273438 L 62.230469 107.226562 L 60.144531 106.003906 L 58.753906 105.132812 L 57.1875 104 L 55.625 102.78125 L 54.40625 101.824219 L 53.277344 100.863281 L 52.234375 99.90625 L 47.976562 95.636719 L 46.414062 93.71875 L 45.109375 91.976562 L 43.632812 89.796875 L 42.761719 88.402344 L 41.632812 86.570312 L 40.328125 84.132812 L 39.632812 82.652344 L 38.589844 80.210938 L 37.808594 78.117188 L 36.9375 75.417969 L 36.328125 73.238281 L 35.808594 71.058594 L 35.289062 67.921875 L 35.027344 65.832031 L 34.765625 62.257812 L 34.765625 57.8125 L 34.9375 54.9375 L 35.289062 51.976562 L 35.722656 49.359375 L 36.503906 46.046875 L 37.199219 43.695312 L 38.15625 40.90625 L 39.199219 38.378906 L 40.675781 35.242188 L 42.066406 32.714844 L 43.28125 30.710938 L 43.976562 29.664062 L 45.023438 28.183594 L 46.238281 26.527344 L 47.195312 25.394531 L 48.757812 23.652344 L 50.0625 22.257812 L 51.714844 20.601562 L 52.410156 19.992188 L 53.539062 18.945312 L 54.496094 18.160156 L 55.625 17.203125 L 57.015625 16.15625 L 59.363281 14.589844 L 61.449219 13.28125 L 63.535156 12.148438 L 64.835938 11.453125 L 67.273438 10.320312 L 69.445312 9.445312 L 73.53125 8.050781 L 75.617188 7.441406 L 78.742188 6.746094 L 81.003906 6.398438 L 84.394531 6.046875 Z M 86.914062 5.875 "/>
<path style=" stroke:none;fill-rule:nonzero;fill:rgb(10.588235%,70.588237%,83.137256%);fill-opacity:1;" d="M 86.914062 5.875 L 90.476562 5.875 L 94.824219 6.222656 L 97.515625 6.570312 L 99.953125 7.007812 L 102.558594 7.617188 L 105.078125 8.402344 L 108.207031 9.445312 L 110.816406 10.492188 L 112.554688 11.277344 L 114.640625 12.324219 L 116.464844 13.367188 L 118.375 14.589844 L 119.59375 15.460938 L 121.070312 16.507812 L 122.027344 17.203125 L 123.242188 18.160156 L 124.375 19.207031 L 125.328125 19.992188 L 126.023438 20.6875 L 126.71875 21.300781 L 129.589844 24.175781 L 130.285156 25.046875 L 131.328125 26.265625 L 132.457031 27.746094 L 133.585938 29.316406 L 135.0625 31.582031 L 136.542969 34.109375 L 137.757812 36.460938 L 138.714844 38.554688 L 139.84375 41.429688 L 140.976562 44.914062 L 141.757812 48.054688 L 142.367188 51.191406 L 142.710938 53.542969 L 142.972656 56.246094 L 143.0625 58.25 L 143.0625 62.519531 L 142.800781 65.917969 L 142.453125 68.445312 L 141.671875 72.28125 L 140.976562 75.070312 L 140.191406 77.597656 L 139.234375 80.210938 L 138.539062 81.867188 L 137.84375 83.261719 L 136.890625 85.265625 L 135.671875 87.445312 L 134.457031 89.359375 L 133.066406 91.453125 L 132.195312 92.585938 L 131.066406 94.066406 L 130.023438 95.285156 L 129.242188 96.15625 L 127.851562 97.640625 L 126.71875 98.773438 L 126.113281 99.46875 L 124.808594 100.691406 L 123.9375 101.472656 L 121.765625 103.21875 L 120.289062 104.261719 L 118.898438 105.222656 L 117.421875 106.179688 L 115.160156 107.488281 L 112.292969 108.96875 L 110.207031 109.925781 L 108.554688 110.625 L 106.210938 111.496094 L 104.210938 112.105469 L 101.601562 112.804688 L 99.257812 113.324219 L 96.125 113.847656 L 93.695312 114.109375 L 92.304688 114.199219 L 86.566406 114.199219 L 81.613281 113.761719 L 79.003906 113.324219 L 75.265625 112.542969 L 72.574219 111.757812 L 69.445312 110.710938 L 66.835938 109.578125 L 64.140625 108.273438 L 62.230469 107.226562 L 60.144531 106.003906 L 58.753906 105.132812 L 57.1875 104 L 55.625 102.78125 L 54.40625 101.824219 L 53.277344 100.863281 L 52.234375 99.90625 L 47.976562 95.636719 L 46.414062 93.71875 L 45.109375 91.976562 L 43.632812 89.796875 L 42.761719 88.402344 L 41.632812 86.570312 L 40.328125 84.132812 L 39.632812 82.652344 L 38.589844 80.210938 L 37.808594 78.117188 L 36.9375 75.417969 L 36.328125 73.238281 L 35.808594 71.058594 L 35.289062 67.921875 L 35.027344 65.832031 L 34.765625 62.257812 L 34.765625 57.8125 L 34.9375 54.9375 L 35.289062 51.976562 L 35.722656 49.359375 L 36.503906 46.046875 L 37.199219 43.695312 L 38.15625 40.90625 L 39.199219 38.378906 L 40.675781 35.242188 L 42.066406 32.714844 L 43.28125 30.710938 L 43.976562 29.664062 L 45.023438 28.183594 L 46.238281 26.527344 L 47.195312 25.394531 L 48.757812 23.652344 L 50.0625 22.257812 L 51.714844 20.601562 L 52.410156 19.992188 L 53.539062 18.945312 L 54.496094 18.160156 L 55.625 17.203125 L 57.015625 16.15625 L 59.363281 14.589844 L 61.449219 13.28125 L 63.535156 12.148438 L 64.835938 11.453125 L 67.273438 10.320312 L 69.445312 9.445312 L 73.53125 8.050781 L 75.617188 7.441406 L 78.742188 6.746094 L 81.003906 6.398438 L 84.394531 6.046875 Z M 88.132812 8.664062 L 84.046875 8.835938 L 79.960938 9.445312 L 76.398438 10.144531 L 73.355469 11.015625 L 69.964844 12.234375 L 67.53125 13.28125 L 65.707031 14.152344 L 64.054688 15.023438 L 62.230469 16.070312 L 60.230469 17.378906 L 59.273438 17.988281 L 58.234375 18.773438 L 57.015625 19.730469 L 55.886719 20.6875 L 54.929688 21.472656 L 54.0625 22.34375 L 53.367188 22.953125 L 52.234375 24.085938 L 51.625 24.785156 L 50.671875 25.742188 L 50.0625 26.441406 L 49.28125 27.3125 L 48.324219 28.53125 L 47.195312 30.015625 L 46.0625 31.667969 L 45.109375 33.152344 L 43.804688 35.417969 L 42.585938 37.769531 L 41.632812 39.859375 L 40.328125 43.261719 L 39.71875 45.089844 L 38.851562 48.402344 L 38.242188 51.453125 L 37.808594 54.589844 L 37.632812 57.289062 L 37.632812 62.433594 L 37.808594 65.046875 L 38.242188 68.359375 L 38.675781 70.710938 L 39.371094 73.675781 L 40.066406 75.941406 L 40.9375 78.378906 L 41.890625 80.734375 L 43.109375 83.261719 L 44.066406 85.089844 L 44.933594 86.570312 L 46.324219 88.835938 L 47.195312 89.972656 L 48.238281 91.363281 L 49.453125 92.847656 L 50.496094 94.066406 L 51.539062 95.199219 L 52.757812 96.507812 L 54.0625 97.8125 L 54.757812 98.425781 L 56.058594 99.558594 L 57.449219 100.691406 L 59.1875 101.996094 L 61.273438 103.390625 L 62.925781 104.351562 L 64.75 105.394531 L 66.921875 106.527344 L 69.269531 107.574219 L 71.789062 108.53125 L 74.050781 109.230469 L 78.570312 110.363281 L 81.265625 110.886719 L 83.523438 111.148438 L 84.742188 111.234375 L 87.347656 111.320312 L 90.5625 111.320312 L 93.695312 111.148438 L 96.820312 110.800781 L 99.601562 110.277344 L 102.90625 109.492188 L 105.515625 108.707031 L 108.296875 107.660156 L 110.46875 106.703125 L 113.597656 105.132812 L 114.988281 104.351562 L 116.640625 103.304688 L 118.726562 101.910156 L 120.203125 100.777344 L 121.417969 99.820312 L 122.636719 98.773438 L 123.765625 97.726562 L 124.632812 96.941406 L 125.679688 95.898438 L 126.285156 95.199219 L 126.980469 94.503906 L 127.765625 93.542969 L 128.894531 92.238281 L 130.023438 90.753906 L 131.152344 89.1875 L 132.371094 87.355469 L 133.5 85.527344 L 134.542969 83.523438 L 135.414062 81.867188 L 136.367188 79.6875 L 137.238281 77.507812 L 138.195312 74.546875 L 138.890625 72.019531 L 139.496094 69.054688 L 139.929688 66.179688 L 140.191406 63.042969 L 140.191406 57.988281 L 140.019531 55.113281 L 139.671875 52.148438 L 139.148438 49.273438 L 138.28125 45.789062 L 137.585938 43.609375 L 136.976562 41.777344 L 135.933594 39.25 L 134.542969 36.375 L 133.5 34.457031 L 132.804688 33.324219 L 131.761719 31.667969 L 130.71875 30.101562 L 129.675781 28.707031 L 128.71875 27.574219 L 128.023438 26.703125 L 126.808594 25.394531 L 126.199219 24.699219 L 125.589844 24.085938 L 124.894531 23.476562 L 123.851562 22.433594 L 123.15625 21.820312 L 121.941406 20.777344 L 120.984375 19.992188 L 119.855469 19.121094 L 118.464844 18.074219 L 116.117188 16.507812 L 114.988281 15.808594 L 113.421875 14.9375 L 111.078125 13.71875 L 107.859375 12.324219 L 104.558594 11.101562 L 102.210938 10.40625 L 99.953125 9.882812 L 97.691406 9.445312 L 95.085938 9.097656 L 91.347656 8.75 L 89.347656 8.664062 Z M 88.132812 8.664062 "/>
<path style=" stroke:none;fill-rule:nonzero;fill:rgb(30.19608%,33.333334%,34.509805%);fill-opacity:1;" d="M 79.179688 41.082031 L 90.738281 41.082031 L 90.738281 41.253906 L 90.304688 41.605469 L 89.78125 42.738281 L 87 51.101562 L 86.828125 51.714844 L 86.828125 52.585938 L 87.085938 53.109375 L 87.695312 53.542969 L 87.695312 53.71875 L 82.21875 53.71875 L 81.613281 55.808594 L 81.265625 56.769531 L 80.917969 57.289062 L 80.570312 57.550781 L 80.222656 57.640625 L 78.308594 57.640625 L 78.046875 58.511719 L 77.179688 61.648438 L 75.960938 65.832031 L 75.09375 68.96875 L 74.746094 70.1875 L 75.703125 70.1875 L 76.222656 70.449219 L 76.484375 70.710938 L 76.65625 71.234375 L 76.65625 71.929688 L 76.3125 72.542969 L 75.617188 72.976562 L 75.355469 73.0625 L 74.660156 73.0625 L 74.570312 74.457031 L 74.3125 74.894531 L 73.355469 75.070312 L 73.269531 75.332031 L 73.179688 82.652344 L 71.355469 82.652344 L 71.09375 82.476562 L 71.09375 75.15625 L 69.964844 74.808594 L 69.703125 74.546875 L 69.703125 73.152344 L 69.183594 72.976562 L 68.3125 72.453125 L 67.792969 71.757812 L 67.53125 71.058594 L 67.707031 70.101562 L 68.75 66.527344 L 72.398438 53.71875 L 70.226562 53.628906 L 69.183594 53.109375 L 68.574219 52.496094 L 68.140625 51.800781 L 68.054688 51.453125 L 68.054688 50.230469 L 68.488281 48.925781 L 69.445312 47.09375 L 70.3125 45.875 L 71.355469 44.742188 L 72.3125 43.871094 L 73.964844 42.738281 L 75.789062 41.867188 L 77.527344 41.34375 Z M 79.179688 41.082031 "/>
<path style=" stroke:none;fill-rule:nonzero;fill:rgb(10.588235%,70.588237%,83.137256%);fill-opacity:1;" d="M 86.480469 22.34375 L 90.652344 22.34375 L 92.824219 22.519531 L 95.953125 22.953125 L 98.386719 23.476562 L 100.558594 24.085938 L 103.601562 25.21875 L 105.164062 25.917969 L 106.554688 26.613281 L 108.207031 27.488281 L 109.859375 28.53125 L 111.421875 29.664062 L 112.8125 30.710938 L 113.945312 31.667969 L 114.8125 32.453125 L 115.945312 33.5 L 117.421875 34.980469 L 118.203125 35.941406 L 119.070312 36.984375 L 120.203125 38.554688 L 121.070312 39.859375 L 122.546875 42.386719 L 123.59375 44.566406 L 124.632812 47.09375 L 125.417969 49.535156 L 126.199219 52.757812 L 126.460938 54.242188 L 126.808594 57.027344 L 126.894531 58.773438 L 126.894531 62.171875 L 126.632812 64.785156 L 126.285156 66.964844 L 125.679688 69.664062 L 124.894531 72.191406 L 124.289062 73.9375 L 123.242188 76.289062 L 122.546875 77.683594 L 121.507812 79.425781 L 120.460938 81.082031 L 119.507812 82.390625 L 118.636719 83.523438 L 117.679688 84.65625 L 116.726562 85.699219 L 115.507812 87.007812 L 114.898438 87.617188 L 114.554688 87.53125 L 113.945312 86.832031 L 113.507812 86.398438 L 113.597656 86.050781 L 114.898438 84.828125 L 115.507812 84.132812 L 116.117188 83.523438 L 117.074219 82.300781 L 118.117188 80.996094 L 119.421875 78.992188 L 120.550781 76.984375 L 121.332031 75.503906 L 122.203125 73.585938 L 122.984375 71.582031 L 123.765625 68.96875 L 124.289062 66.617188 L 124.632812 64.347656 L 124.808594 62.519531 L 124.808594 58.335938 L 124.546875 55.460938 L 124.199219 53.28125 L 123.765625 51.363281 L 123.242188 49.359375 L 122.289062 46.660156 L 121.15625 44.132812 L 120.289062 42.476562 L 119.421875 41.082031 L 118.550781 39.773438 L 117.507812 38.292969 L 116.726562 37.335938 L 115.683594 36.113281 L 113.769531 34.195312 L 113.074219 33.585938 L 112.292969 32.890625 L 110.816406 31.757812 L 109.511719 30.796875 L 107.6875 29.578125 L 105.859375 28.53125 L 103.601562 27.398438 L 101.253906 26.441406 L 98.996094 25.742188 L 97.082031 25.308594 L 93.695312 24.699219 L 91.695312 24.4375 L 86.828125 24.4375 L 83.4375 24.871094 L 80.308594 25.480469 L 77.960938 26.179688 L 75.527344 27.050781 L 73.703125 27.835938 L 71.445312 29.054688 L 69.878906 30.015625 L 68.402344 31.058594 L 67.183594 31.929688 L 65.707031 33.152344 L 64.835938 33.933594 L 63.535156 35.15625 L 62.492188 36.289062 L 61.535156 37.421875 L 60.40625 38.902344 L 59.535156 40.121094 L 58.492188 41.777344 L 57.1875 44.132812 L 56.234375 46.222656 L 55.453125 48.316406 L 54.667969 50.84375 L 54.148438 53.109375 L 53.710938 55.894531 L 53.625 56.59375 L 53.539062 58.683594 L 53.539062 61.300781 L 53.710938 63.914062 L 54.0625 66.355469 L 54.667969 69.054688 L 55.539062 71.929688 L 56.148438 73.414062 L 56.582031 74.546875 L 57.796875 76.984375 L 59.015625 79.078125 L 59.96875 80.558594 L 60.839844 81.691406 L 61.796875 82.910156 L 62.75 83.957031 L 63.359375 84.65625 L 64.140625 85.527344 L 65.359375 86.660156 L 66.316406 87.445312 L 67.707031 88.578125 L 69.269531 89.710938 L 70.835938 90.667969 L 72.660156 91.714844 L 74.832031 92.757812 L 77.527344 93.804688 L 80.222656 94.589844 L 82.480469 95.113281 L 84.566406 95.460938 L 87.78125 95.808594 L 87.871094 95.898438 L 87.78125 96.941406 L 87.695312 97.550781 L 87.609375 97.640625 L 85.785156 97.640625 L 82.914062 97.292969 L 80.046875 96.679688 L 77.351562 95.898438 L 75.703125 95.285156 L 73.875 94.503906 L 71.703125 93.457031 L 69.964844 92.496094 L 68.3125 91.453125 L 67.183594 90.667969 L 65.792969 89.621094 L 64.578125 88.578125 L 63.535156 87.617188 L 62.40625 86.570312 L 61.359375 85.527344 L 60.753906 84.828125 L 59.796875 83.695312 L 58.492188 81.953125 L 57.363281 80.296875 L 56.582031 78.992188 L 55.363281 76.722656 L 54.320312 74.457031 L 53.367188 71.929688 L 52.757812 69.839844 L 52.148438 67.226562 L 51.714844 64.4375 L 51.539062 62.519531 L 51.539062 57.902344 L 51.714844 55.460938 L 52.148438 52.847656 L 52.671875 50.492188 L 53.367188 48.140625 L 54.148438 46.046875 L 54.929688 44.304688 L 55.972656 42.128906 L 56.929688 40.472656 L 57.972656 38.902344 L 59.015625 37.421875 L 60.144531 36.027344 L 61.101562 34.894531 L 62.144531 33.847656 L 62.75 33.152344 L 64.230469 31.757812 L 65.53125 30.625 L 67.183594 29.402344 L 68.3125 28.621094 L 69.617188 27.746094 L 71.964844 26.441406 L 74.136719 25.394531 L 77.09375 24.261719 L 78.742188 23.738281 L 82.132812 22.953125 L 84.914062 22.519531 Z M 86.480469 22.34375 "/>
<path style=" stroke:none;fill-rule:nonzero;fill:rgb(10.588235%,70.588237%,83.137256%);fill-opacity:1;" d="M 49.890625 17.898438 L 50.324219 17.988281 L 50.929688 18.597656 L 51.019531 19.121094 L 49.714844 20.339844 L 48.5 21.558594 L 47.890625 22.257812 L 47.195312 22.953125 L 46.414062 23.914062 L 45.457031 25.046875 L 44.328125 26.527344 L 43.109375 28.183594 L 42.066406 29.753906 L 41.109375 31.320312 L 39.894531 33.414062 L 39.109375 34.894531 L 38.15625 36.898438 L 37.113281 39.339844 L 35.984375 42.5625 L 35.199219 45.175781 L 34.679688 47.269531 L 34.070312 50.320312 L 33.636719 53.367188 L 33.375 56.417969 L 33.289062 58.335938 L 33.289062 61.648438 L 33.375 63.652344 L 33.722656 67.226562 L 34.242188 70.535156 L 34.765625 73.0625 L 35.722656 76.550781 L 36.679688 79.425781 L 37.980469 82.5625 L 39.460938 85.699219 L 40.15625 87.007812 L 41.371094 89.097656 L 42.242188 90.492188 L 43.109375 91.800781 L 43.976562 93.019531 L 45.023438 94.414062 L 45.976562 95.636719 L 47.019531 96.769531 L 47.628906 97.464844 L 48.84375 98.773438 L 50.929688 100.863281 L 51.625 101.472656 L 52.757812 102.519531 L 54.667969 104.089844 L 56.234375 105.308594 L 57.277344 106.003906 L 58.929688 107.140625 L 60.492188 108.097656 L 61.796875 108.882812 L 64.140625 110.101562 L 66.316406 111.148438 L 68.664062 112.105469 L 73.179688 113.675781 L 76.65625 114.546875 L 78.742188 114.980469 L 81.613281 115.417969 L 85.175781 115.765625 L 87.523438 115.851562 L 89.695312 115.851562 L 93.519531 115.679688 L 96.125 115.417969 L 98.648438 115.070312 L 100.992188 114.632812 L 103.601562 114.023438 L 106.554688 113.152344 L 109.6875 112.019531 L 113.507812 110.363281 L 116.03125 109.054688 L 117.679688 108.097656 L 118.8125 107.398438 L 120.722656 106.179688 L 122.289062 105.046875 L 123.332031 104.261719 L 124.546875 103.304688 L 125.679688 102.34375 L 126.894531 101.300781 L 127.503906 100.691406 L 128.199219 100.078125 L 129.242188 99.035156 L 129.851562 98.335938 L 130.71875 97.464844 L 131.5 96.507812 L 132.371094 95.546875 L 133.328125 94.328125 L 134.457031 92.847656 L 135.5 91.363281 L 136.804688 89.359375 L 137.671875 87.878906 L 138.714844 85.960938 L 139.496094 84.480469 L 140.625 82.039062 L 141.757812 79.078125 L 142.800781 75.941406 L 143.40625 73.847656 L 144.101562 70.535156 L 144.625 67.136719 L 144.972656 63.738281 L 145.148438 62.171875 L 146.363281 62.257812 L 146.710938 62.433594 L 146.539062 65.65625 L 146.1875 68.621094 L 145.582031 72.019531 L 144.796875 75.242188 L 144.101562 77.597656 L 143.0625 80.644531 L 142.015625 83.085938 L 140.976562 85.351562 L 140.28125 86.746094 L 139.410156 88.402344 L 138.28125 90.320312 L 136.367188 93.195312 L 135.324219 94.589844 L 134.367188 95.808594 L 132.804688 97.726562 L 131.761719 98.859375 L 131.152344 99.558594 L 128.371094 102.34375 L 127.675781 102.957031 L 126.460938 104 L 125.503906 104.785156 L 124.460938 105.65625 L 123.070312 106.703125 L 121.59375 107.75 L 119.765625 108.882812 L 117.855469 110.015625 L 116.289062 110.886719 L 114.988281 111.582031 L 112.988281 112.542969 L 110.640625 113.585938 L 108.296875 114.460938 L 106.210938 115.15625 L 103.949219 115.765625 L 101.34375 116.375 L 98.125 116.984375 L 94.734375 117.421875 L 92.738281 117.597656 L 91.171875 117.683594 L 87.4375 117.683594 L 82.308594 117.246094 L 78.65625 116.726562 L 75.617188 116.113281 L 73.007812 115.417969 L 69.878906 114.371094 L 67.53125 113.5 L 64.402344 112.105469 L 61.449219 110.625 L 59.363281 109.40625 L 58.058594 108.621094 L 56.667969 107.660156 L 55.191406 106.617188 L 53.710938 105.484375 L 52.496094 104.523438 L 51.191406 103.390625 L 50.496094 102.78125 L 49.453125 101.824219 L 47.542969 99.90625 L 46.933594 99.207031 L 46.238281 98.511719 L 45.628906 97.8125 L 44.5 96.507812 L 43.632812 95.375 L 42.414062 93.71875 L 41.371094 92.238281 L 40.15625 90.40625 L 39.371094 89.097656 L 38.328125 87.269531 L 37.632812 85.875 L 36.9375 84.566406 L 35.894531 82.214844 L 34.9375 79.6875 L 33.984375 76.8125 L 33.289062 74.371094 L 32.507812 70.796875 L 32.070312 68.007812 L 31.722656 64.960938 L 31.550781 62.257812 L 31.550781 58.074219 L 31.8125 54.414062 L 32.15625 51.453125 L 32.59375 48.925781 L 33.289062 45.699219 L 34.332031 42.128906 L 35.113281 39.859375 L 36.417969 36.636719 L 37.023438 35.328125 L 37.71875 33.933594 L 38.765625 31.929688 L 40.15625 29.578125 L 41.71875 27.226562 L 42.9375 25.570312 L 43.890625 24.347656 L 45.628906 22.171875 L 46.671875 21.039062 L 48.0625 19.554688 L 49.367188 18.25 Z M 49.890625 17.898438 "/>
<path style=" stroke:none;fill-rule:nonzero;fill:rgb(10.588235%,70.588237%,83.137256%);fill-opacity:1;" d="M 87.4375 14.066406 L 90.914062 14.066406 L 90.914062 15.722656 L 90.824219 15.808594 L 89.78125 15.894531 L 86.914062 15.984375 L 84.65625 16.15625 L 82.046875 16.507812 L 80.132812 16.855469 L 77.007812 17.640625 L 73.964844 18.597656 L 71.007812 19.816406 L 67.53125 21.558594 L 65.621094 22.695312 L 63.96875 23.828125 L 62.75 24.699219 L 61.1875 25.917969 L 59.96875 26.964844 L 58.667969 28.183594 L 56.667969 30.1875 L 55.886719 31.148438 L 55.101562 32.019531 L 54.320312 32.976562 L 53.453125 34.109375 L 52.582031 35.417969 L 50.929688 37.945312 L 50.0625 39.511719 L 49.105469 41.429688 L 48.324219 43.261719 L 47.367188 45.875 L 46.585938 48.316406 L 45.976562 50.753906 L 45.457031 53.628906 L 45.195312 55.894531 L 45.109375 57.289062 L 45.109375 62.082031 L 45.367188 65.484375 L 45.890625 68.621094 L 46.238281 70.363281 L 46.847656 72.542969 L 47.890625 75.765625 L 48.84375 78.03125 L 49.714844 79.863281 L 50.757812 81.777344 L 51.714844 83.347656 L 53.277344 85.699219 L 54.234375 87.007812 L 55.191406 88.140625 L 56.234375 89.359375 L 57.015625 90.230469 L 58.40625 91.714844 L 59.273438 92.496094 L 60.230469 93.28125 L 61.1875 94.152344 L 62.144531 94.9375 L 63.273438 95.808594 L 65.359375 97.203125 L 66.75 98.074219 L 68.574219 99.121094 L 71.09375 100.339844 L 74.050781 101.5625 L 76.484375 102.34375 L 79.003906 103.042969 L 81.265625 103.480469 L 84.394531 103.914062 L 86.914062 104.089844 L 91.519531 104.089844 L 94.128906 103.828125 L 97.171875 103.390625 L 99.601562 102.867188 L 101.863281 102.257812 L 104.992188 101.210938 L 107.601562 100.078125 L 111.25 98.25 L 112.640625 97.378906 L 114.292969 96.246094 L 115.507812 95.375 L 116.640625 94.503906 L 117.855469 93.542969 L 118.984375 92.496094 L 119.421875 92.585938 L 120.289062 93.542969 L 120.375 93.980469 L 119.507812 94.675781 L 118.636719 95.460938 L 117.246094 96.507812 L 115.59375 97.726562 L 114.03125 98.773438 L 112.726562 99.558594 L 111.164062 100.429688 L 109.25 101.472656 L 106.90625 102.519531 L 104.382812 103.480469 L 101.429688 104.4375 L 98.90625 105.046875 L 96.039062 105.570312 L 93.953125 105.832031 L 92.128906 106.003906 L 88.738281 106.09375 L 86.304688 106.003906 L 83.003906 105.65625 L 80.132812 105.222656 L 78.046875 104.785156 L 75.617188 104.089844 L 73.09375 103.21875 L 69.878906 101.910156 L 67.617188 100.777344 L 65.621094 99.644531 L 63.796875 98.511719 L 62.664062 97.640625 L 61.710938 96.941406 L 60.40625 95.898438 L 59.1875 94.9375 L 58.320312 94.152344 L 57.625 93.542969 L 56.753906 92.757812 L 56.148438 92.0625 L 55.453125 91.363281 L 54.667969 90.40625 L 53.972656 89.710938 L 53.277344 88.835938 L 52.320312 87.617188 L 51.191406 86.050781 L 49.539062 83.523438 L 48.5 81.691406 L 47.714844 80.210938 L 46.238281 76.722656 L 45.457031 74.632812 L 44.585938 71.667969 L 43.890625 68.707031 L 43.457031 65.917969 L 43.195312 63.304688 L 43.109375 61.910156 L 43.109375 58.074219 L 43.28125 55.460938 L 43.632812 52.847656 L 44.152344 50.058594 L 45.023438 46.832031 L 46.0625 43.695312 L 47.019531 41.34375 L 48.324219 38.640625 L 49.539062 36.550781 L 50.324219 35.242188 L 50.929688 34.371094 L 51.625 33.324219 L 52.84375 31.667969 L 53.972656 30.363281 L 55.015625 29.140625 L 56.40625 27.660156 L 57.449219 26.613281 L 58.144531 26.003906 L 59.015625 25.21875 L 59.882812 24.523438 L 61.273438 23.390625 L 62.839844 22.257812 L 64.402344 21.210938 L 66.140625 20.167969 L 68.140625 19.121094 L 70.398438 17.988281 L 72.226562 17.203125 L 73.875 16.59375 L 76.484375 15.808594 L 80.742188 14.761719 L 83.523438 14.328125 L 85.4375 14.152344 Z M 87.4375 14.066406 "/>
<path style=" stroke:none;fill-rule:nonzero;fill:rgb(42.352942%,45.490196%,47.058824%);fill-opacity:1;" d="M 79.179688 41.082031 L 90.738281 41.082031 L 90.738281 41.253906 L 90.304688 41.605469 L 89.78125 42.738281 L 89.609375 43.347656 L 89.433594 43.085938 L 88.304688 43.171875 L 79.789062 43.261719 L 78.222656 43.433594 L 76.65625 43.871094 L 75.265625 44.566406 L 74.136719 45.265625 L 73.269531 46.046875 L 73.09375 46.046875 L 73.09375 46.222656 L 72.398438 46.832031 L 71.703125 47.703125 L 71.007812 48.75 L 70.398438 50.058594 L 70.226562 50.582031 L 70.226562 51.277344 L 70.574219 51.363281 L 72.3125 51.453125 L 73.441406 51.714844 L 74.136719 52.234375 L 74.484375 52.671875 L 74.660156 53.109375 L 74.660156 53.890625 L 74.398438 54.9375 L 73.703125 57.117188 L 73.09375 59.296875 L 72.226562 62.257812 L 71.269531 65.742188 L 70.660156 67.75 L 69.792969 70.796875 L 69.792969 71.410156 L 70.054688 72.019531 L 70.488281 72.453125 L 70.921875 72.714844 L 71.355469 72.804688 L 74.398438 72.804688 L 74.832031 72.628906 L 75.789062 72.542969 L 76.050781 72.714844 L 75.355469 73.0625 L 74.660156 73.0625 L 74.570312 74.457031 L 74.3125 74.894531 L 73.355469 75.070312 L 73.269531 75.332031 L 73.179688 82.652344 L 71.355469 82.652344 L 71.09375 82.476562 L 71.09375 75.15625 L 69.964844 74.808594 L 69.703125 74.546875 L 69.703125 73.152344 L 69.183594 72.976562 L 68.3125 72.453125 L 67.792969 71.757812 L 67.53125 71.058594 L 67.707031 70.101562 L 68.75 66.527344 L 72.398438 53.71875 L 70.226562 53.628906 L 69.183594 53.109375 L 68.574219 52.496094 L 68.140625 51.800781 L 68.054688 51.453125 L 68.054688 50.230469 L 68.488281 48.925781 L 69.445312 47.09375 L 70.3125 45.875 L 71.355469 44.742188 L 72.3125 43.871094 L 73.964844 42.738281 L 75.789062 41.867188 L 77.527344 41.34375 Z M 79.179688 41.082031 "/>
<path style=" stroke:none;fill-rule:nonzero;fill:rgb(2.352941%,1.960784%,2.352941%);fill-opacity:1;" d="M 50.757812 123.171875 L 53.191406 123.171875 L 54.929688 123.523438 L 55.972656 123.957031 L 56.84375 124.566406 L 57.449219 125.179688 L 58.144531 126.3125 L 58.578125 127.617188 L 58.667969 128.316406 L 58.667969 130.753906 L 58.40625 131.976562 L 58.144531 132.761719 L 57.625 133.804688 L 56.753906 134.9375 L 55.886719 135.636719 L 54.496094 136.332031 L 53.191406 136.679688 L 49.890625 136.679688 L 46.414062 136.59375 L 46.324219 136.507812 L 46.324219 135.722656 L 46.5 135.375 L 47.628906 135.289062 L 47.714844 135.199219 L 47.714844 124.742188 L 46.5 124.480469 L 46.414062 124.394531 L 46.414062 123.347656 Z M 50.757812 123.171875 "/>
<path style=" stroke:none;fill-rule:nonzero;fill:rgb(97.254902%,89.411765%,48.627451%);fill-opacity:1;" d="M 91.867188 41.082031 L 96.214844 41.082031 L 97.171875 41.167969 L 97.691406 41.429688 L 98.039062 41.867188 L 98.039062 43 L 96.648438 47.09375 L 95.34375 51.101562 L 94.648438 52.847656 L 94.214844 53.367188 L 93.605469 53.628906 L 87.695312 53.628906 L 87 53.109375 L 86.742188 52.585938 L 86.742188 51.714844 L 88.132812 47.441406 L 89.347656 43.78125 L 89.867188 42.300781 L 90.304688 41.515625 L 90.738281 41.167969 Z M 91.867188 41.082031 "/>
<path style=" stroke:none;fill-rule:nonzero;fill:rgb(2.745098%,2.745098%,3.137255%);fill-opacity:1;" d="M 143.148438 123.261719 L 148.363281 123.347656 L 148.363281 124.21875 L 148.273438 124.480469 L 147.492188 124.65625 L 146.972656 124.65625 L 147.058594 135.289062 L 148.273438 135.460938 L 148.363281 135.546875 L 148.363281 136.507812 L 148.273438 136.59375 L 143.148438 136.59375 L 142.972656 136.507812 L 142.972656 135.636719 L 143.0625 135.460938 L 144.277344 135.289062 L 144.363281 130.492188 L 139.0625 130.582031 L 139.0625 135.289062 L 140.453125 135.460938 L 140.539062 136.507812 L 140.453125 136.59375 L 135.238281 136.59375 L 135.0625 136.507812 L 135.0625 135.546875 L 135.152344 135.460938 L 136.28125 135.289062 L 136.367188 124.65625 L 135.414062 124.566406 L 135.0625 124.394531 L 135.0625 123.347656 L 140.539062 123.347656 L 140.453125 124.394531 L 140.019531 124.566406 L 139.0625 124.65625 L 139.0625 129.011719 L 144.277344 129.011719 L 144.363281 124.65625 L 143.40625 124.566406 L 143.0625 124.394531 L 143.0625 123.347656 Z M 143.148438 123.261719 "/>
<path style=" stroke:none;fill-rule:nonzero;fill:rgb(3.137255%,3.137255%,3.529412%);fill-opacity:1;" d="M 99.777344 123.171875 L 102.382812 123.171875 L 102.644531 123.785156 L 104.035156 127.878906 L 104.90625 130.320312 L 105.601562 132.5 L 106.46875 134.9375 L 106.644531 135.289062 L 107.425781 135.375 L 107.511719 135.460938 L 107.511719 136.59375 L 102.296875 136.59375 L 102.296875 135.636719 L 102.472656 135.375 L 103.601562 135.289062 L 103.078125 133.632812 L 102.992188 133.019531 L 98.300781 133.019531 L 98.125 133.804688 L 97.777344 135.289062 L 98.90625 135.375 L 99.082031 135.546875 L 99.082031 136.507812 L 98.734375 136.59375 L 94.5625 136.507812 L 94.5625 135.636719 L 94.734375 135.375 L 95.519531 135.199219 L 96.125 133.71875 L 96.820312 131.539062 L 98.300781 127.183594 L 99.257812 124.304688 L 99.515625 123.609375 L 99.601562 123.261719 Z M 99.777344 123.171875 "/>
<path style=" stroke:none;fill-rule:nonzero;fill:rgb(2.745098%,2.745098%,3.137255%);fill-opacity:1;" d="M 108.121094 123.261719 L 112.117188 123.347656 L 112.726562 124.132812 L 113.859375 125.875 L 115.683594 128.664062 L 116.550781 129.972656 L 117.59375 131.628906 L 118.289062 132.933594 L 118.289062 124.742188 L 116.984375 124.480469 L 116.8125 124.304688 L 116.8125 123.347656 L 117.160156 123.261719 L 121.332031 123.347656 L 121.246094 124.394531 L 120.722656 124.566406 L 120.027344 124.65625 L 119.941406 124.742188 L 119.855469 136.507812 L 119.765625 136.59375 L 117.855469 136.59375 L 117.507812 136.246094 L 115.59375 133.371094 L 113.945312 130.84375 L 113.074219 129.535156 L 112.117188 128.054688 L 111.078125 126.050781 L 111.078125 135.289062 L 112.726562 135.460938 L 112.726562 136.507812 L 112.554688 136.59375 L 108.121094 136.59375 L 108.035156 136.507812 L 108.035156 135.898438 L 108.207031 135.375 L 109.425781 135.289062 L 109.425781 124.65625 L 108.382812 124.566406 L 108.035156 124.394531 L 108.035156 123.347656 Z M 108.121094 123.261719 "/>
<path style=" stroke:none;fill-rule:nonzero;fill:rgb(2.745098%,2.745098%,3.529412%);fill-opacity:1;" d="M 34.679688 123.347656 L 44.238281 123.347656 L 44.414062 126.3125 L 43.195312 126.3125 L 42.9375 125.875 L 42.585938 124.65625 L 41.546875 124.566406 L 38.765625 124.480469 L 38.765625 129.101562 L 41.285156 129.101562 L 41.371094 127.878906 L 41.546875 127.617188 L 42.675781 127.617188 L 42.675781 131.976562 L 41.457031 131.976562 L 41.285156 131.191406 L 41.195312 130.582031 L 38.765625 130.40625 L 38.765625 135.375 L 41.980469 135.199219 L 43.109375 135.113281 L 43.28125 134.589844 L 43.976562 133.019531 L 44.066406 132.933594 L 44.671875 133.019531 L 45.28125 133.28125 L 45.367188 133.371094 L 45.28125 134.589844 L 45.023438 136.507812 L 44.328125 136.59375 L 34.765625 136.59375 L 34.679688 136.507812 L 34.679688 135.808594 L 34.765625 135.460938 L 35.113281 135.375 L 36.070312 135.375 L 36.070312 124.65625 L 34.765625 124.480469 L 34.679688 124.394531 Z M 34.679688 123.347656 "/>
<path style=" stroke:none;fill-rule:nonzero;fill:rgb(3.137255%,3.137255%,3.529412%);fill-opacity:1;" d="M 59.625 123.261719 L 65.011719 123.347656 L 65.011719 124.132812 L 64.75 124.480469 L 63.535156 124.742188 L 63.535156 132.324219 L 63.882812 133.71875 L 64.316406 134.589844 L 64.925781 135.113281 L 65.882812 135.460938 L 67.097656 135.460938 L 67.96875 135.113281 L 68.402344 134.675781 L 68.835938 133.980469 L 69.183594 132.933594 L 69.269531 132.148438 L 69.269531 125.003906 L 69.183594 124.742188 L 67.96875 124.480469 L 67.792969 124.21875 L 67.792969 123.347656 L 72.226562 123.347656 L 72.226562 124.480469 L 71.09375 124.65625 L 71.09375 131.800781 L 70.835938 133.457031 L 70.226562 134.851562 L 69.617188 135.546875 L 68.574219 136.246094 L 67.183594 136.679688 L 64.835938 136.679688 L 63.535156 136.332031 L 62.664062 135.898438 L 61.796875 135.113281 L 61.359375 134.414062 L 61.015625 133.457031 L 60.839844 132.671875 L 60.753906 131.714844 L 60.664062 124.742188 L 59.710938 124.480469 L 59.625 124.394531 Z M 59.625 123.261719 "/>
<path style=" stroke:none;fill-rule:nonzero;fill:rgb(2.745098%,2.745098%,3.137255%);fill-opacity:1;" d="M 133.5 123.261719 L 133.671875 123.347656 L 133.761719 123.957031 L 133.933594 127.445312 L 133.933594 128.402344 L 133.847656 128.488281 L 132.542969 128.488281 L 132.371094 128.226562 L 131.9375 125.527344 L 131.761719 124.566406 L 129.414062 124.566406 L 129.328125 135.375 L 130.285156 135.375 L 131.675781 135.460938 L 131.847656 135.636719 L 131.847656 136.507812 L 131.761719 136.59375 L 126.632812 136.59375 L 124.375 136.507812 L 124.375 135.546875 L 124.460938 135.460938 L 126.632812 135.289062 L 126.632812 124.566406 L 124.199219 124.65625 L 123.765625 126.832031 L 123.503906 128.402344 L 123.417969 128.488281 L 122.027344 128.488281 L 121.941406 128.402344 L 122.027344 126.050781 L 122.203125 123.347656 Z M 133.5 123.261719 "/>
<path style=" stroke:none;fill-rule:nonzero;fill:rgb(3.137255%,3.137255%,3.529412%);fill-opacity:1;" d="M 76.917969 123.171875 L 79.4375 123.171875 L 81.613281 123.695312 L 81.785156 123.871094 L 81.785156 125.265625 L 81.699219 126.921875 L 80.132812 126.832031 L 79.875 125.003906 L 79.699219 124.480469 L 78.917969 124.394531 L 77.875 124.304688 L 76.746094 124.65625 L 76.3125 125.179688 L 76.136719 125.527344 L 76.136719 126.484375 L 76.484375 127.183594 L 77.265625 127.878906 L 79.265625 128.925781 L 80.742188 129.710938 L 81.523438 130.320312 L 82.21875 131.105469 L 82.570312 131.886719 L 82.65625 133.109375 L 82.480469 134.066406 L 82.046875 134.9375 L 81.4375 135.636719 L 80.484375 136.246094 L 79.265625 136.679688 L 78.742188 136.769531 L 76.832031 136.769531 L 75.265625 136.507812 L 73.441406 135.984375 L 73.441406 134.851562 L 73.53125 132.761719 L 73.617188 132.671875 L 75.09375 132.671875 L 75.441406 134.765625 L 75.875 135.199219 L 76.570312 135.460938 L 77.007812 135.546875 L 78.136719 135.546875 L 79.003906 135.289062 L 79.613281 134.765625 L 79.875 134.242188 L 79.960938 133.542969 L 79.789062 132.847656 L 79.4375 132.324219 L 78.222656 131.539062 L 75.789062 130.320312 L 74.746094 129.535156 L 74.050781 128.75 L 73.617188 127.707031 L 73.53125 127.269531 L 73.53125 126.222656 L 73.789062 125.351562 L 74.3125 124.480469 L 74.921875 123.957031 L 75.960938 123.433594 Z M 76.917969 123.171875 "/>
<path style=" stroke:none;fill-rule:nonzero;fill:rgb(3.137255%,3.137255%,3.529412%);fill-opacity:1;" d="M 89.085938 123.171875 L 91.433594 123.171875 L 94.128906 123.609375 L 94.214844 123.695312 L 94.214844 125.003906 L 94.039062 127.355469 L 92.390625 127.355469 L 92.214844 127.007812 L 91.867188 125.265625 L 91.695312 124.742188 L 90.914062 124.480469 L 89.261719 124.480469 L 88.390625 124.828125 L 87.695312 125.527344 L 87.175781 126.3125 L 86.828125 127.707031 L 86.652344 129.1875 L 86.652344 130.058594 L 86.828125 131.800781 L 87.175781 133.195312 L 87.523438 133.980469 L 88.21875 134.9375 L 89.261719 135.460938 L 89.78125 135.546875 L 90.5625 135.546875 L 91.433594 135.289062 L 91.867188 135.027344 L 92.5625 133.632812 L 92.738281 133.195312 L 93.605469 133.195312 L 94.214844 133.28125 L 94.214844 133.980469 L 93.953125 135.722656 L 93.695312 136.160156 L 91 136.769531 L 89 136.769531 L 87.609375 136.507812 L 86.742188 136.160156 L 85.871094 135.546875 L 85.089844 134.851562 L 84.480469 133.894531 L 84.046875 132.933594 L 83.699219 131.539062 L 83.609375 130.40625 L 83.699219 128.578125 L 84.046875 127.269531 L 84.828125 125.789062 L 85.609375 124.917969 L 86.390625 124.21875 L 87.78125 123.523438 Z M 89.085938 123.171875 "/>
<path style=" stroke:none;fill-rule:nonzero;fill:rgb(97.647059%,98.431373%,98.823529%);fill-opacity:1;" d="M 50.671875 124.394531 L 52.582031 124.394531 L 53.367188 124.566406 L 54.234375 125.089844 L 54.84375 125.699219 L 55.363281 126.746094 L 55.710938 127.878906 L 55.796875 128.316406 L 55.796875 131.453125 L 55.453125 132.847656 L 55.101562 133.71875 L 54.496094 134.589844 L 53.625 135.199219 L 52.757812 135.460938 L 50.671875 135.460938 L 50.324219 135.375 L 50.324219 124.917969 L 50.410156 124.480469 Z M 50.671875 124.394531 "/>
<path style=" stroke:none;fill-rule:nonzero;fill:rgb(99.215686%,99.215686%,99.215686%);fill-opacity:1;" d="M 91.953125 43.261719 L 94.824219 43.261719 L 95.257812 43.519531 L 95.34375 43.609375 L 95.257812 44.480469 L 94.824219 46.046875 L 93.867188 48.835938 L 93.34375 50.058594 L 92.738281 51.101562 L 92.304688 51.453125 L 92.042969 51.539062 L 90.390625 51.539062 L 89.695312 51.453125 L 89.433594 51.191406 L 89.347656 50.753906 L 90.390625 47.269531 L 91.085938 45.175781 L 91.609375 43.695312 L 91.78125 43.347656 Z M 91.953125 43.261719 "/>
<path style=" stroke:none;fill-rule:nonzero;fill:rgb(10.588235%,70.588237%,83.137256%);fill-opacity:1;" d="M 75.09375 97.464844 L 75.960938 97.640625 L 79.09375 98.511719 L 81.875 99.121094 L 84.132812 99.46875 L 86.132812 99.730469 L 86.652344 99.992188 L 87 100.515625 L 86.742188 101.300781 L 86.390625 101.5625 L 84.566406 101.5625 L 82.65625 101.300781 L 79.875 100.777344 L 76.917969 99.992188 L 75.179688 99.382812 L 74.746094 99.121094 L 74.570312 98.683594 L 74.570312 98.164062 L 74.921875 97.640625 Z M 75.09375 97.464844 "/>
<path style=" stroke:none;fill-rule:nonzero;fill:rgb(10.588235%,70.588237%,83.137256%);fill-opacity:1;" d="M 122.984375 81.257812 L 123.679688 81.257812 L 124.199219 81.515625 L 124.375 81.953125 L 124.289062 82.5625 L 123.503906 83.785156 L 122.636719 85.003906 L 121.765625 86.050781 L 121.070312 86.921875 L 120.027344 88.054688 L 119.246094 88.925781 L 117.769531 90.320312 L 117.335938 90.753906 L 116.640625 91.363281 L 115.945312 91.277344 L 115.507812 90.84375 L 115.421875 90.667969 L 115.421875 90.058594 L 115.855469 89.449219 L 116.464844 88.925781 L 118.375 87.007812 L 118.984375 86.3125 L 120.027344 85.089844 L 120.984375 83.871094 L 122.113281 82.390625 L 122.722656 81.429688 Z M 122.984375 81.257812 "/>
<path style=" stroke:none;fill-rule:nonzero;fill:rgb(10.588235%,70.588237%,83.137256%);fill-opacity:1;" d="M 94.824219 18.597656 L 96.386719 18.773438 L 98.648438 19.207031 L 100.734375 19.730469 L 102.992188 20.425781 L 105.773438 21.558594 L 106.296875 21.910156 L 106.554688 22.257812 L 106.554688 22.78125 L 106.210938 23.304688 L 106.035156 23.390625 L 105.253906 23.390625 L 103.078125 22.605469 L 100.210938 21.648438 L 97.605469 21.039062 L 95.257812 20.515625 L 94.390625 20.078125 L 94.214844 19.816406 L 94.214844 19.292969 L 94.5625 18.773438 Z M 94.824219 18.597656 "/>
<path style=" stroke:none;fill-rule:nonzero;fill:rgb(10.588235%,70.588237%,83.137256%);fill-opacity:1;" d="M 57.363281 85.089844 L 57.972656 85.089844 L 58.667969 85.699219 L 59.710938 86.832031 L 60.492188 87.703125 L 61.710938 88.925781 L 62.40625 89.535156 L 63.621094 90.582031 L 64.492188 91.277344 L 65.707031 92.238281 L 66.316406 92.757812 L 66.664062 93.371094 L 66.578125 93.804688 L 65.96875 94.328125 L 65.445312 94.328125 L 64.492188 93.71875 L 63.101562 92.671875 L 62.144531 91.886719 L 60.925781 90.84375 L 60.058594 89.972656 L 59.535156 89.535156 L 58.929688 88.835938 L 57.710938 87.617188 L 56.929688 86.660156 L 56.753906 86.398438 L 56.753906 85.613281 L 57.1875 85.175781 Z M 57.363281 85.089844 "/>
<path style=" stroke:none;fill-rule:nonzero;fill:rgb(10.588235%,70.588237%,83.137256%);fill-opacity:1;" d="M 127.242188 45.003906 L 127.9375 45.003906 L 128.285156 45.265625 L 129.242188 47.964844 L 130.023438 50.84375 L 130.632812 54.414062 L 130.804688 55.894531 L 130.71875 56.855469 L 130.371094 57.289062 L 129.9375 57.464844 L 129.414062 57.378906 L 128.980469 56.855469 L 128.804688 56.246094 L 128.632812 54.589844 L 128.199219 51.976562 L 127.589844 49.273438 L 126.632812 46.136719 L 126.632812 45.527344 L 127.070312 45.089844 Z M 127.242188 45.003906 "/>
<path style=" stroke:none;fill-rule:nonzero;fill:rgb(10.588235%,70.588237%,83.137256%);fill-opacity:1;" d="M 114.8125 27.3125 L 115.335938 27.398438 L 116.203125 28.097656 L 117.421875 29.140625 L 119.941406 31.667969 L 120.550781 32.367188 L 121.59375 33.585938 L 122.636719 34.894531 L 123.417969 36.027344 L 123.332031 36.550781 L 122.984375 36.984375 L 122.722656 37.160156 L 122.027344 37.074219 L 121.59375 36.722656 L 120.289062 34.980469 L 119.421875 34.023438 L 118.636719 33.0625 L 116.8125 31.234375 L 116.117188 30.625 L 114.8125 29.402344 L 114.203125 28.792969 L 114.03125 28.445312 L 114.117188 27.921875 L 114.554688 27.398438 Z M 114.8125 27.3125 "/>
<path style=" stroke:none;fill-rule:nonzero;fill:rgb(10.588235%,70.588237%,83.137256%);fill-opacity:1;" d="M 106.992188 95.722656 L 107.6875 95.722656 L 108.121094 96.070312 L 108.207031 96.246094 L 108.207031 96.855469 L 107.773438 97.292969 L 105.601562 98.335938 L 103.167969 99.296875 L 100.210938 100.253906 L 97.777344 100.863281 L 96.734375 100.953125 L 96.214844 100.515625 L 96.039062 100.078125 L 96.125 99.558594 L 96.386719 99.296875 L 98.210938 98.773438 L 101.082031 97.988281 L 104.035156 96.941406 L 106.296875 95.984375 Z M 106.992188 95.722656 "/>
<path style=" stroke:none;fill-rule:nonzero;fill:rgb(10.588235%,70.588237%,83.137256%);fill-opacity:1;" d="M 57.363281 51.453125 L 57.882812 51.539062 L 58.40625 51.976562 L 58.492188 52.148438 L 58.492188 52.933594 L 58.234375 54.328125 L 57.796875 57.8125 L 57.539062 60.777344 L 57.101562 61.210938 L 56.320312 61.300781 L 55.886719 61.039062 L 55.625 60.601562 L 55.625 57.464844 L 55.972656 54.589844 L 56.320312 52.847656 L 56.667969 51.886719 L 57.101562 51.539062 Z M 57.363281 51.453125 "/>
<path style=" stroke:none;fill-rule:nonzero;fill:rgb(10.588235%,70.588237%,83.137256%);fill-opacity:1;" d="M 64.402344 37.507812 L 64.925781 37.507812 L 65.621094 38.03125 L 65.707031 38.207031 L 65.707031 38.816406 L 65.359375 39.339844 L 64.402344 40.558594 L 63.273438 42.128906 L 62.40625 43.433594 L 61.273438 45.351562 L 60.664062 46.046875 L 60.230469 46.136719 L 59.625 45.875 L 59.1875 45.4375 L 59.273438 44.742188 L 60.230469 42.910156 L 61.101562 41.515625 L 62.144531 40.035156 L 63.011719 38.902344 L 63.96875 37.769531 Z M 64.402344 37.507812 "/>
<path style=" stroke:none;fill-rule:nonzero;fill:rgb(10.588235%,70.588237%,83.137256%);fill-opacity:1;" d="M 57.449219 67.226562 L 58.058594 67.3125 L 58.492188 67.75 L 59.015625 69.144531 L 59.882812 71.582031 L 60.753906 73.585938 L 61.621094 75.417969 L 61.535156 75.941406 L 61.1875 76.375 L 60.664062 76.636719 L 60.058594 76.550781 L 59.625 76.113281 L 58.929688 74.808594 L 58.234375 73.152344 L 57.449219 71.148438 L 56.667969 68.707031 L 56.667969 67.921875 L 56.84375 67.574219 Z M 57.449219 67.226562 "/>
<path style=" stroke:none;fill-rule:nonzero;fill:rgb(10.588235%,70.588237%,83.137256%);fill-opacity:1;" d="M 100.648438 28.621094 L 101.429688 28.707031 L 102.734375 29.230469 L 104.90625 30.273438 L 106.730469 31.320312 L 108.296875 32.367188 L 108.992188 32.976562 L 108.902344 33.585938 L 108.640625 34.023438 L 108.121094 34.371094 L 107.511719 34.285156 L 105.949219 33.324219 L 103.949219 32.191406 L 102.039062 31.234375 L 100.472656 30.535156 L 99.953125 30.015625 L 99.953125 29.316406 L 100.296875 28.792969 Z M 100.648438 28.621094 "/>
<path style=" stroke:none;fill-rule:nonzero;fill:rgb(10.588235%,70.588237%,83.137256%);fill-opacity:1;" d="M 120.722656 50.144531 L 121.15625 50.320312 L 121.507812 50.753906 L 121.941406 52.234375 L 122.460938 54.675781 L 122.808594 57.464844 L 122.808594 59.207031 L 122.546875 59.730469 L 122.113281 59.992188 L 121.332031 59.90625 L 120.984375 59.644531 L 120.722656 58.335938 L 120.460938 55.722656 L 120.027344 53.542969 L 119.507812 51.277344 L 119.507812 50.84375 L 120.117188 50.320312 Z M 120.722656 50.144531 "/>
<path style=" stroke:none;fill-rule:nonzero;fill:rgb(10.588235%,70.588237%,83.137256%);fill-opacity:1;" d="M 87.78125 26.441406 L 90.738281 26.441406 L 93.257812 26.703125 L 93.867188 26.964844 L 94.128906 27.3125 L 94.128906 28.097656 L 93.78125 28.53125 L 93.433594 28.707031 L 92.5625 28.707031 L 91.695312 28.621094 L 87.261719 28.621094 L 86.21875 28.707031 L 85 28.707031 L 84.394531 28.183594 L 84.304688 28.007812 L 84.394531 27.226562 L 84.914062 26.789062 L 85.785156 26.613281 Z M 87.78125 26.441406 "/>
<path style=" stroke:none;fill-rule:nonzero;fill:rgb(10.588235%,70.588237%,83.137256%);fill-opacity:1;" d="M 113.597656 37.683594 L 114.203125 37.769531 L 114.898438 38.292969 L 115.855469 39.511719 L 116.898438 40.90625 L 117.59375 41.953125 L 118.289062 43.085938 L 119.160156 44.65625 L 119.246094 44.914062 L 119.246094 45.527344 L 118.8125 46.046875 L 118.636719 46.136719 L 117.855469 46.136719 L 117.421875 45.699219 L 116.550781 44.304688 L 115.507812 42.648438 L 114.726562 41.515625 L 113.945312 40.472656 L 113.25 39.601562 L 112.726562 38.816406 L 112.8125 38.292969 L 113.25 37.855469 Z M 113.597656 37.683594 "/>
<path style=" stroke:none;fill-rule:nonzero;fill:rgb(10.588235%,70.588237%,83.137256%);fill-opacity:1;" d="M 77.441406 28.621094 L 78.046875 28.707031 L 78.570312 29.054688 L 78.742188 29.753906 L 78.308594 30.273438 L 76.917969 30.972656 L 74.660156 32.019531 L 73.09375 32.890625 L 71.269531 34.023438 L 70.75 34.285156 L 70.226562 34.195312 L 69.792969 33.847656 L 69.53125 33.152344 L 69.703125 32.714844 L 70.75 31.929688 L 72.398438 30.886719 L 74.746094 29.664062 L 76.570312 28.878906 Z M 77.441406 28.621094 "/>
<path style=" stroke:none;fill-rule:nonzero;fill:rgb(30.19608%,33.333334%,34.509805%);fill-opacity:1;" d="M 71.269531 75.070312 L 72.921875 75.070312 L 73.09375 75.15625 L 73.09375 82.390625 L 72.921875 82.476562 L 71.269531 82.476562 Z M 71.269531 75.070312 "/>
<path style=" stroke:none;fill-rule:nonzero;fill:rgb(99.215686%,99.215686%,99.215686%);fill-opacity:1;" d="M 100.558594 125.089844 L 100.734375 125.265625 L 101.34375 127.617188 L 102.558594 131.453125 L 102.558594 131.714844 L 98.734375 131.714844 L 98.90625 130.84375 L 99.691406 128.140625 Z M 100.558594 125.089844 "/>
<path style=" stroke:none;fill-rule:nonzero;fill:rgb(41.568628%,45.882353%,47.450981%);fill-opacity:1;" d="M 105.949219 63.390625 L 106.644531 63.390625 L 106.816406 63.476562 L 106.90625 63.914062 L 106.90625 74.023438 L 106.644531 74.109375 L 105.859375 74.109375 L 105.773438 74.023438 L 105.773438 63.566406 Z M 105.949219 63.390625 "/>
<path style=" stroke:none;fill-rule:nonzero;fill:rgb(42.745098%,45.490196%,47.058824%);fill-opacity:1;" d="M 79.4375 53.542969 L 87.261719 53.542969 L 87.261719 53.628906 L 82.21875 53.71875 L 81.613281 55.808594 L 81.265625 56.769531 L 80.917969 57.289062 L 80.570312 57.550781 L 80.222656 57.640625 L 78.308594 57.640625 L 78.398438 56.855469 L 79.265625 53.804688 Z M 79.4375 53.542969 "/>
<path style=" stroke:none;fill-rule:nonzero;fill:rgb(41.176471%,46.27451%,48.627451%);fill-opacity:1;" d="M 89.609375 63.390625 L 90.128906 63.390625 L 90.21875 63.476562 L 90.21875 74.109375 L 89.261719 74.109375 L 89.171875 74.023438 L 89.085938 70.535156 L 89.085938 66.527344 L 89.171875 63.566406 Z M 89.609375 63.390625 "/>
<path style=" stroke:none;fill-rule:nonzero;fill:rgb(39.607844%,47.058824%,49.411765%);fill-opacity:1;" d="M 95.691406 63.390625 L 96.386719 63.476562 L 96.5625 63.738281 L 96.5625 71.320312 L 95.519531 71.320312 L 95.429688 70.886719 L 95.429688 64.523438 L 95.519531 63.476562 Z M 95.691406 63.390625 "/>
<path style=" stroke:none;fill-rule:nonzero;fill:rgb(40.784314%,46.27451%,48.627451%);fill-opacity:1;" d="M 93.34375 63.476562 L 94.300781 63.476562 L 94.390625 63.566406 L 94.476562 64.261719 L 94.476562 67.226562 L 94.390625 71.320312 L 93.34375 71.320312 Z M 93.34375 63.476562 "/>
<path style=" stroke:none;fill-rule:nonzero;fill:rgb(42.352942%,45.490196%,47.058824%);fill-opacity:1;" d="M 104.125 63.390625 L 104.730469 63.476562 L 104.730469 71.320312 L 104.644531 71.410156 L 103.773438 71.410156 L 103.6875 71.320312 L 103.6875 63.566406 Z M 104.125 63.390625 "/>
<path style=" stroke:none;fill-rule:nonzero;fill:rgb(42.745098%,45.490196%,47.058824%);fill-opacity:1;" d="M 91.867188 63.390625 L 92.304688 63.476562 L 92.304688 71.320312 L 91.257812 71.320312 L 91.257812 63.566406 Z M 91.867188 63.390625 "/>
<path style=" stroke:none;fill-rule:nonzero;fill:rgb(42.352942%,45.09804%,46.666667%);fill-opacity:1;" d="M 97.691406 63.390625 L 98.210938 63.390625 L 98.472656 63.566406 L 98.5625 63.828125 L 98.5625 71.320312 L 97.515625 71.320312 L 97.515625 63.566406 Z M 97.691406 63.390625 "/>
<path style=" stroke:none;fill-rule:nonzero;fill:rgb(31.764707%,34.901962%,36.078432%);fill-opacity:1;" d="M 101.6875 63.476562 L 102.558594 63.476562 L 102.644531 63.566406 L 102.644531 71.320312 L 101.601562 71.320312 L 101.601562 63.738281 Z M 101.6875 63.476562 "/>
<path style=" stroke:none;fill-rule:nonzero;fill:rgb(40.392157%,46.666667%,49.019608%);fill-opacity:1;" d="M 99.953125 63.390625 L 100.472656 63.476562 L 100.558594 63.566406 L 100.558594 71.320312 L 99.601562 71.320312 L 99.515625 70.449219 L 99.515625 63.914062 L 99.691406 63.476562 Z M 99.953125 63.390625 "/>
<path style=" stroke:none;fill-rule:nonzero;fill:rgb(42.745098%,45.490196%,47.058824%);fill-opacity:1;" d="M 85.785156 59.207031 L 87.4375 59.207031 L 88.738281 59.296875 L 88.828125 59.554688 L 88.738281 60.253906 L 86.132812 60.253906 L 86.132812 62.867188 L 86.046875 62.957031 L 85.175781 62.957031 L 85.089844 62.867188 L 85.175781 59.382812 Z M 85.785156 59.207031 "/>
<path style=" stroke:none;fill-rule:nonzero;fill:rgb(42.745098%,45.490196%,47.058824%);fill-opacity:1;" d="M 107.6875 59.207031 L 110.207031 59.207031 L 110.902344 59.296875 L 110.902344 62.957031 L 110.03125 62.957031 L 109.945312 62.867188 L 109.945312 60.339844 L 107.511719 60.253906 L 107.25 60.078125 L 107.339844 59.296875 Z M 107.6875 59.207031 "/>
<path style=" stroke:none;fill-rule:nonzero;fill:rgb(42.745098%,45.490196%,47.058824%);fill-opacity:1;" d="M 110.554688 74.632812 L 110.902344 74.71875 L 110.902344 77.945312 L 110.726562 78.207031 L 110.292969 78.292969 L 107.511719 78.292969 L 107.25 78.03125 L 107.339844 77.335938 L 108.207031 77.246094 L 109.945312 77.246094 L 109.945312 74.71875 Z M 110.554688 74.632812 "/>
<path style=" stroke:none;fill-rule:nonzero;fill:rgb(42.745098%,45.490196%,47.058824%);fill-opacity:1;" d="M 85.175781 74.632812 L 85.957031 74.632812 L 86.046875 74.71875 L 86.132812 75.589844 L 86.132812 77.246094 L 87.261719 77.246094 L 88.738281 77.335938 L 88.828125 77.507812 L 88.738281 78.292969 L 85.523438 78.292969 L 85.175781 78.207031 Z M 85.175781 74.632812 "/>
<path style=" stroke:none;fill-rule:nonzero;fill:rgb(32.549021%,37.254903%,38.82353%);fill-opacity:1;" d="M 105.949219 63.390625 L 106.644531 63.390625 L 106.730469 63.652344 L 106.296875 63.828125 L 106.121094 63.738281 L 106.035156 64.523438 L 105.949219 69.402344 L 106.210938 69.492188 L 106.382812 70.101562 L 106.382812 70.886719 L 106.46875 71.582031 L 106.382812 72.976562 L 106.382812 73.324219 L 106.554688 73.414062 L 106.644531 73.847656 L 106.644531 74.109375 L 105.859375 74.109375 L 105.773438 74.023438 L 105.773438 63.566406 Z M 105.949219 63.390625 "/>
<path style=" stroke:none;fill-rule:nonzero;fill:rgb(30.588236%,33.725491%,34.901962%);fill-opacity:1;" d="M 99.863281 66.964844 L 100.210938 66.964844 L 100.296875 67.660156 L 100.472656 67.660156 L 100.472656 71.320312 L 99.601562 71.320312 L 99.601562 68.621094 L 99.691406 68.53125 Z M 99.863281 66.964844 "/>
<path style=" stroke:none;fill-rule:nonzero;fill:rgb(30.19608%,33.333334%,34.509805%);fill-opacity:1;" d="M 89.78125 67.660156 L 89.867188 67.660156 L 89.957031 68.792969 L 90.128906 69.925781 L 90.128906 74.023438 L 89.433594 74.023438 L 89.523438 69.402344 L 89.609375 69.144531 L 89.609375 68.359375 L 89.695312 68.183594 Z M 89.78125 67.660156 "/>
<path style=" stroke:none;fill-rule:nonzero;fill:rgb(42.352942%,45.09804%,46.666667%);fill-opacity:1;" d="M 102.558594 63.566406 L 102.644531 63.566406 L 102.644531 71.320312 L 102.558594 71.320312 L 102.472656 70.363281 L 102.296875 70.1875 L 102.296875 68.621094 L 102.210938 67.050781 L 102.210938 66.617188 L 102.039062 66.617188 L 101.863281 65.832031 L 101.863281 65.132812 L 102.039062 65.132812 L 102.125 64.523438 L 102.296875 64.261719 L 102.382812 63.828125 Z M 102.558594 63.566406 "/>
<path style=" stroke:none;fill-rule:nonzero;fill:rgb(30.19608%,33.333334%,34.509805%);fill-opacity:1;" d="M 93.867188 68.007812 L 94.128906 68.007812 L 94.128906 68.359375 L 94.300781 68.097656 L 94.390625 70.449219 L 94.300781 71.234375 L 93.519531 71.234375 L 93.433594 70.449219 L 93.433594 69.316406 L 93.605469 69.316406 L 93.605469 68.183594 L 93.78125 68.269531 Z M 93.867188 68.007812 "/>
<path style=" stroke:none;fill-rule:nonzero;fill:rgb(30.19608%,34.509805%,36.078432%);fill-opacity:1;" d="M 103.773438 68.707031 L 104.125 68.96875 L 104.125 69.664062 L 104.296875 69.664062 L 104.382812 69.316406 L 104.46875 70.277344 L 104.644531 70.1875 L 104.644531 71.410156 L 103.773438 71.410156 Z M 103.773438 68.707031 "/>
<path style=" stroke:none;fill-rule:nonzero;fill:rgb(30.19608%,33.333334%,34.509805%);fill-opacity:1;" d="M 91.519531 68.53125 L 91.78125 68.882812 L 91.867188 70.1875 L 92.042969 70.363281 L 92.128906 69.664062 L 92.214844 69.664062 L 92.214844 71.320312 L 91.519531 71.320312 L 91.347656 71.234375 L 91.347656 68.621094 Z M 91.519531 68.53125 "/>
<path style=" stroke:none;fill-rule:nonzero;fill:rgb(30.588236%,37.254903%,38.82353%);fill-opacity:1;" d="M 103.6875 72.453125 L 104.644531 72.453125 L 104.730469 72.542969 L 104.730469 74.023438 L 104.644531 74.109375 L 103.863281 74.109375 L 103.6875 74.023438 Z M 103.6875 72.453125 "/>
<path style=" stroke:none;fill-rule:nonzero;fill:rgb(29.019609%,31.37255%,32.549021%);fill-opacity:1;" d="M 95.519531 72.453125 L 96.386719 72.453125 L 96.476562 72.542969 L 96.476562 74.023438 L 95.519531 74.023438 Z M 95.519531 72.453125 "/>
<path style=" stroke:none;fill-rule:nonzero;fill:rgb(27.058825%,34.901962%,36.862746%);fill-opacity:1;" d="M 93.433594 72.453125 L 94.300781 72.453125 L 94.390625 72.542969 L 94.390625 74.023438 L 93.433594 74.023438 Z M 93.433594 72.453125 "/>
<path style=" stroke:none;fill-rule:nonzero;fill:rgb(10.588235%,70.588237%,83.137256%);fill-opacity:1;" d="M 47.453125 34.632812 L 47.976562 34.71875 L 48.0625 34.808594 L 47.976562 35.503906 L 47.542969 36.027344 L 47.367188 36.113281 L 46.847656 36.113281 L 46.671875 35.941406 L 46.757812 35.417969 L 47.195312 34.71875 Z M 47.453125 34.632812 "/>
<path style=" stroke:none;fill-rule:nonzero;fill:rgb(25.490198%,35.686275%,38.431373%);fill-opacity:1;" d="M 99.601562 72.453125 L 100.472656 72.453125 L 100.558594 72.804688 L 100.558594 74.023438 L 100.472656 74.109375 L 99.691406 74.109375 L 99.601562 74.023438 Z M 99.601562 72.453125 "/>
<path style=" stroke:none;fill-rule:nonzero;fill:rgb(10.588235%,70.588237%,83.137256%);fill-opacity:1;" d="M 76.832031 106.527344 L 77.527344 106.527344 L 78.046875 106.789062 L 78.222656 106.964844 L 78.136719 107.398438 L 77.875 107.660156 L 77.179688 107.574219 L 76.570312 107.226562 L 76.484375 106.878906 Z M 76.832031 106.527344 "/>
<path style=" stroke:none;fill-rule:nonzero;fill:rgb(27.450982%,32.941177%,34.509805%);fill-opacity:1;" d="M 101.6875 72.453125 L 102.558594 72.453125 L 102.644531 74.023438 L 102.472656 74.109375 L 101.6875 74.023438 Z M 101.6875 72.453125 "/>
<path style=" stroke:none;fill-rule:nonzero;fill:rgb(30.19608%,35.686275%,37.254903%);fill-opacity:1;" d="M 91.347656 72.453125 L 92.214844 72.453125 L 92.304688 74.023438 L 91.519531 74.109375 L 91.347656 74.023438 L 91.257812 72.542969 Z M 91.347656 72.453125 "/>
<path style=" stroke:none;fill-rule:nonzero;fill:rgb(37.254903%,40.392157%,41.960785%);fill-opacity:1;" d="M 91.867188 63.390625 L 92.214844 63.566406 L 92.214844 63.828125 L 91.78125 63.914062 L 91.609375 63.738281 L 91.519531 63.914062 L 91.433594 68.621094 L 91.347656 71.234375 L 91.519531 71.320312 L 91.257812 71.320312 L 91.257812 63.566406 Z M 91.867188 63.390625 "/>
<path style=" stroke:none;fill-rule:nonzero;fill:rgb(10.588235%,70.588237%,83.137256%);fill-opacity:1;" d="M 127.242188 89.273438 L 127.851562 89.359375 L 128.023438 89.535156 L 127.9375 89.972656 L 127.675781 90.40625 L 127.503906 90.40625 L 127.328125 90.753906 L 126.808594 90.753906 L 126.632812 90.582031 L 126.632812 89.972656 Z M 127.242188 89.273438 "/>
<path style=" stroke:none;fill-rule:nonzero;fill:rgb(29.019609%,33.333334%,34.901962%);fill-opacity:1;" d="M 97.605469 72.453125 L 98.472656 72.453125 L 98.472656 74.023438 L 97.691406 74.109375 L 97.605469 74.023438 Z M 97.605469 72.453125 "/>
<path style=" stroke:none;fill-rule:nonzero;fill:rgb(10.588235%,70.588237%,83.137256%);fill-opacity:1;" d="M 49.195312 87.183594 L 49.539062 87.269531 L 50.148438 87.792969 L 50.324219 88.488281 L 50.148438 88.75 L 49.539062 88.664062 L 48.933594 87.964844 L 49.019531 87.355469 Z M 49.195312 87.183594 "/>
<path style=" stroke:none;fill-rule:nonzero;fill:rgb(10.588235%,70.588237%,83.137256%);fill-opacity:1;" d="M 120.984375 23.214844 L 121.59375 23.304688 L 122.375 24 L 122.289062 24.4375 L 122.113281 24.609375 L 121.507812 24.523438 L 120.898438 24 L 120.8125 23.476562 Z M 120.984375 23.214844 "/>
<path style=" stroke:none;fill-rule:nonzero;fill:rgb(10.588235%,70.588237%,83.137256%);fill-opacity:1;" d="M 106.816406 104.613281 L 107.511719 104.613281 L 107.6875 104.785156 L 107.6875 105.222656 L 107.25 105.570312 L 106.90625 105.746094 L 106.296875 105.746094 L 106.035156 105.484375 L 106.210938 104.960938 Z M 106.816406 104.613281 "/>
<path style=" stroke:none;fill-rule:nonzero;fill:rgb(10.588235%,70.588237%,83.137256%);fill-opacity:1;" d="M 41.980469 71.84375 L 42.5 71.929688 L 42.847656 72.453125 L 42.9375 73.238281 L 42.761719 73.414062 L 42.152344 73.414062 L 41.890625 73.0625 L 41.804688 72.105469 Z M 41.980469 71.84375 "/>
<path style=" stroke:none;fill-rule:nonzero;fill:rgb(10.588235%,70.588237%,83.137256%);fill-opacity:1;" d="M 52.582031 27.660156 L 53.015625 27.746094 L 53.105469 28.269531 L 52.84375 28.707031 L 52.234375 29.230469 L 51.714844 29.054688 L 51.625 28.707031 L 52.148438 28.007812 Z M 52.582031 27.660156 "/>
<path style=" stroke:none;fill-rule:nonzero;fill:rgb(10.588235%,70.588237%,83.137256%);fill-opacity:1;" d="M 117.679688 20.515625 L 118.203125 20.515625 L 119.070312 21.300781 L 118.984375 21.648438 L 118.550781 21.910156 L 117.855469 21.558594 L 117.507812 21.210938 L 117.59375 20.601562 Z M 117.679688 20.515625 "/>
<path style=" stroke:none;fill-rule:nonzero;fill:rgb(10.588235%,70.588237%,83.137256%);fill-opacity:1;" d="M 62.230469 19.207031 L 62.664062 19.382812 L 62.839844 19.730469 L 62.054688 20.425781 L 61.535156 20.601562 L 61.101562 20.167969 L 61.273438 19.816406 L 61.710938 19.46875 Z M 62.230469 19.207031 "/>
<path style=" stroke:none;fill-rule:nonzero;fill:rgb(10.588235%,70.588237%,83.137256%);fill-opacity:1;" d="M 124.632812 92.585938 L 125.070312 92.585938 L 125.242188 92.757812 L 125.242188 93.195312 L 124.722656 93.804688 L 124.460938 93.980469 L 123.9375 93.980469 L 123.851562 93.890625 L 123.851562 93.28125 L 124.199219 92.847656 Z M 124.632812 92.585938 "/>
<path style=" stroke:none;fill-rule:nonzero;fill:rgb(10.588235%,70.588237%,83.137256%);fill-opacity:1;" d="M 114.203125 18.160156 L 114.8125 18.25 L 115.507812 18.945312 L 115.421875 19.382812 L 114.726562 19.382812 L 114.203125 19.121094 L 113.859375 18.773438 L 113.945312 18.335938 Z M 114.203125 18.160156 "/>
<path style=" stroke:none;fill-rule:nonzero;fill:rgb(10.588235%,70.588237%,83.137256%);fill-opacity:1;" d="M 81.089844 107.398438 L 81.699219 107.398438 L 82.21875 107.660156 L 82.394531 107.921875 L 82.308594 108.359375 L 82.21875 108.445312 L 81.4375 108.445312 L 80.828125 108.183594 L 80.742188 107.835938 L 80.917969 107.488281 Z M 81.089844 107.398438 "/>
<path style=" stroke:none;fill-rule:nonzero;fill:rgb(10.588235%,70.19608%,82.352942%);fill-opacity:1;" d="M 49.800781 30.972656 L 50.148438 31.058594 L 50.410156 31.40625 L 50.324219 31.929688 L 49.539062 32.628906 L 49.195312 32.453125 L 49.105469 31.84375 L 49.628906 31.148438 Z M 49.800781 30.972656 "/>
<path style=" stroke:none;fill-rule:nonzero;fill:rgb(10.588235%,70.588237%,83.137256%);fill-opacity:1;" d="M 72.746094 105.222656 L 73.355469 105.308594 L 73.964844 105.65625 L 74.050781 106.09375 L 73.789062 106.441406 L 73.179688 106.355469 L 72.484375 106.003906 L 72.574219 105.394531 Z M 72.746094 105.222656 "/>
<path style=" stroke:none;fill-rule:nonzero;fill:rgb(10.588235%,70.588237%,83.137256%);fill-opacity:1;" d="M 51.800781 90.667969 L 52.320312 90.753906 L 52.929688 91.539062 L 52.929688 91.976562 L 52.757812 92.148438 L 52.234375 92.0625 L 51.539062 91.363281 L 51.539062 90.929688 Z M 51.800781 90.667969 "/>
<path style=" stroke:none;fill-rule:nonzero;fill:rgb(10.588235%,70.588237%,83.137256%);fill-opacity:1;" d="M 132.023438 82.039062 L 132.457031 82.128906 L 132.632812 82.476562 L 132.371094 83.171875 L 131.9375 83.609375 L 131.585938 83.695312 L 131.328125 83.347656 L 131.414062 82.824219 Z M 132.023438 82.039062 "/>
<path style=" stroke:none;fill-rule:nonzero;fill:rgb(10.588235%,70.19608%,82.745099%);fill-opacity:1;" d="M 136.28125 48.664062 L 136.714844 48.75 L 136.890625 48.925781 L 137.148438 49.882812 L 136.890625 50.230469 L 136.28125 50.144531 L 136.019531 49.707031 L 135.933594 49.011719 Z M 136.28125 48.664062 "/>
<path style=" stroke:none;fill-rule:nonzero;fill:rgb(10.588235%,70.588237%,83.137256%);fill-opacity:1;" d="M 44.933594 79.863281 L 45.367188 79.863281 L 45.804688 80.558594 L 45.890625 81.257812 L 45.628906 81.515625 L 45.195312 81.34375 L 44.671875 80.472656 L 44.761719 80.035156 Z M 44.933594 79.863281 "/>
<path style=" stroke:none;fill-rule:nonzero;fill:rgb(10.588235%,70.19608%,82.352942%);fill-opacity:1;" d="M 41.195312 50.667969 L 41.804688 50.667969 L 41.980469 50.929688 L 41.890625 51.625 L 41.632812 52.148438 L 41.195312 52.234375 L 40.9375 51.976562 L 40.9375 51.191406 L 41.109375 50.753906 Z M 41.195312 50.667969 "/>
<path style=" stroke:none;fill-rule:nonzero;fill:rgb(10.588235%,70.588237%,83.137256%);fill-opacity:1;" d="M 61.1875 99.382812 L 61.710938 99.382812 L 62.316406 99.816406 L 62.492188 100.167969 L 62.492188 100.601562 L 62.40625 100.691406 L 61.796875 100.601562 L 61.015625 99.992188 L 61.015625 99.558594 Z M 61.1875 99.382812 "/>
<path style=" stroke:none;fill-rule:nonzero;fill:rgb(10.588235%,70.588237%,83.137256%);fill-opacity:1;" d="M 89.609375 108.011719 L 90.390625 108.011719 L 90.738281 108.183594 L 90.824219 108.882812 L 90.5625 109.054688 L 89.695312 109.054688 L 89.433594 108.882812 L 89.433594 108.183594 Z M 89.609375 108.011719 "/>
<path style=" stroke:none;fill-rule:nonzero;fill:rgb(10.588235%,70.588237%,83.137256%);fill-opacity:1;" d="M 121.507812 95.636719 L 122.027344 95.636719 L 122.203125 95.808594 L 122.113281 96.15625 L 121.679688 96.679688 L 121.246094 97.03125 L 120.898438 97.03125 L 120.636719 96.59375 L 120.8125 96.15625 Z M 121.507812 95.636719 "/>
<path style=" stroke:none;fill-rule:nonzero;fill:rgb(10.588235%,70.588237%,83.137256%);fill-opacity:1;" d="M 54.84375 93.804688 L 55.277344 93.980469 L 55.886719 94.589844 L 55.796875 95.199219 L 55.363281 95.285156 L 54.582031 94.675781 L 54.496094 94.066406 L 54.582031 93.890625 Z M 54.84375 93.804688 "/>
<path style=" stroke:none;fill-rule:nonzero;fill:rgb(10.588235%,70.588237%,83.137256%);fill-opacity:1;" d="M 131.675781 36.550781 L 132.109375 36.722656 L 132.632812 37.507812 L 132.804688 37.945312 L 132.371094 38.207031 L 131.9375 38.03125 L 131.414062 37.335938 L 131.5 36.722656 Z M 131.675781 36.550781 "/>
<path style=" stroke:none;fill-rule:nonzero;fill:rgb(10.588235%,70.588237%,83.137256%);fill-opacity:1;" d="M 124.113281 26.265625 L 124.546875 26.265625 L 124.984375 26.703125 L 125.328125 27.136719 L 125.242188 27.574219 L 125.15625 27.660156 L 124.632812 27.660156 L 124.113281 27.050781 L 123.851562 26.875 L 123.851562 26.441406 Z M 124.113281 26.265625 "/>
<path style=" stroke:none;fill-rule:nonzero;fill:rgb(10.588235%,70.588237%,83.137256%);fill-opacity:1;" d="M 58.839844 21.648438 L 59.1875 21.820312 L 59.1875 22.433594 L 58.492188 23.042969 L 58.144531 23.128906 L 57.710938 22.867188 L 57.796875 22.433594 L 58.667969 21.734375 Z M 58.839844 21.648438 "/>
<path style=" stroke:none;fill-rule:nonzero;fill:rgb(10.588235%,70.588237%,83.137256%);fill-opacity:1;" d="M 118.117188 98.335938 L 118.550781 98.335938 L 118.898438 98.683594 L 118.726562 99.035156 L 118.117188 99.558594 L 117.507812 99.644531 L 117.335938 99.46875 L 117.335938 99.035156 L 117.769531 98.597656 Z M 118.117188 98.335938 "/>
<path style=" stroke:none;fill-rule:nonzero;fill:rgb(10.588235%,70.588237%,83.137256%);fill-opacity:1;" d="M 57.796875 96.855469 L 58.320312 96.855469 L 58.839844 97.203125 L 59.101562 97.464844 L 59.015625 98.074219 L 58.578125 98.164062 L 58.058594 97.8125 L 57.625 97.378906 L 57.710938 96.941406 Z M 57.796875 96.855469 "/>
<path style=" stroke:none;fill-rule:nonzero;fill:rgb(10.588235%,70.19608%,82.352942%);fill-opacity:1;" d="M 43.195312 75.851562 L 43.632812 75.941406 L 44.152344 76.550781 L 44.238281 76.722656 L 44.238281 77.246094 L 44.066406 77.507812 L 43.632812 77.507812 L 43.28125 77.074219 L 43.109375 76.550781 L 43.109375 76.027344 Z M 43.195312 75.851562 "/>
<path style=" stroke:none;fill-rule:nonzero;fill:rgb(10.588235%,70.588237%,83.137256%);fill-opacity:1;" d="M 130.023438 85.789062 L 130.371094 85.875 L 130.457031 86.136719 L 130.195312 86.832031 L 129.675781 87.269531 L 129.242188 87.269531 L 129.15625 87.09375 L 129.15625 86.484375 L 129.5 86.050781 Z M 130.023438 85.789062 "/>
<path style=" stroke:none;fill-rule:nonzero;fill:rgb(30.19608%,33.333334%,34.901962%);fill-opacity:1;" d="M 95.519531 68.621094 L 95.691406 68.621094 L 95.691406 69.402344 L 95.953125 69.492188 L 96.125 70.363281 L 96.300781 70.710938 L 96.476562 70.710938 L 96.476562 71.234375 L 95.429688 71.234375 Z M 95.519531 68.621094 "/>
<path style=" stroke:none;fill-rule:nonzero;fill:rgb(10.588235%,70.588237%,83.137256%);fill-opacity:1;" d="M 40.675781 54.851562 L 41.285156 54.9375 L 41.457031 55.113281 L 41.371094 55.894531 L 41.109375 56.417969 L 40.5 56.417969 L 40.414062 56.332031 L 40.5 55.199219 Z M 40.675781 54.851562 "/>
<path style=" stroke:none;fill-rule:nonzero;fill:rgb(10.588235%,70.588237%,83.137256%);fill-opacity:1;" d="M 65.96875 17.027344 L 66.316406 17.117188 L 66.402344 17.640625 L 65.96875 17.988281 L 65.445312 18.25 L 64.925781 18.074219 L 64.75 17.898438 L 64.835938 17.550781 L 65.359375 17.203125 Z M 65.96875 17.027344 "/>
<path style=" stroke:none;fill-rule:nonzero;fill:rgb(10.588235%,70.588237%,83.137256%);fill-opacity:1;" d="M 64.835938 101.734375 L 65.445312 101.734375 L 65.96875 102.085938 L 66.140625 102.34375 L 66.140625 102.867188 L 66.054688 102.957031 L 65.359375 102.867188 L 64.664062 102.257812 L 64.75 101.824219 Z M 64.835938 101.734375 "/>
<path style=" stroke:none;fill-rule:nonzero;fill:rgb(10.588235%,70.588237%,83.137256%);fill-opacity:1;" d="M 110.292969 16.15625 L 110.902344 16.15625 L 111.773438 16.679688 L 111.773438 17.117188 L 111.597656 17.289062 L 110.988281 17.289062 L 110.292969 16.855469 L 110.207031 16.246094 Z M 110.292969 16.15625 "/>
<path style=" stroke:none;fill-rule:nonzero;fill:rgb(10.588235%,70.588237%,83.137256%);fill-opacity:1;" d="M 110.988281 102.867188 L 111.421875 102.957031 L 111.597656 103.21875 L 111.511719 103.566406 L 110.726562 104 L 110.121094 104 L 109.945312 103.828125 L 110.03125 103.480469 L 110.382812 103.042969 Z M 110.988281 102.867188 "/>
<path style=" stroke:none;fill-rule:nonzero;fill:rgb(10.588235%,70.588237%,83.137256%);fill-opacity:1;" d="M 129.414062 32.976562 L 129.9375 33.0625 L 130.371094 33.585938 L 130.546875 33.933594 L 130.457031 34.371094 L 130.109375 34.546875 L 129.414062 33.933594 L 129.242188 33.5 L 129.328125 33.0625 Z M 129.414062 32.976562 "/>
<path style=" stroke:none;fill-rule:nonzero;fill:rgb(10.588235%,70.588237%,83.137256%);fill-opacity:1;" d="M 102.382812 13.019531 L 102.992188 13.019531 L 103.6875 13.367188 L 103.773438 13.890625 L 103.601562 14.066406 L 102.734375 13.980469 L 102.039062 13.542969 L 102.210938 13.105469 Z M 102.382812 13.019531 "/>
<path style=" stroke:none;fill-rule:nonzero;fill:rgb(10.588235%,70.588237%,83.137256%);fill-opacity:1;" d="M 68.664062 103.652344 L 69.359375 103.652344 L 69.878906 104 L 70.054688 104.351562 L 69.964844 104.785156 L 69.359375 104.785156 L 68.664062 104.4375 L 68.574219 103.828125 Z M 68.664062 103.652344 "/>
<path style=" stroke:none;fill-rule:nonzero;fill:rgb(10.588235%,70.588237%,83.137256%);fill-opacity:1;" d="M 46.933594 83.609375 L 47.28125 83.695312 L 47.628906 84.042969 L 47.890625 84.742188 L 47.804688 85.089844 L 47.714844 85.175781 L 47.28125 85.175781 L 46.757812 84.566406 L 46.671875 84.042969 Z M 46.933594 83.609375 "/>
<path style=" stroke:none;fill-rule:nonzero;fill:rgb(10.588235%,70.588237%,83.137256%);fill-opacity:1;" d="M 41.285156 67.660156 L 41.632812 67.835938 L 41.890625 68.269531 L 41.980469 69.144531 L 41.457031 69.230469 L 41.023438 68.96875 L 40.9375 68.707031 L 40.9375 67.835938 Z M 41.285156 67.660156 "/>
<path style=" stroke:none;fill-rule:nonzero;fill:rgb(10.588235%,70.588237%,83.137256%);fill-opacity:1;" d="M 40.675781 63.390625 L 41.195312 63.566406 L 41.371094 64 L 41.371094 64.699219 L 41.023438 65.046875 L 40.675781 64.960938 L 40.5 64.699219 L 40.414062 64.261719 L 40.414062 63.476562 Z M 40.675781 63.390625 "/>
<path style=" stroke:none;fill-rule:nonzero;fill:rgb(10.588235%,70.588237%,83.137256%);fill-opacity:1;" d="M 98.300781 12.0625 L 98.996094 12.148438 L 99.515625 12.324219 L 99.691406 12.671875 L 99.515625 13.019531 L 98.734375 13.019531 L 98.125 12.847656 L 97.953125 12.410156 L 98.039062 12.148438 Z M 98.300781 12.0625 "/>
<path style=" stroke:none;fill-rule:nonzero;fill:rgb(10.588235%,70.588237%,83.137256%);fill-opacity:1;" d="M 102.820312 106.09375 L 103.429688 106.09375 L 103.515625 106.265625 L 103.515625 106.789062 L 102.90625 107.140625 L 102.125 107.140625 L 102.039062 106.527344 L 102.210938 106.265625 Z M 102.820312 106.09375 "/>
<path style=" stroke:none;fill-rule:nonzero;fill:rgb(10.588235%,70.588237%,83.137256%);fill-opacity:1;" d="M 43.542969 42.476562 L 44.152344 42.5625 L 44.328125 43 L 43.976562 43.695312 L 43.632812 43.957031 L 43.195312 43.871094 L 43.109375 43.78125 L 43.195312 43.085938 Z M 43.542969 42.476562 "/>
<path style=" stroke:none;fill-rule:nonzero;fill:rgb(10.588235%,70.588237%,83.137256%);fill-opacity:1;" d="M 40.414062 59.207031 L 41.023438 59.207031 L 41.109375 59.296875 L 41.109375 60.601562 L 41.023438 60.6875 L 40.328125 60.6875 L 40.242188 60.601562 L 40.242188 59.382812 Z M 40.414062 59.207031 "/>
<path style=" stroke:none;fill-rule:nonzero;fill:rgb(10.588235%,70.588237%,83.137256%);fill-opacity:1;" d="M 55.539062 24.523438 L 55.886719 24.609375 L 55.972656 25.308594 L 55.277344 25.917969 L 54.84375 26.003906 L 54.582031 25.65625 L 54.757812 25.132812 Z M 55.539062 24.523438 "/>
<path style=" stroke:none;fill-rule:nonzero;fill:rgb(10.588235%,70.19608%,82.745099%);fill-opacity:1;" d="M 133.847656 78.117188 L 134.195312 78.207031 L 134.367188 78.640625 L 134.109375 79.425781 L 133.761719 79.773438 L 133.328125 79.6875 L 133.152344 79.425781 L 133.238281 78.992188 Z M 133.847656 78.117188 "/>
<path style=" stroke:none;fill-rule:nonzero;fill:rgb(10.588235%,70.588237%,83.137256%);fill-opacity:1;" d="M 133.5 40.558594 L 134.023438 40.558594 L 134.28125 41.082031 L 134.457031 41.605469 L 134.367188 42.039062 L 134.023438 42.128906 L 133.585938 41.867188 L 133.238281 40.996094 L 133.328125 40.644531 Z M 133.5 40.558594 "/>
<path style=" stroke:none;fill-rule:nonzero;fill:rgb(10.588235%,70.588237%,83.137256%);fill-opacity:1;" d="M 127.070312 29.492188 L 127.503906 29.664062 L 128.109375 30.449219 L 128.023438 30.886719 L 127.503906 30.972656 L 126.894531 30.363281 L 126.71875 30.101562 L 126.71875 29.664062 Z M 127.070312 29.492188 "/>
<path style=" stroke:none;fill-rule:nonzero;fill:rgb(10.588235%,70.588237%,83.137256%);fill-opacity:1;" d="M 135.324219 74.109375 L 135.757812 74.195312 L 135.847656 74.632812 L 135.585938 75.503906 L 135.414062 75.679688 L 134.890625 75.679688 L 134.71875 75.589844 L 134.804688 74.980469 L 135.152344 74.285156 Z M 135.324219 74.109375 "/>
<path style=" stroke:none;fill-rule:nonzero;fill:rgb(10.980392%,69.803923%,82.352942%);fill-opacity:1;" d="M 136.453125 70.101562 L 136.890625 70.101562 L 136.976562 70.1875 L 136.976562 70.886719 L 136.628906 71.582031 L 136.195312 71.667969 L 135.933594 71.410156 L 136.019531 70.625 L 136.28125 70.1875 Z M 136.453125 70.101562 "/>
<path style=" stroke:none;fill-rule:nonzero;fill:rgb(12.156863%,68.627453%,80.392158%);fill-opacity:1;" d="M 42.328125 46.484375 L 42.847656 46.484375 L 43.023438 46.660156 L 42.9375 47.441406 L 42.675781 47.878906 L 42.242188 47.964844 L 41.890625 47.617188 L 42.066406 46.832031 Z M 42.328125 46.484375 "/>
<path style=" stroke:none;fill-rule:nonzero;fill:rgb(10.588235%,70.588237%,83.137256%);fill-opacity:1;" d="M 137.148438 52.757812 L 137.5 52.933594 L 137.671875 53.628906 L 137.671875 54.414062 L 137.324219 54.503906 L 136.890625 54.242188 L 136.804688 53.980469 L 136.804688 53.019531 Z M 137.148438 52.757812 "/>
<path style=" stroke:none;fill-rule:nonzero;fill:rgb(10.980392%,70.19608%,82.352942%);fill-opacity:1;" d="M 135.0625 44.480469 L 135.5 44.566406 L 135.847656 45.351562 L 135.933594 45.875 L 135.671875 46.046875 L 135.152344 46.046875 L 134.804688 45.003906 L 134.890625 44.65625 Z M 135.0625 44.480469 "/>
<path style=" stroke:none;fill-rule:nonzero;fill:rgb(10.588235%,70.588237%,83.137256%);fill-opacity:1;" d="M 114.726562 100.777344 L 115.25 100.863281 L 115.25 101.386719 L 114.898438 101.734375 L 114.378906 101.910156 L 113.859375 101.910156 L 113.769531 101.472656 L 114.117188 101.039062 Z M 114.726562 100.777344 "/>
<path style=" stroke:none;fill-rule:nonzero;fill:rgb(10.588235%,70.588237%,83.137256%);fill-opacity:1;" d="M 45.367188 38.46875 L 45.804688 38.554688 L 45.890625 38.640625 L 45.890625 39.339844 L 45.542969 39.859375 L 45.023438 40.035156 L 44.847656 39.859375 L 44.933594 38.988281 Z M 45.367188 38.46875 "/>
<path style=" stroke:none;fill-rule:nonzero;fill:rgb(10.588235%,70.588237%,83.137256%);fill-opacity:1;" d="M 94.214844 11.363281 L 95.171875 11.539062 L 95.429688 11.800781 L 95.34375 12.234375 L 94.039062 12.234375 L 93.695312 12.0625 L 93.78125 11.625 Z M 94.214844 11.363281 "/>
<path style=" stroke:none;fill-rule:nonzero;fill:rgb(11.372549%,69.803923%,81.960785%);fill-opacity:1;" d="M 137.324219 61.472656 L 137.933594 61.472656 L 138.019531 61.734375 L 138.019531 62.519531 L 137.84375 63.128906 L 137.238281 63.128906 L 137.238281 61.5625 Z M 137.324219 61.472656 "/>
<path style=" stroke:none;fill-rule:nonzero;fill:rgb(10.980392%,69.803923%,82.352942%);fill-opacity:1;" d="M 106.382812 14.414062 L 107.25 14.414062 L 107.601562 14.589844 L 107.6875 14.761719 L 107.6875 15.460938 L 107.425781 15.546875 L 106.382812 15.113281 L 106.296875 15.023438 L 106.296875 14.5 Z M 106.382812 14.414062 "/>
<path style=" stroke:none;fill-rule:nonzero;fill:rgb(10.588235%,70.588237%,83.137256%);fill-opacity:1;" d="M 98.648438 107.140625 L 99.34375 107.140625 L 99.515625 107.488281 L 99.429688 107.835938 L 99.34375 107.921875 L 98.125 108.011719 L 97.867188 107.835938 L 97.953125 107.398438 Z M 98.648438 107.140625 "/>
<path style=" stroke:none;fill-rule:nonzero;fill:rgb(11.372549%,69.803923%,81.960785%);fill-opacity:1;" d="M 136.976562 65.917969 L 137.671875 65.917969 L 137.585938 67.136719 L 137.324219 67.398438 L 136.890625 67.398438 L 136.804688 67.3125 L 136.804688 66.09375 Z M 136.976562 65.917969 "/>
<path style=" stroke:none;fill-rule:nonzero;fill:rgb(10.980392%,69.803923%,82.352942%);fill-opacity:1;" d="M 137.5 57.027344 L 137.84375 57.117188 L 138.019531 57.640625 L 138.019531 58.511719 L 137.933594 58.683594 L 137.324219 58.597656 L 137.238281 58.511719 L 137.238281 57.203125 Z M 137.5 57.027344 "/>
<path style=" stroke:none;fill-rule:nonzero;fill:rgb(30.588236%,33.725491%,34.901962%);fill-opacity:1;" d="M 97.605469 69.753906 L 98.125 69.753906 L 98.300781 70.277344 L 98.472656 70.449219 L 98.472656 71.320312 L 97.777344 71.320312 L 97.605469 71.234375 Z M 97.605469 69.753906 "/>
<path style=" stroke:none;fill-rule:nonzero;fill:rgb(33.725491%,52.156866%,56.862748%);fill-opacity:1;" d="M 71.183594 75.15625 L 71.355469 75.332031 L 71.355469 82.390625 L 71.53125 82.5625 L 71.09375 82.476562 L 71.09375 78.992188 Z M 71.183594 75.15625 "/>
<path style=" stroke:none;fill-rule:nonzero;fill:rgb(42.745098%,45.490196%,47.058824%);fill-opacity:1;" d="M 73.09375 75.242188 L 73.179688 75.242188 L 73.179688 82.652344 L 71.355469 82.652344 L 71.53125 82.476562 L 73.09375 82.390625 L 73.007812 75.332031 Z M 73.09375 75.242188 "/>
<path style=" stroke:none;fill-rule:nonzero;fill:rgb(10.588235%,70.588237%,83.137256%);fill-opacity:1;" d="M 85.523438 108.011719 L 86.21875 108.011719 L 86.652344 108.273438 L 86.566406 108.707031 L 86.390625 108.882812 L 85.609375 108.882812 L 85.4375 108.707031 L 85.4375 108.097656 Z M 85.523438 108.011719 "/>
<path style=" stroke:none;fill-rule:nonzero;fill:rgb(30.19608%,33.333334%,34.509805%);fill-opacity:1;" d="M 105.949219 63.390625 L 106.644531 63.390625 L 106.730469 63.652344 L 106.296875 63.828125 L 106.121094 63.738281 L 106.035156 64.523438 L 105.949219 69.402344 L 105.859375 69.402344 L 105.859375 63.476562 Z M 105.949219 63.390625 "/>
<path style=" stroke:none;fill-rule:nonzero;fill:rgb(10.588235%,70.588237%,83.137256%);fill-opacity:1;" d="M 94.039062 107.921875 L 94.910156 107.921875 L 94.996094 108.273438 L 94.5625 108.53125 L 93.867188 108.621094 L 93.519531 108.445312 L 93.519531 108.097656 Z M 94.039062 107.921875 "/>
<path style=" stroke:none;fill-rule:nonzero;fill:rgb(29.803923%,35.294119%,36.862746%);fill-opacity:1;" d="M 104.125 63.390625 L 104.644531 63.476562 L 104.644531 63.914062 L 104.125 63.914062 L 104.125 64.523438 L 103.773438 64.609375 L 103.6875 63.566406 Z M 104.125 63.390625 "/>
<path style=" stroke:none;fill-rule:nonzero;fill:rgb(29.803923%,34.901962%,36.078432%);fill-opacity:1;" d="M 99.953125 63.390625 L 100.472656 63.476562 L 100.472656 64.347656 L 100.125 64.4375 L 99.953125 64.089844 L 99.777344 64 L 99.691406 63.652344 Z M 99.953125 63.390625 "/>
<path style=" stroke:none;fill-rule:nonzero;fill:rgb(31.37255%,36.470589%,38.039216%);fill-opacity:1;" d="M 97.691406 63.390625 L 98.210938 63.390625 L 98.472656 63.566406 L 98.472656 64 L 97.953125 64.089844 L 97.605469 63.914062 L 97.605469 63.476562 Z M 97.691406 63.390625 "/>
<path style=" stroke:none;fill-rule:nonzero;fill:rgb(31.764707%,36.470589%,38.039216%);fill-opacity:1;" d="M 95.691406 63.390625 L 96.386719 63.476562 L 96.300781 63.828125 L 95.867188 63.914062 L 95.691406 63.828125 L 95.691406 64.609375 L 95.519531 64.609375 L 95.519531 63.476562 Z M 95.691406 63.390625 "/>
<path style=" stroke:none;fill-rule:nonzero;fill:rgb(31.37255%,34.509805%,35.686275%);fill-opacity:1;" d="M 93.519531 63.476562 L 94.300781 63.476562 L 94.390625 63.914062 L 94.214844 64.089844 L 94.214844 63.914062 L 93.605469 64.089844 L 93.433594 63.914062 Z M 93.519531 63.476562 "/>
<path style=" stroke:none;fill-rule:nonzero;fill:rgb(30.19608%,36.470589%,38.431373%);fill-opacity:1;" d="M 105.949219 63.390625 L 106.644531 63.390625 L 106.730469 63.652344 L 106.296875 63.828125 L 106.121094 63.738281 L 105.949219 64.523438 L 105.859375 64.523438 L 105.859375 63.476562 Z M 105.949219 63.390625 "/>
<path style=" stroke:none;fill-rule:nonzero;fill:rgb(40.392157%,47.058824%,49.411765%);fill-opacity:1;" d="M 73.09375 82.300781 L 73.179688 82.652344 L 71.355469 82.652344 L 71.53125 82.476562 L 72.921875 82.390625 Z M 73.09375 82.300781 "/>
<path style=" stroke:none;fill-rule:nonzero;fill:rgb(30.19608%,33.333334%,34.509805%);fill-opacity:1;" d="M 89.695312 63.476562 L 90.128906 63.476562 L 90.042969 63.914062 L 89.609375 64 L 89.433594 63.652344 Z M 89.695312 63.476562 "/>
<path style=" stroke:none;fill-rule:nonzero;fill:rgb(28.627452%,35.686275%,37.64706%);fill-opacity:1;" d="M 91.867188 63.390625 L 92.214844 63.566406 L 92.214844 63.828125 L 91.78125 63.914062 L 91.609375 63.566406 Z M 91.867188 63.390625 "/>
</g>
</svg>
