<?xml version="1.0" encoding="UTF-8"?>
<svg version="1.1" viewBox="0 0 2048 535" width="440" height="115" xmlns="http://www.w3.org/2000/svg">
<path transform="translate(0)" d="m0 0h2048v535h-2048z" fill="#FCFCFC"/>
<path transform="translate(165,75)" d="m0 0h24l11 5 9 9v2h2l2 2 4-4 4 1-2 5 8 1 3 1-2-5h3l4 8 7 6 16 7 19 12 10-1h2l2 5 1 4 10 1 7 2 8 16 8 11 6 8 4 8v10l-5 5-4 3-3 1h-7l-4-3-1 50-10 8-1 90-1 38-2 10-4 8-7 11-8 7-8 6-11 6-10 3-63 1-2 7-4 6-5-1-2-3-2-8-60-1-13-3-13-7-9-7-9-9-7-12-4-13-1-127-12-11-1-45h-12l-8-6-3-5v-9l7-11 10-13 9-16 3-4 6-1h8l3-10 2-2 5 1v2h6l4-2 3-3 10-6 16-8 8-5 4-8 5-4 6-1 5 2 1 3 8-7 5-5 6-4z" fill="#A6846A"/>
<path transform="translate(1362,74)" d="m0 0h6l-1 3-28 22-13 10-3 2 1 15v32l-1 3 9-3 12-3 4-2 7-2 24-7 13-3h2l-3 10-11 26-12 22-13 19-12 14-14 13-15 10-16 8-11 4-20 4-15 1v15l2 43 3 29-4-2-18-13-17-12-6-4v-2l-4-1v-2l-5-2-3-2v-2h-3v-2l-4-1v-2l-5-2-18-13-3-3 1-10 6-20 5-13 6-11 2-5 6-11 4-8h2v-3h2v-3h2v-3h2l2-5 3-5 2-1 1-3 4-3-1-5-10-14-12-24-4-11-5-21-2-6-1-10-1-2v-10l9 3 23 11 28 13 17 8 3 1 4-10 2-1 1-3 9-7 6-3 9-2h9l5 1 9-4 10-4 18-8 5-3z" fill="#8A253F"/>
<path transform="translate(171,270)" d="m0 0h9l17 9 12 6 12 3 6 5 6 3 5 3v7l1 3 5 2 1 3 5 2 8 6 1 7-2 1v-3l-5-2-2-1v-2l-6-3v-2l-6-2 1 8 18 18 1 4h2l1 6-2 4-4-7v-2l-4-2-11-11-2-1 1 12h2l6 8 2 4 3 1 2 3-1 9-3 4-4 9-6 1h-4l-1-10h-3v11h-9l-2-1-1-10-1 1-2 10h-9l-1-1v-10h-4l1 2v7l-1 2h-8l-2-1v-9l2-2h-13l-5-3-16-1-6-2v-1l8-1-4-1-30 1-13 1v-15l-4 2-4 6-2 6h-2v6h-2v-3h-2v-8l1-2h2l2-4 4-5 6-5 2-4v-6l-1-2-9 9h-3v-2l-4 2 1-4 5-7 9-7 1-2h2l-1-6-7 4-7 5h-3l-1-3 4-5 4-3h2v-2h2v-2l6-3 1-5-10 2-5 2-3-1-3-2v-18l7-2 15-2 22-2 6-2 12 1 1-3h-2v-2l6 1v4l5 2 3 4 6 2 1-2-8-3-1-8z" fill="#A58369"/>
<path transform="translate(165,75)" d="m0 0h24l11 5 9 9v2h2l6 12 4 7h3l-1 4 2 9-1 10-6 9-6 8-8 8-16 8-12 2-12-2-10-6-8-6-9-11-3-4v-2l-4-2-8-10-4 1-3 5h-2v2h-2l4-12 6-1 10 10v-2l-4-7-4-4-2-1 1-4-2-1v2h-3l-1 3-9 2v4h2v-2l3 1-1 3h-2v2l-4 1v-4h-2v-2l-6 2v2l5 1 3 3 1 8 2 1-7 6h-3l-2-4h-9l-5 6 2 1-2 2h-8l-3-3v-2l-5-1-2-4 4-1-1-3h4v-3l-4 1-4 5h-2l-1 6-3-2v-3h-9v3h-2l-1 5-6 11-4 6h-2l-2 5-5 7h-2v14l10 5 5-1 1-2-2-4-7-2-3-1v-3l9-2-2-1v-2l-5-2-1-2 6 1 4 4 2 4 3 3 2 5 2 1 1 3 1 50 2 1v2l4 2 3 4 1 112 1 11-2-1-1-4-2 4-1-120-12-11-1-45h-12l-8-6-3-5v-9l7-11 10-13 9-16 3-4 6-1h8l3-10 2-2 5 1v2h6l4-2 3-3 10-6 16-8 8-5 4-8 5-4 6-1 5 2 1 3 8-7 5-5 6-4z" fill="#A48168"/>
<path transform="translate(1870,237)" d="m0 0h21l15 4 11 7 6 5 6 10 4 11 2 6v15l-3 11-6 12-7 8-11 7-13 5-9 1h-14l-14-3-11-6-10-9-7-11-4-10-1-6v-14l3-12 3-6 6-8 7-7 7-4 7-3z" fill="#8A2640"/>
<path transform="translate(1360,238)" d="m0 0h27l3 5 4 12 3 7 5 15 4 10 3 10 4 10 1 3 6-16 5-13 4-11 5-13 3-10 3-9h28l4 49 3 44v7h-27l-1-1-1-10v-33h-2l-1 6-8 21-6 15-1 1h-27l-3-4-10-28-3-7v-3h-2v28l-1 3-1 11h-28v-18l2-15 3-54 1-10z" fill="#8B2740"/>
<path transform="translate(174,180)" d="m0 0h1v45l-1 14 2 1-3 1v2l-14 7v5 3l-5 4-1-2-2 10-10 2h-6l-5-1h-10v1l-10 2h-9v-56l3-1 17-1 1-2-22 1 1-10v-24z" fill="#C0AA95"/>
<path transform="translate(216,180)" d="m0 0 40 1v59h-2l-4-6-3-2 1 5 3 1 4 4 1 9v24l-37-1-14-1-1-12h-2l-1-8 1-2h2v-4h10l-1 3 7-1-5-2v-2l-9-1-8-3-9-2-1-5 2-2 15-2 2-2-16 2-6 2-2 3-2-1v-51l1-2z" fill="#C1AA95"/>
<path transform="translate(118,177)" d="m0 0h138l5 1-2 12 1 31 1 6-2 57-21-3-28-2h-7l8 3v2h6l20 9 7 3 11 4h2l2-2v16l-2-1-1-4-12-6-3-1v-2l-4-1-11-6-7-5-10-2-8-4-19-10-2-1h-9v8l6 1 3 3-2 2-7-3-5-5-2-1v-4l-6-1v2h2l1 3-7 1-7-1-6 2-29 3-14 2-1 18 4 2-3 2 1 69-2 2-3-3-1-7-1-37v-122l1-29zm56 3-73 1v29l-1 5 22-1-1 2-17 1-3 1v56h9l10-2v-1h14l1 1 9-1 7-1 2-10 2 2 5-6-1-4v-2l14-7v-2l3-1-2-1 1-14v-45zm42 0-34 1-1 2v52h2l3-4 9-2 12-1-2 2-15 2-2 2 1 5 16 4 1 1 9 1v2l5 2-7 1 1-3h-10v4h-2l-1 5 1 5h2l1 12 39 2h12v-24l-1-9-5-5h-2l-1-5 5 4 2 4h2v-59z" fill="#A58169"/>
<path transform="translate(1574,238)" d="m0 0h31l7 9 5 8v2h2l3 6 3-4 1-3h2l2-6h2l2-5 5-7h31l-2 4-9 13-13 18-7 10 3 9 14 20 14 21 1 4h-31l-6-9-11-17v-2l-3 3-7 12-9 13h-30l2-6 4-7h2l2-5 2-4h2v-3h2v-3h2l1-4 6-8 1-3h2v-3h2v-3h2l-3-7-8-11-18-27-3-3z" fill="#8A253F"/>
<path transform="translate(1130,132)" d="m0 0 21 2 10 3 9 7 7 9 4 12 1 5v23l-5 15-6 8-8 7-11 4-22 2 4-16 3-11 9-10 7-5 1-2h-15l-2 2-2 11-8 11-7 6-8 3-16 1 1-9 3-10 4-6 7-6 7-3 16-3 1-1-2-1-12-1-10-5-8-7-5-9-2-9v-7l14 1 10 3 8 7 6 10 4 11v2l14-1-8-7-7-11-5-15z" fill="#C19B6E"/>
<path transform="translate(1493,238)" d="m0 0h29l-2 4-1 4h14l3-1 4-5 5-2h21v23h-46l1 15 39 1v21l-40 1-1 15 48 1-1 22h-73z" fill="#8A253F"/>
<path transform="translate(213,93)" d="m0 0 4 3 2 4 2-4 1 5-1 5 6 2h1v6l-1 4 1-1h2l1 4 2-2 3 3v3h2l1 3 5 5v2h2l2 5h2l2 4 6-2 1-3 10-1 5 4v6l11-2 3-4 2-6 3-1 12 3 4 6 5 10 7 8 3 3 6 11v12l-5 6-7 1-5-6-1-4h-3l-1 8-1 51-9 5-2 3-1 5-2-2-2-6-1-100-1-3-1 3h-2v6h-1v-5l-49 2h-16l-1-3h-2l-1 3-10 10h-2v2l-15 6-8 1h-14l-11-4-6-4-8-7-2-3-30-1-5 1-35-1-2-3-6-3-2-6 5-5-1-2 4-2h6l-3 1v3l-3 1v2l-4 1 3 4 4 1 3 4h8l1-5 4-4h9l2 2v3l5-3 3-4-2-10-7-2v-2l6-2v2h2v4l4-1v-2h2v-3l-2-1v2h-2v-4l9-3 1-2h3v-2l3 1-2 4h4l3 5 4 7 1 3-4-2-8-8h-6l-1 6-3 6h2v-2h2l2-5 2-2 4 1 9 11 4 4 9 11 5 5 9 6 5 3 15 2 12-3 13-7 10-10 4-6 5-8 1-13-2-8-1-1-7-11-2-6z" fill="#C3AD98"/>
<path transform="translate(1767,237)" d="m0 0h26l8 3 10 5 8 7-2 4-13 13-4-2-11-6-3-1h-14l-7 3-6 4-5 8-1 3v17l6 12 9 6 3 1h16l10-5 3-4h2l1-3 4 1 14 14 1 3-11 10-14 7-11 2h-12l-18-3-9-4v-2l-5-2-9-9-8-15-2-7v-20l3-10 4-8h2l2-4 5-5 7-6 11-5z" fill="#8A2640"/>
<path transform="translate(2e3 239)" d="m0 0h5l-1 9-4 14-7 9-8 7 1 1h12l6-16 7-8 10-5 5-1h12l-2 11-5 10-9 8-8 3-10 2 16 4 6 4 6 7 5 12 1 9h-15l-9-3-7-6-8-15-1-7-15 1 10 8 7 11 5 18v4l-10-1-17-4-8-6-6-7-4-8-2-7-1-16 2-14 4-9 9-10 8-5z" fill="#C09B6D"/>
<path transform="translate(767,299)" d="m0 0h9l13 3 8 6 8 9 4 8 2 13-2 11-5 9-6 7-10 6-9 3h-10l-10-2-12-6-7-7-5-9-1-4v-17l4-11 6-8 7-6 10-4z" fill="#090708"/>
<path transform="translate(173,88)" d="m0 0 11 2 9 3 8 7 9 14 5 7v8l-3 12-8 10-9 7-11 4-4 1h-8l-2-1 1 3h-2v-2l-6-2-10-6-7-8-3-3 1-2 3 2v-3l8 9-1-4-12-15-4-10v-3l4 1 4-1-1-6 4-5 3-3-3 9-1 5 3-1 2-9 5 1 7 6 2 2v-2l-3-3-3-6-4-2-4 1 1-5 8-7 4 1 4-1v-2h3z" fill="#D2BCA5"/>
<path transform="translate(388,301)" d="m0 0h17l4 5 13 22 4 3 2-5 10-17 5-8h17l1 8v64h-15v-47l-3 3-7 11-8 13-3 3-8-10-12-19-1 1v44l-1 1h-11l-4-1z" fill="#0A0708"/>
<path transform="translate(1205,227)" d="m0 0 3 3 3 12 4 6v2h2l3 4v2l4 2 11 9 1 6 2 46v11l-4-2-16-13-16-12-14-11-5-5v-9l7-20 14-30z" fill="#D2BCA6"/>
<path transform="translate(1681,238)" d="m0 0h27l1 1v99h-28l-1-11v-41z" fill="#8C2B42"/>
<path transform="translate(135,214)" d="m0 0h39l1 1v10l-1 14 2 1-3 1v2l-14 7v5 3l-5 4-1-2-2 10-10 2h-6l-5-1h-24v-7h1l-1-9-2-2 1-3h4l2-2 2-6 4-4 2-3h2v2l6-1v2h4l-1-13 2-3h2v-3l-8 5-4-2 7-7z" fill="#82263D"/>
<path transform="translate(479,301)" d="m0 0h55l-1 13-1 1h-38v15h34l1 4-1 10h-34v14l40 1v15h-17l-38-1z" fill="#0A0809"/>
<path transform="translate(1306,172)" d="m0 0h7v14l-3 21-5 17-7 14-5 5-8-4-17-11-3-3v-12l1-22 1-10 6-2z" fill="#D2BDA7"/>
<path transform="translate(1842,148)" d="m0 0h18l9 2 6 4 7 8 3 9v14l-3 7-5 7-8 5-7 2h-25l-1-1v-56z" fill="#D99D5E"/>
<path transform="translate(217,89)" d="m0 0 4 1-2 5 8 1 3 1-2-5h3l4 8 7 6 16 7 19 12 10-1h2l2 5 1 4 10 1 7 2 8 16 8 11 6 8 4 8v10l-5 5-4 3-3 1h-7l-4-3-1 50-10 8-1 2-1 12h-2l-1 61h-1v-68l1-9 5-5 6-2v-51l1-8 2-1 3 3 4 6 1 1 7-1 4-5v-12l-5-8v-3l-3-1-3-5-5-5-8-15-14-3-4 9-5 3h-8l-2-7-3-2h-10l-1 4-7 2-1-5h-2l-2-5h-2l-3-4v-2l-3-1v-3h-2l-1-5-3 1-2 2v-6h-2v2l-2-1 1-9-3-1-4-2 1-9-2 4-2-2v-3l-3-1v-4z" fill="#A48069"/>
<path transform="translate(1874,260)" d="m0 0h14l10 5 6 8 3 7v15l-1 4h-2l-2 7-7 6-9 4h-11l-10-5-7-8-3-7v-17l5-10 7-6z" fill="#FAFAF9"/>
<path transform="translate(546,300)" d="m0 0h16l7 8 10 15 7-10 7-11 2-2h16l-2 6-12 17-7 10-1 3 10 16 13 19v2h-16l-3-1-14-22-2-1-2 5-10 14-5 5h-14l1-4 7-11 10-15 4-5-2-6-10-15-10-16z" fill="#090708"/>
<path transform="translate(1199,110)" d="m0 0 20 9 28 12 12 6-2 13-5 21-2 5-13 5h-6l-5-6-9-15-8-15-8-22-2-9z" fill="#BE9869"/>
<path transform="translate(689,299)" d="m0 0h11l9 2 12 7 1 3-8 10-12-6-4-1h-8l-8 4-5 5-4 8v10l6 12 8 5 10 1 11-4 4-3 5 1 5 6-1 5-7 6-10 4h-16l-10-3-9-6-8-9-4-10-1-13 3-11 5-9 8-8 8-4z" fill="#090708"/>
<path transform="translate(216,180)" d="m0 0 40 1v59h-2l-4-6-3-2 1 4-11-3-8-2-1-2-5-3-1-4-5-2h-8l-3 4v-10l1-1h20l5 1-1 6h-2l2 6 10 1v-13h14v-10h-13l-2-7-1-6h-6v8l-3 5-8 1-3 1v-2h-12l-2-11-2-2-5-1v13l-1 1h-16v-21l1-2z" fill="#C1AA95"/>
<path transform="translate(118,177)" d="m0 0h138l5 1-2 12 1 31 1 6-2 57-21-3-21-2-5-1 3-1v-2l-3-1 7-1 25 1 12 1-1-33-4-2-3-3-2-5-1-2 4 2 5 6v2h2v-59h-74v53l4-4 9-2 12-1v3l-9 2-8 1-1 4v2l9 1 8 3 10 1-1 3 7 2v1l-10 1 2-5-9-1-9-3-8-2v4l4 3-11-1-10 5-6 2-1 2-5 1-1-4 1-3 11-6h3v-2l2-1-1-1v-58h-74l-1 4h-1l-1 9-1 7h-1l-2-12v-11z" fill="#12090C"/>
<path transform="translate(50,138)" d="m0 0h8v6l3 4 1 16v82l-2 6h-3l-5-5v-2l-3-1-1-53-3-1-2-7-4-2-3-5-4-1 3 2v2l3 1v1l-10 1 1 3 9 2 3 6-3 3-6-1-8-5-1-2v-10l1-2h2l2-4 5-8h2l2-5 5-8 4-9h2v-3z" fill="#C3AE99"/>
<path transform="translate(655,218)" d="m0 0h14l10 5 6 8 3 11-1 9-5 8-8 6-8 3h-10l-9-4-5-4-5-8-1-11 2-8 6-9 8-5z" fill="#0A0708"/>
<path transform="translate(719,219)" d="m0 0h22l10 3 8 7 4 8v13l-4 8-5 5-10 4-11 1h-14z" fill="#090708"/>
<path transform="translate(584,219)" d="m0 0h23l9 3 8 7 4 11v9l-5 10-6 5-7 3-10 1h-15l-1-1z" fill="#090708"/>
<path transform="translate(1649,360)" d="m0 0h7l2 1-2 24-4 34-1 9h-7l-2-3-8 4h-9l-6-5-3-8v-14l4-11 5-5 7-4h15v-10l1-11z" fill="#D89C5C"/>
<path transform="translate(120,111)" d="m0 0 3 1-2 4h4l3 5 4 7 1 3-4-2-8-8h-6l-1 6-3 6h2v-2h2l2-5 2-2 4 1 9 11 4 4 9 11 5 5 9 6 5 3 15 2 12-3 13-7 15-15h3l-1 5h-2v2h-2l-1 3-10 10h-2v2l-15 6-8 1h-14l-11-4-6-4-8-7-2-3-30-1-5 1-35-1-2-3-6-3-2-6 5-5-1-2 4-2h6l-3 1v3l-3 1v2l-4 1 3 4 4 1 3 4h8l1-5 4-4h9l2 2v3l5-3 3-4-2-10-7-2v-2l6-2v2h2v4l4-1v-2h2v-3l-2-1v2h-2v-4l9-3 1-2h3z" fill="#CCB69F"/>
<path transform="translate(87,180)" d="m0 0h4v31h-7v4l5 1v-2h2v35h-1l-1-9-7 1-5 2h-3l1 3h6l2 3-5 3-6 1-1 2h16l4 2v30l-1 1-10 1h-10v-5l6-2h-6v-48l2 2 6-1 3-2-10-2v-5l1 2h12v2h6v-6h-20v-20l4-1 7 3v2h2l-1-5-6-3v-3l1-3-6 3v-6l7-6z" fill="#BDA38A"/>
<path transform="translate(1514,360)" d="m0 0h7l-7 57-1 11h-6l-1-1h-6l-4 2h-9l-5-5-2-4v-20l3-9 8-7 4-2h11l3 1 2-20z" fill="#D89F61"/>
<path transform="translate(766,314)" d="m0 0h12l8 4 6 7 3 10v7l-4 9-7 6-8 3h-8l-8-3-7-8-3-8v-8l4-10 8-7z" fill="#F9F7F6"/>
<path transform="translate(1398,381)" d="m0 0 3 1 1 5 10-5h7l6 4 3 8v18l-5 10-6 5-6 2-12 1-2 16h-8v-10l6-51 1-3z" fill="#D89C5C"/>
<path transform="translate(1229,198)" d="m0 0h2l20 26 2 4h2l7 8 11 10 8 6-1 3-9 4h-14l-12-3-9-6-7-8-4-10v-16z" fill="#BE9869"/>
<path transform="translate(1770,155)" d="m0 0h12l8 4 4 5 3 8v10l-3 8-8 8-5 2h-11l-8-4-6-7-2-5v-12l5-10 9-6z" fill="#FDFDFD"/>
<path transform="translate(100,181)" d="m0 0h1l1 29-2 5 2-1h20l-1 3-20 1 1 4v50l-1 2 14-1h13l5 1-2 4-19 3-14 2-1 18 4 2-3 2 1 69-2 2-3-3-1-7-1-37v-122l1-18 2 3 1 6v-8l2-6z" fill="#81273D"/>
<path transform="translate(198,190)" d="m0 0h5l3 3 1 11h12v2l3-2 8-1 2-6v-6l1-1h6l2 5 1 8 13 1v10h-14v13h-10l-2-2v-5h2l1-6h-25l-1 14-15 2-6 2-2 3-2-1v-30l16-1v-10z" fill="#FCFBFB"/>
<path transform="translate(1454,381)" d="m0 0 8 1 7 6 3 8v11l-3 10-4 6-6 5-3 1h-11l-6-4-4-7-1-5v-11l4-11 4-5 7-4z" fill="#D89B5A"/>
<path transform="translate(88,120)" d="m0 0v3l-7 6h-2l-1 6-4 1v3l-4 1 1 4-5-1-2-4 4-1-1-3h4v-3l-4 1-4 5h-2l-1 6-3-2v-3h-9v3h-2l-1 5-6 11-4 6h-2l-2 5-5 7h-2v14l10 5 5-1 1-2-2-4-7-2-3-1v-3l9-2-2-1v-2l-5-2-1-2 6 1 4 4 2 4 3 3 2 5 2 1 1 3 1 50 2 1v2l4 2 3 4 1 112 1 11-2-1-1-4-2 4-1-120-12-11-1-45h-12l-8-6-3-5v-9l7-11 10-13 9-16 3-4 6-1h8l3-10 2-2 5 1v2h6l4-2 1-2z" fill="#A58569"/>
<path transform="translate(1651,148)" d="m0 0 4 1 3 3 8 17 14 34v4h-5l-5-8-3-5-30-1-2 6-5 8h-6l2-6 15-35 8-16z" fill="#D99E5F"/>
<path transform="translate(1307,360)" d="m0 0h38l-3 9-1 1h-23l-3 21h22l1 2-1 6h-23l-2 21 24 1v6l-1 2h-33v-12z" fill="#D89C5B"/>
<path transform="translate(1697,155)" d="m0 0h19l7 4 4 5 2 5 1 12-3 9-4 5-10 4h-16z" fill="#FDFDFD"/>
<path transform="translate(1845,155)" d="m0 0h19l8 5 4 7 1 4v13l-5 10-7 4-4 1h-16z" fill="#FDFDFD"/>
<path transform="translate(1699,148)" d="m0 0h12l11 2 8 6 6 9 2 8v10l-4 11-7 7-9 4-4 1h-25l-1-22v-35zm-2 7v44h16l10-4 5-6 2-8-1-12-4-8-6-5-3-1z" fill="#D99E5E"/>
<path transform="translate(390,219)" d="m0 0h37l1 4-1 6h-26v10h23v9h-23v10l27 1v9h-38z" fill="#090708"/>
<path transform="translate(1768,148)" d="m0 0h15l8 3 8 7 5 10 1 6v10l-6 12-8 7-13 4h-8l-9-3-9-7-4-6-2-6v-16l4-9 6-7 8-4zm2 7-10 6-5 8-1 3v12l4 8 7 6 5 2h11l6-3 7-7 3-8v-10l-4-10-6-5-5-2z" fill="#D99C5B"/>
<path transform="translate(293,363)" d="m0 0h1l1 14 3-3v14l-5 11-7 11-8 7-8 6-11 6-10 3-63 1-2 5h-2l1-6 3-7 15-2 29-2 21-3 12-6 9-7 6-6h2l2-4 3-3-2 6-8 11-13 10-12 7 10-3 11-7 10-9 5-8 4-8 2-12z" fill="#8B2A42"/>
<path transform="translate(774,219)" d="m0 0h36v10h-25v10h24v9l-24 1v10h25l1 9h-37z" fill="#090708"/>
<path transform="translate(546,218)" d="m0 0h6l3 3 12 27 7 20h-10l-4-10-23-1-2 10-1 1h-8l-2-2 14-34 6-12z" fill="#090708"/>
<path transform="translate(1513,148)" d="m0 0h18l1 1-1 7h-29l1 9v9h26l1 1v5l-1 1h-26v18h28l2 6-1 1-8 1h-24l-7-1v-57z" fill="#D99E5F"/>
<path transform="translate(136,218)" d="m0 0h4l1 5 1-2 3 1v2l4 2 7 6 8 6 9 3v2l-14 7v5 3l-5 4-1-2-2 10-10 2h-6l-1-11v-11l-3-1-2-10h2l2-3 2-17z" fill="#9A715F"/>
<path transform="translate(216,297)" d="m0 0h4l1 10v43h-17l-1-2 4-7v-3h-2l-5-5-6-5-1-13 6-5 6-4 2-4-5 3-8 5h-2v2l-5-1 1-5 6-5 10-3h9z" fill="#FBFBFA"/>
<path transform="translate(659,148)" d="m0 0h11l6 3 7 8 1 4v9l-4 7-9 6-10 1-10-5-4-6-1-3v-11l3-6 7-6z" fill="#0A0708"/>
<path transform="translate(444,148)" d="m0 0h12l6 3 6 7 2 8-1 8-7 8-5 3-10 1-7-3-5-4-3-7-1-7 2-8 4-5z" fill="#090708"/>
<path transform="translate(626,301)" d="m0 0h16v71l-1 1h-15z" fill="#090708"/>
<path transform="translate(147,298)" d="m0 0 9 1v2h9l4 1 1 6-2 4h-4l-4-6-5-3h-3l-1 2h-2v9l1 1 10 1-3 10v7l-1 2-4-1-6-8 2 6 5 9 11 9 8 6-2 1-11-2-22-2-1-1v-52l1-1z" fill="#FCFCFB"/>
<path transform="translate(1896,149)" d="m0 0h40l-2 6-28 1v18h27v6l-26 1-1 18h29l1 7-1 1h-28l-10-1z" fill="#D89D5E"/>
<path transform="translate(1868,381)" d="m0 0h2v5l-4 8-5 14-7 15-4 6h-6l-2-6-6-31v-6l-8 4-8 7-2 7-3 23-1 2h-7v-11l4-33 2-3h5l2 8 7-7 5-1h10l2 8 4 26 3-3 10-24 4-7z" fill="#D18D41"/>
<path transform="translate(1682,382)" d="m0 0 9 1 5 4 2 4v9l-5 7-8 3-11 3v6l4 3h9l4-2h4l-1 5-7 4-10 1-7-3-4-4-3-9 1-12 4-10 5-6z" fill="#D89E60"/>
<path transform="translate(263,173)" d="m0 0 3 3 6-1 1 2-4 1h16v9l-18 1v7l-2 4h19v-11h2v28h-21v2h9l10 1v7l-9 2-9 1 18 1v8h-19l-2-6-1-38v-17z" fill="#D1BCA5"/>
<path transform="translate(452,220)" d="m0 0 14 2 3 1v5l-3 3-4-1-2-1-14-1 2 7 16 5 6 5 2 4v9l-3 5-5 4-3 1h-15l-9-4-1-1v-7l4-1 8 3 11 1h2l-1-7-12-3-9-4-3-7 1-10 4-5 4-2z" fill="#0A0708"/>
<path transform="translate(708,149)" d="m0 0h21l7 4 4 5 1 5v7l-2 7-6 5-8 2h-16l-1-8z" fill="#090708"/>
<path transform="translate(1546,382)" d="m0 0 8 1 5 4 2 4v7l-3 6-5 4-6 2-12 1 1 8 5 3h9l6-2h4l-2 5-4 3-7 2h-9l-6-3-4-5-1-3v-16l4-11 4-5 7-4z" fill="#D89D5E"/>
<path transform="translate(1784,382)" d="m0 0 7 1 6 4 2 4v9l-4 6-8 4-13 3-1 3 2 4 4 2h10l8-3-1 5-4 4-7 2h-7l-7-3-4-4-2-6v-13l4-11 4-5h2v-2z" fill="#D99C5A"/>
<path transform="translate(111,300)" d="m0 0h7v5l-4 3h-3v2h-2v2l-8 6-1 5 6-3 8-6h3l1 6h-2l-2 4-9 7-4 6 1 1h2v2l5-3 7-7 2 3v6l-3 5h-2l-2 4h-2l-2 4-4 5h-2v10l2 6h2v3h2l3 5 8 1v-10l5 1v10h9l1-8 4-1v10l9-1 2-9h3v10l2 1h-44l-6-4-5-9-1-67 8-3z" fill="#F4F0EC"/>
<path transform="translate(479,149)" d="m0 0h20l5 5 1 6v8l2 4v8l-5 4-5 1h-18l-1-2v-33z" fill="#090708"/>
<path transform="translate(121,97)" d="m0 0 3 3-2 2h3l-1 3 2 7-3-2v-2h-2l-1 5h-3l-1 3-9 2v4h2v-2l3 1-1 3h-2v2l-4 1v-4h-2v-2l-6 2v2l5 1 3 3 1 8 2 1-7 6h-3l-2-4h-9l-5 6 2 1-2 2h-8l-3-3-2-6 5-1v-3l4-1 1-6 8-6 1-2-3-1 10-6 16-8 8-5z" fill="#A7846C"/>
<path transform="translate(125,214)" d="m0 0h10v1l-7 2-5 5 3 1 6-4h2v3h-2l-1 5v11h-4v-2l-6 1v-2l-3 3-3 4h-2l-2 7-3 3-3-2 1 4 2 5v6h-1l-1 7 4-1h10v1l-10 2h-9v-56l3-1 17-1z" fill="#985855"/>
<path transform="translate(1554,148)" d="m0 0h9l10 4 4 5-5 1-7-2h-10l-5 3-1 2v6l4 3 15 6 6 4 4 6v10l-4 6-6 4-3 1h-13l-9-4-2-5 9 1 3 1h12l4-4v-8l-5-4-18-8-6-7v-7l4-8 6-5z" fill="#D99D5D"/>
<path transform="translate(238,332)" d="m0 0 4 2 15 15 1 2v11l-3 12-4 8-3 2-6 1h-56v-2h2v-7l-5 2-3-3 1 11h-6v-11l-10-1 1 11h-6v-11l-2-1v-2h41l-4 2-1 1-1 9h8l2 1v-9l-1-3h6v11h8l1-1 1-8 3-2v11l11 1v-11h3l2 9h9l3-9 4-7v-6l-9-10-3-4v-2h-2l-1-4z" fill="#FDFDFD"/>
<path transform="translate(2023,249)" d="m0 0h12l-2 11-5 10-9 8-8 3-10 2-3 1-3-3 3-11 5-10 8-7 7-3z" fill="#C09B6E"/>
<path transform="translate(569,149)" d="m0 0h21l6 5 2 3v8l-5 6h-2l2 5 5 7v2h-6l-5-5-3-5-9-2 1 12h-7l-1-7v-22z" fill="#0A0708"/>
<path transform="translate(202,83)" d="m0 0 7 6v2h2l6 12 4 7h3l-1 4 2 9-1 10-6 9-6 8-8 8-16 8-12 2-12-2-10-6-8-6-9-11-3-4v-2l-4-2-8-10-4 1-3 5h-2v2h-2l4-12 6-1 20 20 9 11 3 2v2l16 8 1-1h10l13-4 6-4 7-6 5-7 4-11 2-10 2 4 1-4-5-12-1-4-3-6-5-7-3-5z" fill="#7F223A"/>
<path transform="translate(204,247)" d="m0 0h10v2l-8 3 1 5 2-1 1 7 3 4h-2v2l9-1v-2h-6l-1-3v-8l3-3h7l1 1 1 10-3 1v2l9-1 2-4 3-2h4l1-3 2-1h11l1 1v18h-36l-14-1-1-12h-2l-1-8 1-2h2z" fill="#CDB5A2"/>
<path transform="translate(171,270)" d="m0 0h9l17 9 12 6 12 3 1 3v59h-1l-1-53-9 2h-7l-12 4-5 6-1-2-4-1-2-2v-5l-4-4v-4l12 1 6-1h9l-10-7v-3l-8-1-2 3-8-3-4-1-1-8z" fill="#C2AC96"/>
<path transform="translate(655,228)" d="m0 0h13l6 4 3 5 1 9-3 7-5 4-5 2h-7l-8-4-4-8v-8l3-6z" fill="#F7F5F3"/>
<path transform="translate(1587,148)" d="m0 0h28l13 1-1 6-2 1-15-1v32l-1 20h-8v-51h-17l-2-2v-5z" fill="#D99E5F"/>
<path transform="translate(479,218)" d="m0 0h39l2 2-1 7-1 1h-14l-1 39h-9v-39h-14l-1-1z" fill="#0B0709"/>
<path transform="translate(1741,381)" d="m0 0h7l7 4 4 6-1 4h-5l-4-5-6-1-7 4-1 4 2 4 18 5 3 6-1 7-4 6-6 4-8 1-10-3-5-5 1-3 12 3h7l3-3v-6l-12-5-5-5-2-3v-8l3-5h2v-2z" fill="#D28E42"/>
<path transform="translate(607,149)" d="m0 0 7 1 9 11 6 8 1 1 1-17 1-4h6l1 2v24l-1 10-7-1-10-13-6-8-1 22-1 1h-6z" fill="#0C090A"/>
<path transform="translate(58,384)" d="m0 0 2 4 3 9 2-4 7 11 12 12 10 7 9 3v2l4-1 4 1h15l52-3v14l-1 5-4-2-2-8-60-1-13-3-13-7-9-7-9-9-7-12-2-6z" fill="#903B49"/>
<path transform="translate(750,149)" d="m0 0h26v6h-19v8h17v8l-16 1-1 4 1 1 18 1v7h-26l-1-3v-32z" fill="#0A0708"/>
<path transform="translate(213,93)" d="m0 0 4 3 2 4 2-4 1 5-1 5 6 2h1v6l-1 4 1-1h2l1 4 2-2 3 3v3h2l1 3 5 5v2h2l1 3-5 2v8l-3 1h-20v-2h2l1-5-6 3 2-4 5-8 1-13-2-8-1-1-7-11-2-6z" fill="#CEB9A5"/>
<path transform="translate(193,336)" d="m0 0h6l2 4 6-2 1 4h-2l-3 9-1 1-8 1h-9l-5-1v2h6v2h-2l-1 5-4 1-3-1v2h-2l-2-5-8-1v-1h7l-11-8 4-1-5-5v-3h11l4 4 4 2 1-3 4-2 7-1z" fill="#B0947A"/>
<path transform="translate(729,227)" d="m0 0h9l8 2 5 5 2 3v11l-6 7-5 2h-13l-1-1v-28z" fill="#F5F3F0"/>
<path transform="translate(189,363)" d="m0 0h40v2l4 1v1h7l2 1v2l-8 2-11 1-4 1-2 10h-9l-1-1v-10h-4l1 2v7l-1 2h-8l-2-1v-9l2-2h-8l1-8z" fill="#C3AE99"/>
<path transform="translate(593,227)" d="m0 0h9l9 3 5 6 1 2v9l-4 6-4 3-3 1h-13l-1-5v-24z" fill="#F6F3F1"/>
<path transform="translate(533,149)" d="m0 0h27v6l-18 1-1 1v5l1 1 17 1v6l-1 1-17 1v5l19 1v7h-26l-1-7z" fill="#0E0A0B"/>
<path transform="translate(80,299)" d="m0 0 10 1 1 5v7h-1v8l-1 4h2l1 8-1 2h-18l-2-1v-20l1-1h-2v-6l8-5z" fill="#C5B09B"/>
<path transform="translate(263,249)" d="m0 0 16 1 6 1v16l-1 19-19-1v-6l14-1 3-2 1-5-16 3-4-2z" fill="#C5AD95"/>
<path transform="translate(159,199)" d="m0 0 4 1 4 5 5 4v4l-3 1-47 1h-22l1-5 3-1 13-7 6 1 15 5h10l9-8z" fill="#F8F6F4"/>
<path transform="translate(321,160)" d="m0 0 6 5 6 10 2 4v10l-5 5-4 3-3 1h-7l-4-3-1 50-10 8-1 2-1 12h-2l-1 61h-1v-68l1-9 5-5 6-2v-51l1-8 2-1 3 3 4 6 1 1 7-1 4-5v-12l-5-8v-3l-3-1-1-3z" fill="#9B655B"/>
<path transform="translate(120,111)" d="m0 0 3 1-2 4h4l3 5 4 7 1 3-4-2-8-8h-6l-1 6-3 6h2v-2h2l2-5 2-2 4 1 5 6-1 3 1 7-1 1 6 2 1 4-18 1v-2h-2v-2h-2v-6h2v-2l-4 2-4-1-2-11-7-2v-2l6-2v2h2v4l4-1v-2h2v-3l-2-1v2h-2v-4l9-3 1-2h3z" fill="#D3BFAA"/>
<path transform="translate(84,211)" d="m0 0h3v2l5-1 1 5v80l-1 30-1-3h-2v-13h1v-11l-17-2-2 5h-1v-11l19-2 1-3v-30l-3-1-16-1 1-3 8-2 2-2-1-1h-7v-4l10-4h5l1 1 1-26h-2l1 3-4-1-2-1z" fill="#A9886A"/>
<path transform="translate(1355,360)" d="m0 0h8l-1 13-6 55-1 1h-7v-15l4-39 2-14z" fill="#D79D5F"/>
<path transform="translate(257,199)" d="m0 0 2 1 1 21 1 6-2 57-21-3-21-2-5-1 3-1v-2l-3-1 7-1 25 1 12 1-1-33-4-2-3-3-2-5-1-2 4 2 5 6v2h2v-40z" fill="#13090C"/>
<path transform="translate(406,148)" d="m0 0 9 1 7 6v2h-6l-2-1h-9l-5 3-2 4v8l4 6 3 2h7l4-2 1-5-7-1-1-5 1-1h13l1 2v12l-8 6-3 1h-8l-8-4-5-6-2-10 3-9 5-6z" fill="#0A0708"/>
<path transform="translate(116,349)" d="m0 0h1l-1 16 13-2 34-1 2 2-6 2 2 1 16 1 2 3h-71l-4 1-1 2-2-2v-5l1 3h2v-6l2-1 2-6 4-6z" fill="#C4AF9A"/>
<path transform="translate(235,302)" d="m0 0 4 5v2l5 2 1 3 5 2 8 6 1 7-2 1v-3l-5-2-2-1v-2l-6-3v-2l-6-2 1 8 18 18 1 4h2l1 6-2 4-4-7v-2l-4-2-11-11-2-1 1 12h2l1 7h1v15l-7-1-1-12-1-50z" fill="#81283D"/>
<path transform="translate(201,278)" d="m0 0 27 1 27 3 3 1-1 18-10-3-8-3-17-8-5-2-6-1v-2l-5-1-5-2z" fill="#F8F6F5"/>
<path transform="translate(88,256)" d="m0 0 3 1v30l-1 1-10 1h-10v-5l6-2h-6v-21l18-1z" fill="#C2AC95"/>
<path transform="translate(108,370)" d="m0 0 50 1v2l3 1v9l-1 2-9 1v-12h-3l-1 9-4 1h-6v-10l-3 1-2 8h-9v-10h-4v9l-2 1-7-1-3-3v-3h-2l-1-4z" fill="#CAB39D"/>
<path transform="translate(1453,389)" d="m0 0h6l3 3 2 7v8l-3 9-5 6-7 1-5-5-1-4v-10l3-9 5-5z" fill="#FDFDFD"/>
<path transform="translate(1499,389)" d="m0 0h6l3 2v10l-3 15-5 5-6 2-5-3-1-3v-17l3-6 5-4z" fill="#FDFDFD"/>
<path transform="translate(146,276)" d="m0 0h4l-1 4-41 16-11 5v-18l7-2 15-2 22-2z" fill="#FAF8F7"/>
<path transform="translate(216,244)" d="m0 0 10 1 12 4 16 2-1-3h2l1 3v24h-12v-1h11l-1-18h-11l-3 3-7 3-4 4h-7v-2l2-1-1-10h-7l-2 2v11h6v2l3 1h-12v-4l-2-2-1-6-2 3-1-8 6-3 5 1 4-1-5-2z" fill="#A57968"/>
<path transform="translate(1495,382)" d="m0 0h11l2 1v6h-8l-8 5-3 6v17l2 4 4 1 7-1-2 6-4 2h-9l-5-5-2-4v-20l3-9 8-7z" fill="#D89B59"/>
<path transform="translate(1633,390)" d="m0 0h10l2 4-1 14-3 9-7 6h-5l-3-4-1-4v-11l4-11z" fill="#FDFDFD"/>
<path transform="translate(1411,389)" d="m0 0 6 1 2 4v15l-4 9-3 3-3 1h-9v-14l2-12 4-5z" fill="#FDFDFD"/>
<path transform="translate(1813,382)" d="m0 0h5l2 8 7-7 5-1h10l-1 2-5-1 2 8v8h-1l-1-13-8 4-8 7-2 7-3 23-1 2h-7v-11l4-33z" fill="#D89F61"/>
<path transform="translate(68,131)" d="m0 0h6l-3 1v3l-3 1v2l-4 1 3 4 4 1 3 4h8l1-5 4-4h9l2 2v3l5-3 2-2 9-2v2h-2v6h2v2h2v2h3v2h-13l-9 1h-27l-2-3-6-3-2-6 5-5-1-2z" fill="#D7C6B4"/>
<path transform="translate(1900,382)" d="m0 0 4 1 4 4 5-5 4 1-1 6-9 7-3 7-3 25-1 1h-8l1-13 4-32z" fill="#D99F60"/>
<path transform="translate(262,194)" d="m0 0h1l1 38 1 5 19 1v-8h-19l1-2 13-2h5v-7h-10l-9-1v-2h20v35l-21-1-2 2-1-4v-21z" fill="#C4AE98"/>
<path transform="translate(88,120)" d="m0 0v3l-7 6h-2l-1 6-4 1v3l-4 1 1 4-5-1-2-4 4-1-1-3h4v-3l-4 1-4 5h-2l-1 6-3-2v-3h-9v3h-2l-1 5-6 11-4 6h-2l-2 5-5 7h-2l-1 3h-2l-1 6h-1v-6l7-11 10-13 9-16 3-4 6-1h8l3-10 2-2 5 1v2h6l4-2 1-2z" fill="#A7806F"/>
<path transform="translate(241,346)" d="m0 0 8 8v2l3 1 2 3-1 9-3 4-4 9-6 1h-4l-1-10h-3v11h-9l-2-1v-9l2-2 11-1 8-1v-18l-1-4z" fill="#C7B09A"/>
<path transform="translate(212,125)" d="m0 0h2l1 4-3 12-8 10-9 7-11 4-4 1h-8l-2-1 1 3h-2v-2l-6-2-10-6-7-8-3-3 1-2 3 2v-3l8 9 2-2 6 3v2l4 1 13 2 5 1 2-1 2 1v-2l4-1v-3l5-1 3-1 2-8 3-3h2l1-9 2-1z" fill="#AD8C6D"/>
<path transform="translate(1575,382)" d="m0 0 5 1v3h6l4-4 4 1-2 6-10 8-2 6-3 24-1 2h-7v-11l4-34z" fill="#D99E5E"/>
<path transform="translate(111,300)" d="m0 0h7v5l-4 3h-3v2h-2v2l-8 6-1 5 6-3 8-6h3l1 6h-2l-2 4-9 7-4 6 1 1h2v2l2 1-5 6h-2l-1 2-1-44 8-3z" fill="#F3EFEB"/>
<path transform="translate(1928,360)" d="m0 0h7l-1 12-5 33-1 3h-8l1-17 3-29z" fill="#D79D5D"/>
<path transform="translate(663,154)" d="m0 0 7 1 6 5 1 3v8l-5 6-2 1h-11l-5-6-1-2v-8l4-5z" fill="#F5F3F0"/>
<path transform="translate(449,154)" d="m0 0 7 1 5 5 1 3v8l-5 6-4 2-8-1-5-4-2-5 1-8 5-5z" fill="#F5F2F0"/>
<path transform="translate(140,215)" d="m0 0h25l9 1v23l2 1h-4l-9-3v-3-2l-4-1-2-1v-2l-4-2-13-10z" fill="#C2AD98"/>
<path transform="translate(164,399)" d="m0 0 7 1 5 5v7l-1 2 6 2-1-5v-9l3-3h10l2 1 3 10 2 1 1-5 4-3-1 9-4 5-5-1-3-5-3-8-3-1 1 14-2 1h-14l-2-1-1-12-4-2-1 12-1 2h-7l3-4 3-12z" fill="#FCFCFC"/>
<path transform="translate(136,218)" d="m0 0h4l1 5 1-2 3 1v2l4 2 7 6 6 5v1l-6 1-14-1v2h-8v2h10l1 6h-13l-2-1-1-8h2l2-3 2-17z" fill="#A58569"/>
<path transform="translate(92,124)" d="m0 0 9 1 4 4 1 8 2 1-7 6h-3l-2-4h-9l-5 6 2 1-2 2h-8l-3-3 1-2 4-2 3-5h2v-2h2l1-5h3v-2l4-2z" fill="#BFA590"/>
<path transform="translate(44,242)" d="m0 0 5 1 3 2v2l4 2 3 4 1 112 1 11-2-1-1-4-2 4-1-120-11-10z" fill="#10080B"/>
<path transform="translate(1287,402)" d="m0 0h6l-1 14-3 30-1 1h-8v-11l4-32z" fill="#D89D5D"/>
<path transform="translate(1877,382)" d="m0 0h8l-1 17-4 29-1 1h-8l1-9z" fill="#D99D5D"/>
<path transform="translate(206,227)" d="m0 0 2 2-3 2-15 2-1 4v2l9 1 8 3 10 1-1 3 7 2v1l-10 1 2-5-9-1-9-3-8-2v4l4 3-11-1-10 5-6 2-1 2-5 1-1-4 1-3 11-6h3v-2l3-3 6-1 2-5 2-2 9-2z" fill="#601E2E"/>
<path transform="translate(785,149)" d="m0 0h7v29h18v6l-1 1h-24z" fill="#090708"/>
<path transform="translate(1546,382)" d="m0 0 8 1 5 4 2 4v7l-3 6-5 4-2 1h-10v-3l10-4 3-3v-6l-3-3h-7l-5 5-5 8h-5l2-11 4-5 7-4z" fill="#D08B3D"/>
<path transform="translate(207,213)" d="m0 0h20l5 1-1 6h-2l2 6 2 1 11 1v-2h-2v-11l10 1v1l-7 1 1 13 2 2v3l-11-3-8-2-1-2-5-3-1-4-5-2h-8l-3 4v-10z" fill="#9D7865"/>
<path transform="translate(144,287)" d="m0 0 15 1 10 4v8l-1 2-12-1v-2h-9l-11 1-2-4v-5z" fill="#C5B09B"/>
<path transform="translate(292,336)" d="m0 0h1v26l-1 25-3 8-7 12-8 8-14 9-10 3-4-1 16-8 10-8 5-5 6-8 4-10 1-8 1-27z" fill="#C3AE98"/>
<path transform="translate(717,155)" d="m0 0h10l5 3 2 6-1 9-3 3-6 2h-7l-1-2v-19z" fill="#F3F0ED"/>
<path transform="translate(1652,158)" d="m0 0 2 1 8 22v5h-22l1-5 9-21z" fill="#FDFDFD"/>
<path transform="translate(118,226)" d="m0 0h3v9l-3 3-3 4h-2l-2 7-3 3-3-2 1 4 2 5v6h-1l-1 7 4-1h10v1l-10 2h-9v-36l5-1v2l3 1 1 2 1-5h-2v-2l6-5z" fill="#C0A790"/>
<path transform="translate(238,332)" d="m0 0 4 2 15 15 1 2v11l-3 12-4 8-3 2-4-1 4-7 5-10v-6l-9-10-3-4v-2h-2l-1-4z" fill="#FAF9F8"/>
<path transform="translate(121,240)" d="m0 0 4 1 1 10 3 6 1 8-4 1-16-1v-10l5-9 5-5z" fill="#CDB7A1"/>
<path transform="translate(229,232)" d="m0 0h8l9 3 5 3 4 4v6l-1 3-16-1-8-3-1-2h4l-2-10z" fill="#D2BEA9"/>
<path transform="translate(1748,405)" d="m0 0 7 1 3 6-1 7-4 6-6 4-8 1-10-3-5-5 1-3 12 3h7l3-3v-6l-4-3h5v-4z" fill="#D79C5C"/>
<path transform="translate(293,363)" d="m0 0h1l1 14 3-3v14l-5 11-7 11-8 7-8 6-8 4v-2l1-1-9 3 3-3 10-5 10-8 6-7 7-13 2-12z" fill="#6F2436"/>
<path transform="translate(58,384)" d="m0 0 2 4 3 9 2-4 7 11 12 12 10 7 9 3v2l4-1 15 2 7 2v1h-22l-9-2-13-7-9-7-9-9-7-12-2-6z" fill="#11090B"/>
<path transform="translate(159,339)" d="m0 0h11l4 4 4 2v-2h2v11h6v2h-2l-1 5-4 1-3-1v2h-2l-2-5-8-1v-1h7l-11-8 4-1-5-5z" fill="#AB8D72"/>
<path transform="translate(165,256)" d="m0 0 2 4 11-1-1 8-1 3-5 1v8l6 1 3 3-2 2-7-3-5-5-2-1v-4h-9l-2-1-1-5 5-1v-2l4-2 1-2h3z" fill="#742036"/>
<path transform="translate(83,232)" d="m0 0h5l1 1v5l-12 5h-3l1 3h6l2 3-5 3-6 1-1 2h16l2 2-1 4h-18v-27l2 2 6-1z" fill="#C7B29D"/>
<path transform="translate(185,272)" d="m0 0 7 1v2l5 2 14 5v2h6l20 9 7 3 11 4h2l2-2v16l-2-1-1-4-12-6-3-1v-2l-4-1-11-6-7-5-10-2-8-4-15-8z" fill="#813B45"/>
<path transform="translate(123,104)" d="m0 0h2l4 8-1 3h2l5 8 4-1 6 12 11 13 1 4-4-2-6-7 1 4-5-3-5-5-6-7-4-9-5-5-2-1 1-4-1-4h2l2 2z" fill="#A57F67"/>
<path transform="translate(237,107)" d="m0 0 5 2 13 6 15 7 3 3 16 6-1 2-7-1v2l-10-2-7-2-3-3v-4h3v-2l-4 1-1-1-1 4h-7l-4-6-6-5-3-3h3z" fill="#AE9077"/>
<path transform="translate(202,83)" d="m0 0 7 6v2h2l6 12 4 7h3l-1 4 2 9-1 10-8 12h-4l-4 1 5-10 4-16 2 4 1-4-5-12-1-4-3-6-5-7-3-5z" fill="#8A2B41"/>
<path transform="translate(94,300)" d="m0 0 1 3 1 14 2 3 1 54-2 2-3-3-1-7v-64z" fill="#441B24"/>
<path transform="translate(87,180)" d="m0 0h4v6l-1 2v13l-5 2-6-1-4-4 2-4-6 3v-6l7-6z" fill="#B5987C"/>
<path transform="translate(217,89)" d="m0 0 4 1-2 5 8 1 3 1-2-5h3l1 5-3 5v4l3 2 1-2 2 1 1 4-2 2v-2h-3l-1 5 5 2 3 3v3l3 1v2h2v2l3 1 3 7 4 4 4 1-5 1-2-1v-2h-2l-2-5h-2l-3-4v-2l-3-1v-3h-2l-1-5-3 1-2 2v-6h-2v2l-2-1 1-9-3-1-4-2 1-9-2 4-2-2v-3l-3-1v-4z" fill="#82293E"/>
<path transform="translate(264,290)" d="m0 0 12 3 1 7h5l1 1v6l-14 5-6 2v-9l3-4-2-1z" fill="#C4AD98"/>
<path transform="translate(1291,117)" d="m0 0h9l4 6v7h-2l-1 4-4 2h-6l-6-6v-7l4-5z" fill="#F6F4F1"/>
<path transform="translate(135,254)" d="m0 0h20l-3 9-1 7-10 2h-6z" fill="#C3AE99"/>
<path transform="translate(181,213)" d="m0 0 17 1 1 12 7 1v1l-15 2-6 2-2 3-2-1z" fill="#C1AA95"/>
<path transform="translate(1538,223)" d="m0 0h17v4l-14 9-8 6h-8l2-5 7-10z" fill="#D89D5D"/>
<path transform="translate(207,399)" d="m0 0h7l2 1 1 8 1 6 4 1v-4h-2l-1-7 2-4 6-1 2 7v8l-3 4h-15l-2-3 1-5 4-2-4-5-3-3z" fill="#FBFAF9"/>
<path transform="translate(263,173)" d="m0 0 3 3 6-1 1 2-4 1h16v9l-18 1v7l-3 4-2-5v-17z" fill="#CCB7A2"/>
<path transform="translate(127,132)" d="m0 0h2l7 8 9 11 5 5-1 5-7-5-2-3-30-1-5 1-8-1v-1l9-1h10l3 1-1-3h16l-1-4-7-1 1-4-1-6z" fill="#D5C3B0"/>
<path transform="translate(1651,148)" d="m0 0 4 1 3 3 4 8-1 4-4-7-3-1v-3h-2l-1 7-10 23h-2l-1-2-3 5-1-4 13-29z" fill="#D08E43"/>
<path transform="translate(516,149)" d="m0 0h7v36h-7z" fill="#090708"/>
<path transform="translate(125,214)" d="m0 0h10v1l-7 2-5 5-8 3-4 4-2 3h-6l1 4h-2l-1-18 3-1 17-1z" fill="#CDB8A2"/>
<path transform="translate(233,132)" d="m0 0 3 1 3 6 3 2v7l-3 1h-20v-2h2l1-5h5l-2-1v-5l4-3 4 1z" fill="#BCA48C"/>
<path transform="translate(116,330)" d="m0 0 2 3v6l-3 5h-2l-2 4h-2l-2 4-4 5h-2l-1 10-2-3v-15l1-2h2l2-4z" fill="#F9F7F6"/>
<path transform="translate(245,138)" d="m0 0h3v2h2l2 4 6-2 1-3 10-1 5 4-1 6-9-1-4 2-6 1h-8l4-1v-2h-3l-1-2-2 4-3-4 1-5z" fill="#FCFCFB"/>
<path transform="translate(1544,389)" d="m0 0h7l4 4v6l-6 5-9 2-4-1v-7l6-8z" fill="#FDFDFD"/>
<path transform="translate(158,371)" d="m0 0h36l-3 1-1 4v9h-4v-2h2v-7l-5 2-3-3 1 11h-6v-11l-10-1 1 11h-6v-11l-2-1z" fill="#CFBAA4"/>
<path transform="translate(321,160)" d="m0 0 6 5 6 10 2 4v10l-5 5-4 3-3 1h-7l-4-3v-2l-4 1v-9l2-1 3 3 4 6 1 1 7-1 4-5v-12l-5-8v-3l-3-1-1-3z" fill="#250F14"/>
<path transform="translate(227,247)" d="m0 0 8 1 11 2 8 1-1-3h2l1 3v24h-12v-1h11l-1-18h-11l-3 3-7 3-4 4h-7v-2l14-10 1-2-7-1z" fill="#873B46"/>
<path transform="translate(1684,388)" d="m0 0 6 2 1 2v7l-5 5-3 1h-8l-1-1v-8l5-6z" fill="#FDFDFD"/>
<path transform="translate(212,125)" d="m0 0h2l1 4-3 12-8 10-9 7-8 3h-6l-2-2 1-3 5 1 2-1 2 1v-2l4-1v-3l5-1 3-1 2-8 3-3h2l1-9 2-1z" fill="#BFA790"/>
<path transform="translate(289,137)" d="m0 0 3 1-1 10h-2l-1 1h-2v6h-1v-5l-49 2h-16l-1-3 20-1 4-1 1 1 2-4 1 3h3v2l10-1 6-2 7 2 1-2v2l11-2 3-4z" fill="#CDB8A2"/>
<path transform="translate(1783,389)" d="m0 0h7l3 4v6l-5 5-3 1h-8l-2-7 4-6z" fill="#FDFDFD"/>
<path transform="translate(54,134)" d="m0 0 6 1v9l-3-2v-3h-9v3h-2l-1 5-6 11-4 6h-2l-2 5-5 7h-2l-1 3h-2l-1 6h-1v-6l7-11 10-13 9-16 3-4z" fill="#10090B"/>
<path transform="translate(173,88)" d="m0 0 11 2 5 1-2 2 4 8-4 2-7-4-3-2v-3l-7 2 1 2h-8l-4 2-2 4-4 1 1-5 8-7 4 1 4-1v-2h3z" fill="#CDB59B"/>
<path transform="translate(99,272)" d="m0 0 3 3 1-1 12-1h13l5 1-2 4-19 3-16 2z" fill="#0B0708"/>
<path transform="translate(111,300)" d="m0 0h7v5l-4 3h-3v2h-2v2l-8 6-1 2h-2l-1-5v-10l8-3z" fill="#F7F4F2"/>
<path transform="translate(204,302)" d="m0 0h3l-2 5-8 5-2 3h-2v11l-5 1-5-6 1-4 2-1-5-5-2-4 4-1 3 1 2 4 4 1v-2l10-6z" fill="#7B2239"/>
<path transform="translate(27,175)" d="m0 0h5l3 2v2l3 1v1l-10 1 1 3 9 2 3 6-3 3-6-1-8-5-1-2v-10l1-2z" fill="#D4C0AD"/>
<path transform="translate(121,134)" d="m0 0h6l1 7-1 1 6 2 1 4-18 1v-2h-2v-2h-2v-6l4-4z" fill="#C7B09A"/>
<path transform="translate(235,114)" d="m0 0 5 2 11 9 2 4h4v6h-2l-1-1 2 4-1 4-4-2-5-6-1-4-2-1v-2h-2l-3-3-1-5h-2v-4z" fill="#CEB8A2"/>
<path transform="translate(509,278)" d="m0 0 10 2 2 3-9 11-2 1h-11l2-5 7-11z" fill="#090708"/>
<path transform="translate(135,214)" d="m0 0h39l1 1v10h-1v-9h-32l13 11 2 1v2l6 2 5 5 5 3-2 1-9-3-6-5-8-7-5-4-2 4-1-1v-7l-7-1-2 1v-3z" fill="#7C313E"/>
<path transform="translate(1503,174)" d="m0 0h26l1 1v5l-1 1h-26v18h-1v-22z" fill="#C9A67E"/>
<path transform="translate(238,315)" d="m0 0 4 1 2 1v2l6 3v2l5 2 2 5v9l-4-2-12-12v-2l-3-1z" fill="#F5F2EF"/>
<path transform="translate(237,300)" d="m0 0h4v2l5 1 10 5 1 1v11l-5-1-5-4-8-6-2-3z" fill="#F7F5F3"/>
<path transform="translate(231,97)" d="m0 0h2l6 7 6 5 4 3-5-1-6-3 4 4h-3l6 4 6 7-1 2-13-10v2l-4 1-3-2 1-5 4-1-2-3v2l-3-1-2-4 2-6z" fill="#A9856F"/>
<path transform="translate(107,400)" d="m0 0h6l-2 1v12l4 1 1-1v-10l-2-3h6l3 3 1 2v8l-4 4-11-1-4-3v-8z" fill="#FDFDFD"/>
<path transform="translate(1787,384)" d="m0 0h6l5 5 1 2v9l-4 6-3 2-13 2v-3l12-6 1-2v-6l-5-5z" fill="#D28B3A"/>
<path transform="translate(92,124)" d="m0 0h3v2l-5 5-3 4h5v2l6 1-1 3-1-1h-9l-5 6 2 1-2 2h-8l-3-3 1-2 4-2 3-5h2v-2h2l1-5h3v-2l4-2z" fill="#784947"/>
<path transform="translate(191,259)" d="m0 0 5 5 1 3v-2l8-1v9h5l1 4h-2v-3h-2v2l-7-1-8-4-6-2v-9z" fill="#0E080A"/>
<path transform="translate(1686,384)" d="m0 0h6l5 5 1 2v9l-5 7-2 1h-7l-1-4 6-3 1-2v-7l-5-5z" fill="#D18C3E"/>
<path transform="translate(1456,383)" d="m0 0h7l6 5 3 8v11l-3 10-2 1-2-6-1-4 1-5h5l-2-9-2-1-5-1-2-4h-3z" fill="#D08A39"/>
<path transform="translate(121,97)" d="m0 0 3 3-2 2h3l-1 3 2 7-3-2v-2h-2l-1 5-1-2h-5v2h-2v2l-8 3-3 2h-4l-1-3 6-2 3-3 1-3 13-8z" fill="#AA8C71"/>
<path transform="translate(164,399)" d="m0 0 7 1 5 5v7l-1 2 5 2v1h-9l-2-1-1-12-4-2-1 12-1 2h-7l3-4 3-12z" fill="#FDFDFD"/>
<path transform="translate(270,315)" d="m0 0h13v15l-4 4h-10l-3-3 1-3 3 1h7l2-1v-6l-1-1h-13l1-5z" fill="#FDFDFD"/>
<path transform="translate(247,217)" d="m0 0h9v23h-2l-4-6-5-5v-11z" fill="#D0BBA8"/>
<path transform="translate(203,398)" d="m0 0h24l-3 2h-3l-1 9v2h2v4l-5-1-1-6v-8h-8l-2 1v6l-2-2-2 2-2 5-3-2-2-10 5-1z" fill="#C4AF99"/>
<path transform="translate(111,137)" d="m0 0h3v2h-2v6h2v2h2v2h3v2h-13l-10 1-5-2v-2l6-2 8-7z" fill="#E2D6C9"/>
<path transform="translate(1906,174)" d="m0 0h27v6l-26 1-1 18h-1v-19z" fill="#C4A27A"/>
<path transform="translate(286,394)" d="m0 0h2l-2 7-7 9-9 8-10 6-10 3-4-1 16-8 10-8 5-5 8-10z" fill="#E5DBD0"/>
<path transform="translate(266,189)" d="m0 0h18v10h-19z" fill="#B68A64"/>
<path transform="translate(576,155)" d="m0 0h11l4 3v6l-4 3h-11l-1-1v-10z" fill="#F4F1ED"/>
<path transform="translate(164,239)" d="m0 0 9 2v2l-14 7-3 1-8-2-1-8h17z" fill="#C2AB96"/>
<path transform="translate(131,88)" d="m0 0 7 1-1 4-11-1 1 4 3-1v3h4l2 6h-2l1 4-2 5-2-4v-3l-4 1-2-5-3 1v-3-2l1-5 5-4z" fill="#9F6660"/>
<path transform="translate(323,174)" d="m0 0h5l2 2v12l-5 6-7 1-5-6v-4l10 2 1 1z" fill="#D1BBA6"/>
<path transform="translate(89,290)" d="m0 0h2v15h-1v-5l-17-2-2 5h-1v-11z" fill="#C19C70"/>
<path transform="translate(177,241)" d="m0 0h2l1 1 4-1v2l6 2 2 2-11-1-10 5-6 2-1 2-5 1-1-4 1-3 14-7z" fill="#0E080A"/>
<path transform="translate(320,172)" d="m0 0h8v2l-4 1 1 13-2 2-1-2-9-3-1 2v-2l-3-1 2-3h2l2-5z" fill="#B39680"/>
<path transform="translate(309,243)" d="m0 0v3l-8 7-1 2-1 12h-2l-1 61h-1v-68l1-9 5-5z" fill="#8A243F"/>
<path transform="translate(260,131)" d="m0 0 10 1 6 3v2h2l5 5v3l-8-4-7-6 1 3-10 1-1 4-7 2v-3h5l-3-8-1-2 3 1v2h2l1-3z" fill="#A77D6D"/>
<path transform="translate(198,357)" d="m0 0 30 2 6 1v4l-14-1-30-1 4-3z" fill="#8A243F"/>
<path transform="translate(264,315)" d="m0 0h6l-4 2-1 4 7-1h6l2 2v6l-3 2h-7l-3-1-2 2-2-5z" fill="#AF9177"/>
<path transform="translate(202,83)" d="m0 0 7 6v2h2l6 12 4 7h3l-1 4 2 9-1 4h-2l-1 2-2-5 1-4-5-12-1-4-3-6-5-7-3-5z" fill="#85223C"/>
<path transform="translate(256,177)" d="m0 0h6v50l-2-1-1-5-1-31 2-11z" fill="#8A243F"/>
<path transform="translate(64,382)" d="m0 0 2 2 3 7 6 11 11 11 3 5 7 4-4 1-11-9-11-11-5-8z" fill="#BCA082"/>
<path transform="translate(238,398)" d="m0 0h3v16l4 4-3 1h-8l-1-3 1-14 1-3z" fill="#FDFDFD"/>
<path transform="translate(176,291)" d="m0 0 12 1 6-1h8v4l-12 4-12-1-2-3z" fill="#D1BCA6"/>
<path transform="translate(242,215)" d="m0 0 10 1v1l-7 1 1 13 2 2v3l-11-3-8-2-1-2-4-2 1-2 8 2 11 1v-2h-2z" fill="#9E6B5F"/>
<path transform="translate(487,154)" d="m0 0h9l3 2v7l-6 2h-7l-2-2v-6z" fill="#EAE3DD"/>
<path transform="translate(240,325)" d="m0 0 7 6 10 10 1 4h2l1 6-2 4-4-7v-2l-4-2-9-9 1-4-3-4z" fill="#6F2736"/>
<path transform="translate(1267,181)" d="m0 0h1v20l-1 25 7 2 13 8 4 3 4-1 1-2 3 1-5 6-7-3-19-12-3-3v-12l1-22z" fill="#BAA28B"/>
<path transform="translate(185,279)" d="m0 0 8 1 1 2-1 2 4 2 7 5-2 1h-8l-12 1-3-3 4-6 3 4 5 1 1-6h-8z" fill="#9F7261"/>
<path transform="translate(116,342)" d="m0 0h2l-1 5-6 7-3 4-2 6h-2v6h-2v-3h-2v-8l1-2h2l2-4 4-5z" fill="#742337"/>
<path transform="translate(265,208)" d="m0 0h13l7 1v7h-9l-11-1z" fill="#FDFDFD"/>
<path transform="translate(1227,235)" d="m0 0 4 5 6 8 6 4 12 2v2l19-1 7-3-1 3-9 4h-14l-12-3-9-6-7-8-2-4z" fill="#A58569"/>
<path transform="translate(1766,409)" d="m0 0h1l3 12 3 3 3 2h7v-2h6v-2l8-3-1 5-4 4-7 2h-7l-7-3-4-4-1-3z" fill="#D18F44"/>
<path transform="translate(29,173)" d="m0 0 6 1 4 4 2 4 3 3 3 6v4h-3l-6-7-7-2-3-1v-3l9-2-2-1v-2l-5-2z" fill="#9D7762"/>
<path transform="translate(213,93)" d="m0 0 4 3 2 4 2-4 1 5-1 5 6 2h1v6l-1 4 1-1h2v10h-2l-2-4-2-2-2-9-1-1-7-11-2-6z" fill="#B49980"/>
<path transform="translate(150,157)" d="m0 0 11 6 7 3 8 1v2h5v1l-5 1h-9l-11-4-6-4-2-5z" fill="#D3C1AE"/>
<path transform="translate(1741,381)" d="m0 0h7l7 4 4 6-1 4h-5l-4-5-2-1v-2l-5-1-4-2v-2z" fill="#D08C3E"/>
<path transform="translate(57,342)" d="m0 0h1l1 29 1 4 2-1 3 19v4h-2l-4-9v-4h-2l-1-2z" fill="#83273E"/>
<path transform="translate(190,334)" d="m0 0h2l-1 5-1 1-9 2-3 3-6-2-4-5 8-3h13z" fill="#80213A"/>
<path transform="translate(246,259)" d="m0 0h6l-1 13h-8l-7-1v-7l5-1v2h4z" fill="#A37E66"/>
<path transform="translate(216,252)" d="m0 0h7l1 1 1 10-3 2h-8l-1-2v-8z" fill="#FBFAF9"/>
<path transform="translate(265,179)" d="m0 0h19v7h-19l-1-6z" fill="#FDFDFD"/>
<path transform="translate(177,425)" d="m0 0h1v14l-1 5-4-2-3-9-9-2 1-3 13-1z" fill="#0E080A"/>
<path transform="translate(548,231)" d="m0 0 4 4 3 9v4h-13l3-9z" fill="#F0EBE7"/>
<path transform="translate(89,214)" d="m0 0h2v35h-1l-1-9-3-2h3l-1-5-14-1-3-1v-5l1 2h12v2h6v-6h-13v-1l12-1-1-5z" fill="#CBB193"/>
<path transform="translate(283,404)" d="m0 0h1l1 6-5 5-8 7-10 5v-2l1-1-9 3 3-3 10-5 10-8z" fill="#0F080A"/>
<path transform="translate(178,343)" d="m0 0h2v11h6v2h-2l-1 5-4 1-3-1v2h-2l-2-5-8-1v-1h7l2-1 2 3-1-6 3-5z" fill="#C8B39E"/>
<path transform="translate(117,305)" d="m0 0h2l-1 5-2 4-13 9h-3l-1-3 4-5 4-3h2v-2h2v-2z" fill="#1B0C10"/>
<path transform="translate(275,230)" d="m0 0h9v8h-11l-7-1-1-5 1-1z" fill="#FDFDFD"/>
<path transform="translate(292,134)" d="m0 0h10l7 2 8 16 5 8-3 1-6-7-8-15-12-3z" fill="#A17765"/>
<path transform="translate(277,300)" d="m0 0h5l1 1v6l-14 5h-4v-5l5-3 1-2z" fill="#FDFDFD"/>
<path transform="translate(71,216)" d="m0 0 17 1 2 2v4l-20 1v-7z" fill="#FDFDFD"/>
<path transform="translate(80,299)" d="m0 0h6l2 1v5l-13 6-5 1v-6l8-5z" fill="#FDFDFD"/>
<path transform="translate(102,245)" d="m0 0h1l1 9 3 1 1 10h-1l-1 7 4-1h10v1l-10 2h-9z" fill="#CFBCAA"/>
<path transform="translate(204,247)" d="m0 0h10v2l-8 3 1 5 2-1 1 7 3 4-4 1-3-1v5l4 1h-5l-1-12h-2l-1-8 1-2h2z" fill="#C4AE99"/>
<path transform="translate(242,107)" d="m0 0 5 1 16 8 14 9 7-1 4 2h-2v2l2 1-5 1-12-5-9-6-11-5-2-1v-2l-6-2z" fill="#6A2735"/>
<path transform="translate(1733,393)" d="m0 0 4 8 11 3v2l3 1-3 3h-8l-8-4-2-3v-3h3z" fill="#D08A3A"/>
<path transform="translate(1288,381)" d="m0 0 8 1 1 5-3 7h-6l-3-4v-7z" fill="#D8A063"/>
<path transform="translate(268,219)" d="m0 0h16v7l-5 1h-12z" fill="#FDFDFD"/>
<path transform="translate(117,120)" d="m0 0 5 1 18 18-1 4-5-4v-2l-4-2-8-10-4 1-3 5h-2v2h-2l4-12z" fill="#812E3F"/>
<path transform="translate(83,232)" d="m0 0h5l1 1v5l-15 6-2 4h-1v-10z" fill="#FDFDFD"/>
<path transform="translate(211,249)" d="m0 0 5 2-2 4v11h6v2l3 1h-12v-4l-2-2-1-6-2 3-1-8z" fill="#A6836A"/>
<path transform="translate(117,321)" d="m0 0h1l-1 7-10 10-1 2h-2v-2l-4 2 1-4 5-7z" fill="#291417"/>
<path transform="translate(136,140)" d="m0 0 3 2 2-2 9 11 3 2v2l4 2 3 2v2l4 2-3 1-10-6-5-4-9-11z" fill="#511C28"/>
<path transform="translate(234,123)" d="m0 0h2v2h2l1 3 5 5v2h2l1 3-6 3-3-2v-2l-2-1v-3l-7 1 5-8z" fill="#D6C5B3"/>
<path transform="translate(279,278)" d="m0 0h5v8l-19-1v-6z" fill="#FDFDFD"/>
<path transform="translate(87,123)" d="m0 0h3v3h-2l-1 4-3 1-1 4h-2v2h-2l-1 4-4 4-4-2v-4h4v-3l4-1 1-6z" fill="#C2A993"/>
<path transform="translate(494,170)" d="m0 0h6l2 2-1 4-6 2h-9l-2-2v-5z" fill="#EBE3DE"/>
<path transform="translate(265,200)" d="m0 0h19l1 5-1 1h-18l-1-1z" fill="#FDFDFD"/>
<path transform="translate(86,181)" d="m0 0h4l-1 4-12 9-6 3v-6l7-6z" fill="#FDFDFD"/>
<path transform="translate(244,255)" d="m0 0h10l1 1v18h-12v-2l4-1 4 1v-11l1-2-7-1z" fill="#D7C7B6"/>
<path transform="translate(265,251)" d="m0 0h18l1 1v6l-19-1z" fill="#FDFDFD"/>
<path transform="translate(188,341)" d="m0 0 10 6 5 2-1 3-13 1-2-1-1-10z" fill="#FDFDFD"/>
<path transform="translate(139,218)" d="m0 0h1l1 5 1-2 3 1v2l4 2 4 5-6 5-2-5h-1l-2 7h-1l-1-8h-1z" fill="#A17767"/>
<path transform="translate(152,102)" d="m0 0 1 3 5-2 5 4 1 5 2 1 2 4-1 2-7-8-7-3-1 9-4 1 1-8 2-6z" fill="#BF996A"/>
<path transform="translate(263,249)" d="m0 0 16 1v1h-14v6l-1 2h10l-4 7-1 4-5 1-1-7z" fill="#CFBAA4"/>
<path transform="translate(132,399)" d="m0 0h7l-3 2v13l-2 3-5 1v-12l1-6z" fill="#FDFDFD"/>
<path transform="translate(134,374)" d="m0 0h3v10l9-1 2-9h3v10l2 1h-26v-1h5l1-9z" fill="#FDFDFD"/>
<path transform="translate(243,255)" d="m0 0 4 4-2 7-4-1v-2l-5 1v7h5v1h-12l2-1-1-5 3-1 1 4v-9l6-1 1-3z" fill="#B89E85"/>
<path transform="translate(129,215)" d="m0 0h2v3l1-2 4 1-2 19-3 4-2-2h2l-1-13 2-3h2v-3l-8 5-4-2 5-5z" fill="#8E3546"/>
<path transform="translate(309,184)" d="m0 0 3 1 5 8 1 1 7-1 4-3v2l2 1-5 4-3 1h-7l-4-3v-2l-4 1v-9z" fill="#0B0709"/>
<path transform="translate(74,283)" d="m0 0h16l1 4-1 1-10 1h-10v-5z" fill="#FDFDFD"/>
<path transform="translate(260,227)" d="m0 0h1l1 21v25l-1 12-2 2-1-3z" fill="#8A243F"/>
<path transform="translate(90,186)" d="m0 0h1v25h-7l-1 3-5 1 3-6h2v-6l6-2v-14z" fill="#D3BEA8"/>
<path transform="translate(194,373)" d="m0 0h6l4 2v7l-1 2h-8l-2-1v-9z" fill="#8D2E44"/>
<path transform="translate(133,273)" d="m0 0h20v2l7-2 1 3-7 1-7-1-6 2-14 1 4-4h2z" fill="#7B3843"/>
<path transform="translate(170,91)" d="m0 0 8 2 4 3 1 4-6-3v-3l-7 2 1 2h-8l-4 2-2 4-4 1 1-5 8-7 4 1 4-1z" fill="#C1A88E"/>
<path transform="translate(1882,363)" d="m0 0h5l2 2v6l-3 3-5-1-5-4 1-4z" fill="#D89F61"/>
<path transform="translate(84,239)" d="m0 0h5l1 1v8l-8 2-1-3h-7v-4z" fill="#BE996C"/>
<path transform="translate(132,219)" d="m0 0h2v3h-2l-1 5v11h-4v-2l-6 1v-2l5-4 1-3h-5l1-3z" fill="#C1AA93"/>
<path transform="translate(146,141)" d="m0 0 5 5 10 9 6 3-1 3-5-1-8-5-7-8-3-3 1-2 3 2z" fill="#BEA38D"/>
<path transform="translate(112,398)" d="m0 0 9 1 1 2h-7l2 2v10l-2 2-4-1-1-5 1-8-4-2z" fill="#B1927B"/>
<path transform="translate(220,289)" d="m0 0 2 2v59h-1l-1-53-3-1h2v-2h-6l-3-3h7z" fill="#C4AF9A"/>
<path transform="translate(222,142)" d="m0 0 15 2 5 2v2l-3 1h-20v-2h2z" fill="#8D2F44"/>
<path transform="translate(171,270)" d="m0 0h7l1 6 4 2 1 5-13-4-1-8z" fill="#C7AC98"/>
<path transform="translate(1323,392)" d="m0 0h15l-2 6h-18v-2z" fill="#D99851"/>
<path transform="translate(71,314)" d="m0 0h2l2 15 11 1 1 3-2 1h-12l-2-1z" fill="#FDFDFD"/>
<path transform="translate(190,269)" d="m0 0 10 5 7 2v-2h2v3h2l-1-4h7l-2 4 2 2h-18l-7-4v-2h-5l1-3z" fill="#A16D63"/>
<path transform="translate(91,176)" d="m0 0 27 1v1h-25v29l-2 6h-4v-2h4z" fill="#A48067"/>
<path transform="translate(198,94)" d="m0 0 2 1 2 4 1-4 10 16 1 6-5-3-12-18z" fill="#AA8B6E"/>
<path transform="translate(188,240)" d="m0 0 12 2 9 3 5 1v1h-10l-1 2v-2l-13-1-3-2z" fill="#A6866B"/>
<path transform="translate(1539,386)" d="m0 0 2 1 1 4-7 10-2 2h-4l2-10z" fill="#D18835"/>
<path transform="translate(185,428)" d="m0 0 11 1v2h45v1l-55 1-2 5h-2l1-6z" fill="#1A0A0F"/>
<path transform="translate(1921,417)" d="m0 0 7 1-1 10h-9v-7z" fill="#D19047"/>
<path transform="translate(269,125)" d="m0 0 6 1 14 5-1 2-7-1v2l-10-2-7-2-2-4 7 2 4 1-4-2z" fill="#C5B09B"/>
<path transform="translate(144,230)" d="m0 0 2 1 2 4 4-4 6 2 4 5-6 1-13-1v-7z" fill="#C9B49E"/>
<path transform="translate(70,256)" d="m0 0h18l1 4-1 1h-18z" fill="#FDFDFD"/>
<path transform="translate(70,224)" d="m0 0h20v6h-6v-2h-12l-2 3z" fill="#AE9176"/>
<path transform="translate(1201,301)" d="m0 0 5 2 26 20 4 1 1-5h1v11l-4-2-16-13-16-12z" fill="#BBA38C"/>
<path transform="translate(166,268)" d="m0 0 4 2 1 9 6 1 3 3-2 2-7-3-5-5-2-1v-4l-4-2z" fill="#090708"/>
<path transform="translate(85,248)" d="m0 0h5v8l-19-1 1-3 12-3z" fill="#A58569"/>
<path transform="translate(111,373)" d="m0 0h8v9l-2 1-7-1-2-4 1-4z" fill="#974652"/>
<path transform="translate(1495,382)" d="m0 0h11l2 1v6h-13l-2-3v-3z" fill="#CF8A3B"/>
<path transform="translate(101,218)" d="m0 0 2 1 1 6 2-1h9l-4 5-2 3h-6l1 4h-2z" fill="#B59982"/>
<path transform="translate(207,213)" d="m0 0h10l2 4 2-1v3l-4 1h-8l-3 4v-10z" fill="#AA8A70"/>
<path transform="translate(82,138)" d="m0 0 5 1-5 7 2 1-2 2h-8l-3-3 1-2 4-2z" fill="#C2A991"/>
<path transform="translate(120,111)" d="m0 0 3 1-2 4h4l3 5 4 7 1 3-4-2-8-8-3-2h2l-1-2-3-2 1-2h3z" fill="#CFBAA6"/>
<path transform="translate(1470,396)" d="m0 0h2v11l-3 10-2 1-2-6-1-4 1-5h5z" fill="#D08E43"/>
<path transform="translate(1314,384)" d="m0 0h1v7h22v1l-14 1-3 3h-2v2l19-1v2h-23l1-4-2-4z" fill="#C5A47F"/>
<path transform="translate(94,154)" d="m0 0h2l-1 4 8-2-5 5-8 4h-2v2l4 2-2 1h-7l-1-5 8-3z" fill="#8A253F"/>
<path transform="translate(231,97)" d="m0 0h2l6 7 6 5 4 3-5-1-6-4-1-3h-2v2l-2 2h-3l-2-4 2-6z" fill="#AA8771"/>
<path transform="translate(230,117)" d="m0 0 7 2 1 5 3 1v2h2v2l3 1 3 7 4 4 4 1-5 1-2-1v-2h-2l-2-5h-2l-3-4v-2l-3-1v-3h-2l-1-5-3 1-2 2z" fill="#915453"/>
<path transform="translate(205,108)" d="m0 0 4 5 2 3v4l1 4-2-1-3 5h-2l-1-10-1-3 2-2-1-4z" fill="#C2A88D"/>
<path transform="translate(199,149)" d="m0 0m-1 1m-5 1h5l1 4-8 5-10 1-2-2 1-3 5 1 2-1 2 1v-2l4-1z" fill="#C1AB94"/>
<path transform="translate(114,111)" d="m0 0h5v2h-2l-1 3-9 2v4h2v-2l3 1-1 3h-2v2l-4 1v-4h-2l-1-4 3-3 7-1v-2h2z" fill="#8C5650"/>
<path transform="translate(111,253)" d="m0 0 1 3 8 1-1 3-2 1v1h3v3h-10v-10zm12 6 2 1-3 2-1-2z" fill="#BCA48D"/>
<path transform="translate(192,246)" d="m0 0 11 1 1 4-3 1h-2l-2 5-5-3-3-7z" fill="#83223C"/>
<path transform="translate(118,226)" d="m0 0h3v9l-3 3-2 3-4-1v-7z" fill="#D4C2AE"/>
<path transform="translate(98,427)" d="m0 0 5 2 4-2 15 2 7 2v1h-22l-9-2-2-2z" fill="#2E1E1E"/>
<path transform="translate(81,267)" d="m0 0 3 1-2 6-7 2h-4v-7z" fill="#A68669"/>
<path transform="translate(44,242)" d="m0 0 5 1 3 2v2l4 2 3 4v5l-3 1-2-5-10-9z" fill="#230D13"/>
<path transform="translate(201,162)" d="m0 0v3l-12 5-8 1v-2h-5l3-2 12-3 5-1z" fill="#CDB7A0"/>
<path transform="translate(258,120)" d="m0 0h2v2l4-1v2h-3l2 5 4 4h-4l-6 1v-4h-4l-2-4 6-1z" fill="#8E5453"/>
<path transform="translate(1913,382)" d="m0 0 4 1-1 6-9 7h-2l1-6z" fill="#D1924A"/>
<path transform="translate(138,374)" d="m0 0h8l1 1v8l-2 1-7-1z" fill="#843042"/>
<path transform="translate(135,214)" d="m0 0h39l1 1v10h-1v-9h-21l-13-1v3l-7-1-2 1v-3z" fill="#6E1D33"/>
<path transform="translate(111,137)" d="m0 0h3v2h-2v6h2v2h-6-4l-2-2 1-4 2-2z" fill="#FDFDFD"/>
<path transform="translate(207,373)" d="m0 0h10v8l-4 1v-2l-3-1-1 4h-2z" fill="#A26E65"/>
<path transform="translate(258,298)" d="m0 0h1v16l-2-1-1-4-5-3-3-4v-2h9z" fill="#7E303F"/>
<path transform="translate(126,252)" d="m0 0 2 3 2 10-4 1-6-1 1-4 1-1-1-3 1-2h4z" fill="#C2A992"/>
<path transform="translate(262,131)" d="m0 0 4 1 6 1 4 2v2h2l5 5v3l-8-4-7-6 1 3-3-1v-3l-5 1z" fill="#BAA189"/>
<path transform="translate(223,372)" d="m0 0 8 1v9l-6 1v-6h-2v5l-2-2v-6z" fill="#87233D"/>
<path transform="translate(154,373)" d="m0 0h6l1 3-2 7h-7v-9z" fill="#8B2740"/>
<path transform="translate(70,292)" d="m0 0h12v5l-9 1-2 5h-1z" fill="#D1BCA6"/>
<path transform="translate(109,270)" d="m0 0h26v2h6v1l-13 1h-16v-2h-6z" fill="#9F7160"/>
<path transform="translate(131,241)" d="m0 0 13 1 1 6h-13l-1-1z" fill="#C7B29D"/>
<path transform="translate(99,125)" d="m0 0 5 2 2 10 2 1-7 6h-3v-3h3v-2h2l-1-10-4 2-2 3h-2l2-4z" fill="#6F373C"/>
<path transform="translate(152,302)" d="m0 0h3l-1 10 5 1-2 1v2h-7l-2-2 1-9h2z" fill="#A77C6B"/>
<path transform="translate(199,186)" d="m0 0 10 1v13h-2l-3-8-1-1h-7l1-4z" fill="#A8886D"/>
<path transform="translate(313,185)" d="m0 0 10 2 1 3 2 1-1 3-7 1-5-6z" fill="#D6C4B1"/>
<path transform="translate(245,128)" d="m0 0 4 2 1-2 3 2 1 4 2 4-1 4-4-2-5-6z" fill="#DACAB9"/>
<path transform="translate(1466,392)" d="m0 0 4 4v7l-4 1-2 7-1-4v-8l-1-6z" fill="#DA9B58"/>
<path transform="translate(309,243)" d="m0 0v3l-8 7-2 7-3-1v-8l5-5z" fill="#0C0709"/>
<path transform="translate(187,235)" d="m0 0 2 4 9 1 8 3 10 1-1 3 7 2v1l-10 1 2-5-9-1-9-3-8-2v-2h-3v-2z" fill="#8E3245"/>
<path transform="translate(83,193)" d="m0 0 5 1v5l-4 2-2 2-6-3v-3z" fill="#D2BEA8"/>
<path transform="translate(21,179)" d="m0 0h2l1 11 4 2 5 3-2 1 1 1-4 1-6-5-3-5z" fill="#903E4A"/>
<path transform="translate(110,109)" d="m0 0 6 1-2 1v2h-2v2l-8 3-3 2h-4l-1-3 6-2 6-5z" fill="#BDA58E"/>
<path transform="translate(121,100)" d="m0 0h8l6 1 1 3h-2l1 4-2 5-2-4v-3l-4 1-2-5-3 1z" fill="#89273F"/>
<path transform="translate(147,400)" d="m0 0h7l3 7-1 6-1 2h-2l-3-9z" fill="#FDFDFD"/>
<path transform="translate(295,388)" d="m0 0h1v5l-3 6-7 11-2-1v-7l4-4h2z" fill="#3E1D22"/>
<path transform="translate(88,256)" d="m0 0 3 1v28l-2-3 1-20-18 1 3 4-5 2v-8l18-1z" fill="#D0BBA6"/>
<path transform="translate(67,386)" d="m0 0 2 4 3 1 6 8v3l4 5 6 7-4-2-10-10-7-13z" fill="#7A293B"/>
<path transform="translate(1590,382)" d="m0 0 4 1-2 6-6 5h-4l2-6 4-5z" fill="#D29046"/>
<path transform="translate(238,295)" d="m0 0 9 2 5 2-4 1 3 5-10-3v-2l-4-1-2-1 1-2z" fill="#823745"/>
<path transform="translate(222,87)" d="m0 0 6 2 2 2-1 3 1 3-11-2 1-5-2-2z" fill="#AF8776"/>
<path transform="translate(124,374)" d="m0 0h7l1 1v8h-8z" fill="#81283D"/>
<path transform="translate(196,296)" d="m0 0m-3 1 3 1-5 4h-3l-2 4-5-1-1-4v-3h10z" fill="#C6B19B"/>
<path transform="translate(265,291)" d="m0 0 9 1 2 1v6h-7l-3-2z" fill="#D3BEA8"/>
<path transform="translate(88,120)" d="m0 0v3l-7 6-3 1h-8l2-4 8-2 3-3z" fill="#8C414A"/>
<path transform="translate(275,260)" d="m0 0h9l-1 8h-6l-2 1-2-7z" fill="#FDFDFD"/>
<path transform="translate(87,139)" d="m0 0h7l3 3v3h-15z" fill="#FDFDFD"/>
<path transform="translate(131,91)" d="m0 0 7 3-1 9h-2l-1-5-5 1v-3h-2l-1-4z" fill="#D5C4B3"/>
<path transform="translate(258,364)" d="m0 0h1v8l-4 10-4 3-5 1v-2l5-3 5-13h2z" fill="#954350"/>
<path transform="translate(107,355)" d="m0 0 3 1-2 2-2 6h-2v6h-2v-3h-2v-8l2-2 4-1z" fill="#903649"/>
<path transform="translate(248,315)" d="m0 0 8 6 2 1 1 7-2 1v-3l-5-2-2-1v-2l-3-1z" fill="#893344"/>
<path transform="translate(113,200)" d="m0 0h5l-2 4-11 5 1 2h-4v-6z" fill="#9F806A"/>
<path transform="translate(1691,420)" d="m0 0h4l-1 5-4 3h-9l2-1-1-3z" fill="#CF8D42"/>
<path transform="translate(1546,382)" d="m0 0 8 1v1h-8l1 3 3 2-8 1-3-3-6 6-2-1 4-5 7-4z" fill="#D6A065"/>
<path transform="translate(202,264)" d="m0 0h3l1 10-5-1-6-2v-2h3l-1-4z" fill="#542C2E"/>
<path transform="translate(289,137)" d="m0 0 3 1-1 10h-2l-1 1h-2v6h-1v-5l-9-1v-1l9-2 3-4z" fill="#CAB49F"/>
<path transform="translate(1809,416)" d="m0 0 5 1v12h-6z" fill="#D1852F"/>
<path transform="translate(136,218)" d="m0 0h3l-1 20h-3v-19z" fill="#CBB5A0"/>
<path transform="translate(159,339)" d="m0 0h7l4 4 1 4-4 1-8-6z" fill="#FDFDFD"/>
<path transform="translate(94,139)" d="m0 0 4 2v3l2 1-4 3h-5v2l5 1v1h-22v-1l14-1 2-4 1-1h6z" fill="#C0A993"/>
<path transform="translate(260,119)" d="m0 0 5 1 5 2 1 3h-2v2l5 1-1 2-12-3v-4h3v-2l-4 1z" fill="#A58369"/>
<path transform="translate(123,104)" d="m0 0h2l4 8-1 3h2l5 8-1 3-8-10-5-5v-3h2l2 2z" fill="#8A2640"/>
<path transform="translate(145,218)" d="m0 0h9l3 8 5 5-5-1v-2l-4-2-8-7z" fill="#D2BDA7"/>
<path transform="translate(181,213)" d="m0 0 16 1v3h-15v15h-1z" fill="#A5856A"/>
<path transform="translate(71,203)" d="m0 0 7 1 2 2-1 4-1 1h-5v2h-2z" fill="#FDFDFD"/>
<path transform="translate(217,89)" d="m0 0 4 1-2 5 8 1-2 1-1 3-3-3-2 4-2-2v-3l-3-1v-4z" fill="#AA8C74"/>
<path transform="translate(139,400)" d="m0 0h4l4 7-1 5-1 2h-2l-4-11z" fill="#FDFDFD"/>
<path transform="translate(236,374)" d="m0 0 3 1v2h2v-2l7-1v5l-2 2-9-1z" fill="#8C2B42"/>
<path transform="translate(95,351)" d="m0 0h1l1 22 2 1-2 2-3-3-1-7v-11z" fill="#090708"/>
<path transform="translate(100,129)" d="m0 0h2l1 3v7h-2v2h-3v-3h-3v-2h2v-5z" fill="#CFBAA4"/>
<path transform="translate(180,375)" d="m0 0 4 2 4-1v7l-2 1h-6z" fill="#8A253F"/>
<path transform="translate(232,373)" d="m0 0h3l2 9 7 1-2 2h-11z" fill="#FDFDFD"/>
<path transform="translate(220,372)" d="m0 0h1v11l10 1v1h-20l1-2 5-1 1-8z" fill="#FAF9F8"/>
<path transform="translate(106,255)" d="m0 0 2 4v6h-1l-1 7 4-1h10v1l-10 2h-9v-2l4-1v-13z" fill="#B99D86"/>
<path transform="translate(264,257)" d="m0 0h15l-1 3-4 2v7h-4v-6l3-3-9-1z" fill="#A1685F"/>
<path transform="translate(250,361)" d="m0 0h3v8l-3 3-3-1-1-7z" fill="#8D2E44"/>
<path transform="translate(128,143)" d="m0 0 5 1 1 4h-17l-1-3 10-1z" fill="#81233C"/>
<path transform="translate(107,361)" d="m0 0 3 4 1 5-7 2-1 2-2-2v-5l1 3h2v-6z" fill="#A6846A"/>
<path transform="translate(238,309)" d="m0 0 4 1 3 2v2l3 1 1 3-1 2-4-1v-2l-4-2-3-2z" fill="#3E1B21"/>
<path transform="translate(285,204)" d="m0 0h1v12h-1v-7l-20-1 1-2 18-1z" fill="#C4A786"/>
<path transform="translate(237,107)" d="m0 0 5 2 14 7-2 2-7-4-1 1 6 3-3 1-5-3-6-4 3-1z" fill="#D0BDA9"/>
<path transform="translate(1323,360)" d="m0 0h22v1h-12l2 5-4 1-6-1 2-4z" fill="#C7A680"/>
<path transform="translate(95,301)" d="m0 0 6 1-3 3v15l-3 3-1-20z" fill="#762739"/>
<path transform="translate(282,286)" d="m0 0h2v22h-5l4-1-1-6-4-2h5l-1-4-3-2-1-3 4-2z" fill="#CAB59F"/>
<path transform="translate(109,231)" d="m0 0 3 1-1 3h-2v2h2l1 5-3 1-1-3-2-1v-2l-4 1v-2h2l-1-4z" fill="#8A3B47"/>
<path transform="translate(75,133)" d="m0 0 3 1-4 2v3l-4 1 1 4-5-1-2-4 4-1-1-3 7-1z" fill="#7C4B49"/>
<path transform="translate(165,374)" d="m0 0 4 1 1 6 2-5h2v6l-1 2h-6l-2-4z" fill="#8B2841"/>
<path transform="translate(208,371)" d="m0 0h11v3l-2 10h-9l2-6 1 2h2v2l3-1 1-8h-9z" fill="#C6AF98"/>
<path transform="translate(271,247)" d="m0 0h13v4l-20-1 1-2z" fill="#A48368"/>
<path transform="translate(155,229)" d="m0 0 5 2 3 1 5 5 5 3-2 1-9-3-6-5-2-1z" fill="#611C2E"/>
<path transform="translate(1651,148)" d="m0 0 4 1 3 3 4 8-1 4-4-7-3-1v-3h-2v-2l-3 1z" fill="#C1824B"/>
<path transform="translate(267,134)" d="m0 0 4 2 10 9v2l-7 1-2-7-3-2z" fill="#741F35"/>
<path transform="translate(218,399)" d="m0 0h3l-1 10v2h2v4l-5-1-1-6 1-8z" fill="#A9806E"/>
<path transform="translate(1751,387)" d="m0 0 4 1 2-1 2 6-1 2h-5l-4-5-2-2z" fill="#D99F60"/>
<path transform="translate(1832,382)" d="m0 0h10l-1 2-5-1 2 8v8h-1l-1-13-6 2-1-2-3-2z" fill="#D6A671"/>
<path transform="translate(185,272)" d="m0 0 7 1v2l15 6 1 4-6-2-5-3-11-6z" fill="#5C2530"/>
<path transform="translate(151,266)" d="m0 0 2 2v3l6 2-2 2h-4v-2l-3 1-9-1 3-3h7z" fill="#A48368"/>
<path transform="translate(108,370)" d="m0 0h9l3 2-11 3v5l-2-1v-3h-2l-1-4z" fill="#D1BDA8"/>
<path transform="translate(208,256)" d="m0 0h1l1 7 3 4-4 1-3-1v5l4 1h-5v-13h2z" fill="#C0A992"/>
<path transform="translate(40,190)" d="m0 0 4 3v2l-2 1v2l-2 1h-10v-2l-3-3 7 1 5-1z" fill="#A47F67"/>
<path transform="translate(87,123)" d="m0 0h3v3h-2l-1 4-3 1-1 3h-5l1-5z" fill="#DBCBB9"/>
<path transform="translate(91,297)" d="m0 0h1v30l-1-3h-2v-13h1z" fill="#B18E6A"/>
<path transform="translate(283,251)" d="m0 0h2v16l-1 11-3-1 1-1v-8l1-7-5-1 1-3 5 1z" fill="#C9B39D"/>
<path transform="translate(208,218)" d="m0 0 1 2 9-1 3 3-1 2h-7l-7 2z" fill="#D9C8B6"/>
<path transform="translate(241,214)" d="m0 0h15v3l-10-1-4-1v11h2v2h-11v-1h8z" fill="#BA9F86"/>
<path transform="translate(148,121)" d="m0 0 5 1 1 8 4 2-1 4-5-4-4-9z" fill="#BE9769"/>
<path transform="translate(235,302)" d="m0 0 4 5-1 6 2 2h-2v6h-3l-1-18z" fill="#893E49"/>
<path transform="translate(204,302)" d="m0 0h3l-2 5-10 6-3-1v-2l10-6z" fill="#4A282B"/>
<path transform="translate(228,251)" d="m0 0 9 1-2 4-6 4h-2z" fill="#D2C1AF"/>
<path transform="translate(150,157)" d="m0 0 11 6 2 1v3l-5-1-9-5-1-3z" fill="#C7B19B"/>
<path transform="translate(1766,409)" d="m0 0h1l3 12 8 8-6-1-5-5-1-3z" fill="#CF8D42"/>
<path transform="translate(64,382)" d="m0 0 2 2 6 14-2 2h-2l-3-5z" fill="#B69A81"/>
<path transform="translate(84,204)" d="m0 0 4 1 1 5-5 1-1 3-5 1 3-6h2z" fill="#FDFDFD"/>
<path transform="translate(219,149)" d="m0 0h18l-1 3h-16z" fill="#C2AC96"/>
<path transform="translate(233,132)" d="m0 0 3 1 3 6 3 2-1 2-4-2v-2l-6-1v-2l-5 1 2-4 5 1z" fill="#903949"/>
<path transform="translate(178,373)" d="m0 0h1l1 11 1 2h-6v-11z" fill="#FDFDFD"/>
<path transform="translate(193,336)" d="m0 0h6l2 4-2 4-6-3-1-4z" fill="#F9F8F7"/>
<path transform="translate(195,330)" d="m0 0 4 1 6 5 1 4h-5l-5-5z" fill="#8C2D43"/>
<path transform="translate(140,215)" d="m0 0h25l9 1v1l-31 1z" fill="#A58569"/>
<path transform="translate(89,188)" d="m0 0h1v13l-7 2 1-3 4-1v-5h-3l2-5z" fill="#BC976C"/>
<path transform="translate(207,166)" d="m0 0h5l2 6h-11l1-5z" fill="#8B2941"/>
<path transform="translate(151,104)" d="m0 0 1 2-3 7-1 5 4-1v3l-4-1-1 2h-4l-1-3h4l-1-6 4-5z" fill="#C3AD98"/>
<path transform="translate(96,349)" d="m0 0h2l1 24h-2l-1-2-1-14z" fill="#843342"/>
<path transform="translate(136,352)" d="m0 0 23 2v1l-7 1h-15z" fill="#C9B49F"/>
<path transform="translate(206,338)" d="m0 0 2 4h-2l-2 6-2-2-5-1-2-1 1-2 3 1 1-3z" fill="#B69A82"/>
<path transform="translate(224,225)" d="m0 0 9 2 6 2v2l3 1h-11l-3-3-4-2z" fill="#260F15"/>
<path transform="translate(236,134)" d="m0 0h8l3 3-5 4-4-2v-2l-2-1z" fill="#C0A890"/>
<path transform="translate(244,353)" d="m0 0 4 3v2l3 1-1 3-6 3z" fill="#EDE7E1"/>
<path transform="translate(234,228)" d="m0 0h10l2 2 2 3v3l-11-3 2-4h-5z" fill="#872C41"/>
<path transform="translate(228,414)" d="m0 0 1 2h4l3 4-25-1v-1l15-1z" fill="#CEB9A3"/>
<path transform="translate(163,373)" d="m0 0 2 4 1 8h-6l1-9z" fill="#FDFDFD"/>
<path transform="translate(264,315)" d="m0 0h6l-4 2-1 4h2l1 8-3 2-2-5z" fill="#CBB6A1"/>
<path transform="translate(98,228)" d="m0 0 3 1v16l-3-1-1-3z" fill="#090708"/>
<path transform="translate(238,113)" d="m0 0 5 1 7 7 1 4-9-6-4-3z" fill="#8E5150"/>
<path transform="translate(1738,384)" d="m0 0 9 3-4 2-7 3-2-1 2-5z" fill="#DA9953"/>
<path transform="translate(116,349)" d="m0 0h1v7l-2 2-3-2-5 4 2-4 3-5z" fill="#BCA18D"/>
<path transform="translate(244,255)" d="m0 0h10l1 1v7l-2-1v-3h-6l-3-2z" fill="#FDFDFD"/>
<path transform="translate(275,227)" d="m0 0h9v3h-19l1-2z" fill="#A68569"/>
<path transform="translate(194,123)" d="m0 0h2v2l7 1 1 2h-3l2 3-1 5-2-4-5-5z" fill="#C0996A"/>
<path transform="translate(99,373)" d="m0 0 3 4 3 6-8-2-2-6z" fill="#8B3547"/>
<path transform="translate(99,338)" d="m0 0h3 2v2l2 1-5 6h-2l-1 2v-9z" fill="#B99F87"/>
<path transform="translate(1225,319)" d="m0 0 4 2 5 3h2l1-5h1v11l-4-2-9-7z" fill="#B79E86"/>
<path transform="translate(220,289)" d="m0 0h1v18h-1v-10l-3-1h2v-2h-6l-3-3h7z" fill="#D4BFA9"/>
<path transform="translate(183,235)" d="m0 0 1 3-1 2h5l-2 4-2-1-1-1-4 1v-2l-6 1 3-4 6-1z" fill="#85273E"/>
<path transform="translate(191,229)" d="m0 0 3 1v1l-5 1-2 4h-2v2h3l-1 3-4-1v-7l3-3z" fill="#531727"/>
<path transform="translate(144,230)" d="m0 0 2 1 1 6 11-1h3l1 2-6 1-13-1v-7z" fill="#C1AC96"/>
<path transform="translate(129,215)" d="m0 0h2v3l2 1-7 5-4-2 5-5z" fill="#7A263A"/>
<path transform="translate(231,188)" d="m0 0h13l-2 2-9 1v8h-3v-10z" fill="#AB8D73"/>
<path transform="translate(232,119)" d="m0 0 3 1 1 3-2 4 1 2-3 1-3 3-1-4 3-3-1-3z" fill="#B3907F"/>
<path transform="translate(202,83)" d="m0 0 7 6v2h2l3 6-1 3-6-7-3-6z" fill="#792B3C"/>
<path transform="translate(260,419)" d="m0 0 4 1v2l-9 4-9 1 3-2z" fill="#EFE9E3"/>
<path transform="translate(117,305)" d="m0 0h2l-1 5-6 4h-2l-1-4h2v-2z" fill="#7B2A3C"/>
<path transform="translate(1923,150)" d="m0 0h12v4h-12l2-1v-2z" fill="#D0842E"/>
<path transform="translate(82,145)" d="m0 0h9l-3 5 2 1h-10l3-4z" fill="#D2BDA7"/>
<path transform="translate(170,125)" d="m0 0 2 1 9 1-1 2h-6v5l3 1-2 2-5-7-3-3z" fill="#BC9669"/>
<path transform="translate(213,93)" d="m0 0 4 3 2 4 2-4 1 5-3 3-4-2-3-8z" fill="#CCBAA7"/>
<path transform="translate(124,93)" d="m0 0 3 1v2l3-1v3h4v3h-9l-1-5z" fill="#A6856A"/>
<path transform="translate(1827,385)" d="m0 0 3 1-2 4-6 5h-3l2-4z" fill="#D18938"/>
<path transform="translate(181,306)" d="m0 0 5 1 1 2v6l-5-2-3-6z" fill="#721E34"/>
<path transform="translate(184,283)" d="m0 0h8l-1 6h-5l-2-2z" fill="#CFBAA4"/>
<path transform="translate(206,267)" d="m0 0 17 2v1h-8v2h-9z" fill="#DFD2C5"/>
<path transform="translate(147,241)" d="m0 0h16l2 2h-14l1 4-4 1z" fill="#D2BDA7"/>
<path transform="translate(66,128)" d="m0 0h3l-1 4-5 6h-2l-1 2-1-3 1-2-2-1h4v-2l3-1z" fill="#975F5B"/>
<path transform="translate(225,375)" d="m0 0h1v6l-1 2 6-1v-7h1v9h-9l-2-1 2-6h2z" fill="#C3AC96"/>
<path transform="translate(203,375)" d="m0 0h1v7l-1 2h-8l-2-2h2l2-6h2v6l3-1z" fill="#B99F86"/>
<path transform="translate(243,255)" d="m0 0 4 4-2 7-4-1v-4h2v-2h-2v-3z" fill="#D7C8BA"/>
<path transform="translate(180,156)" d="m0 0 5 1 5-1v2l3 1-6 2h-6l-2-2z" fill="#BAA189"/>
<path transform="translate(101,238)" d="m0 0h1v5l3 1 1 3-1 6-2-1-1 6h-1z" fill="#A38066"/>
<path transform="translate(103,215)" d="m0 0h19l-1 2-20 1z" fill="#80213A"/>
<path transform="translate(245,144)" d="m0 0 2 1v2h3v2l-3 2h-11l3-3 4-1 1 1z" fill="#D0BBA8"/>
<path transform="translate(54,134)" d="m0 0 6 1v9l-3-2v-3l-6-1 1-3z" fill="#521C28"/>
<path transform="translate(178,343)" d="m0 0h2l-1 10-1 3-4-1 1-5z" fill="#CBB59F"/>
<path transform="translate(238,263)" d="m0 0h3l1 4-1 4h-5v-7z" fill="#86233D"/>
<path transform="translate(265,216)" d="m0 0h17l1 2-9 1-9-1z" fill="#A98869"/>
<path transform="translate(78,140)" d="m0 0 1 3v3h2v2h-8l-2-4 4-1z" fill="#59192A"/>
<path transform="translate(115,121)" d="m0 0 5 1 1 2-5 5-1 2h-2v2h-2l2-6z" fill="#A06961"/>
<path transform="translate(1556,420)" d="m0 0h4l-2 5-2 2-4-1 1-2-2-1z" fill="#D1924C"/>
<path transform="translate(1511,419)" d="m0 0h1v9h-5v-7z" fill="#D08632"/>
<path transform="translate(132,398)" d="m0 0h21l2 1-1 2h-8l-14-2z" fill="#C8B39E"/>
<path transform="translate(124,227)" d="m0 0 4 1-3 5-4 2-1-5 1-2z" fill="#80213A"/>
<path transform="translate(134,206)" d="m0 0h15l-1 3h-10l-4-2z" fill="#200C11"/>
<path transform="translate(39,184)" d="m0 0 5 2 3 5v4h-3l-4-5z" fill="#4E1625"/>
<path transform="translate(1569,152)" d="m0 0 5 1 3 4-5 1-6-3 3-1z" fill="#D28C3C"/>
<path transform="translate(277,128)" d="m0 0 9 2 3 1-1 2-7-1v2l-4-1-1-4z" fill="#BDA68F"/>
<path transform="translate(226,122)" d="m0 0 2 2v3h2l-1-4 3 3-2 3h-2l-1 2v-2h-2l-1 2v-8z" fill="#CAB29E"/>
<path transform="translate(170,91)" d="m0 0 8 2 4 3 1 4-6-3v-3l-5 1h-6l4-2z" fill="#C2A687"/>
<path transform="translate(82,411)" d="m0 0 4 2 3 5 7 4-4 1-11-9-1-2z" fill="#BDA48E"/>
<path transform="translate(112,355)" d="m0 0 3 3-3 6-4-1-1-3z" fill="#D3BEA8"/>
<path transform="translate(240,325)" d="m0 0 5 4 6 10-4-1-5-5 1-2-3-4z" fill="#090708"/>
<path transform="translate(117,326)" d="m0 0h2v9l-3-4-9 9v-3l9-9z" fill="#CAB5A3"/>
<path transform="translate(195,298)" d="m0 0 4 1h-2v2l-6 3-5 5v-2l-3-1 4-2v-3l5-1z" fill="#AC8C73"/>
<path transform="translate(161,283)" d="m0 0h8v5h-6l-3-4z" fill="#D6C3B0"/>
<path transform="translate(157,264)" d="m0 0h6l-2 1-2 4-6 2-1-5z" fill="#090708"/>
<path transform="translate(266,259)" d="m0 0h8l-4 6-5-1-1-4z" fill="#FDFDFD"/>
<path transform="translate(230,258)" d="m0 0m-1 1m-1 1 4 1-1 4-2 1h-7v-2z" fill="#8D3044"/>
<path transform="translate(71,226)" d="m0 0 1 2h11v3h-12z" fill="#FDFDFD"/>
<path transform="translate(118,226)" d="m0 0h3v9l-4 3v-5l-1-5z" fill="#BEA68E"/>
<path transform="translate(321,160)" d="m0 0 6 5 3 5-1 2-3-1-2-3v-3l-3-1-1-3z" fill="#53232B"/>
<path transform="translate(229,164)" d="m0 0h2v3l-3 3 2 1-1 1h-6v-6h6z" fill="#8A2640"/>
<path transform="translate(156,148)" d="m0 0 7 3v2h3l-1 4-5-2-4-5z" fill="#BB8F64"/>
<path transform="translate(222,142)" d="m0 0 4 2h-3v2l4-1 2 2-1 2h-9v-2h2z" fill="#9F6F60"/>
<path transform="translate(228,135)" d="m0 0 3 1v2l6 1-4 1v2l-8-2 1-4z" fill="#B0937A"/>
<path transform="translate(155,304)" d="m0 0 4 4v4h-6l1-7z" fill="#FDFDFD"/>
<path transform="translate(265,238)" d="m0 0 19 1v2h-18z" fill="#A27A64"/>
<path transform="translate(160,231)" d="m0 0 7 1 4 1v5l-8-1v-3-2z" fill="#C6AF97"/>
<path transform="translate(221,216)" d="m0 0 2 4 1 3 6 2 1 2-8-1-1-4-3-1v-2h2z" fill="#8C2E43"/>
<path transform="translate(191,140)" d="m0 0h2l1 4-7 5-4-1v-2l8-4z" fill="#C09E75"/>
<path transform="translate(68,131)" d="m0 0h6l-3 1v3l-3 1v2l-6 1 3-4-1-2z" fill="#DED0C0"/>
<path transform="translate(92,124)" d="m0 0h3v2l-10 10h-3l3-4h2v-4l4-2z" fill="#240D13"/>
<path transform="translate(110,109)" d="m0 0 6 1-2 1v2h-2v2l-5 1v-2l1-1-4 1 4-4z" fill="#CAB5A1"/>
<path transform="translate(1499,421)" d="m0 0h3l-2 6-2 1h-6l2-2-1-2 6-1z" fill="#D08938"/>
<path transform="translate(212,374)" d="m0 0 5 1v6l-4 1-1-2z" fill="#8A243F"/>
<path transform="translate(223,372)" d="m0 0 8 1-4 2h-2v2h-2v5l-2-2v-6z" fill="#99625B"/>
<path transform="translate(2e3 273)" d="m0 0h1v7h6l2 2-5 1-3 1-3-3z" fill="#D0BBA5"/>
<path transform="translate(211,263)" d="m0 0h3v3h6v2l3 1h-12v-4z" fill="#8D2F45"/>
<path transform="translate(246,259)" d="m0 0h6l-2 12h-1l-1-7h-2z" fill="#965152"/>
<path transform="translate(209,244)" d="m0 0h7l-1 3 7 2v1l-10 1 2-5h-5z" fill="#792539"/>
<path transform="translate(127,230)" d="m0 0 3 2v5h-9v-2z" fill="#C9B39C"/>
<path transform="translate(330,180)" d="m0 0 3 4 1 7-3 2-2-1z" fill="#7A283A"/>
<path transform="translate(91,176)" d="m0 0 27 1v1h-25l-1 4-1-1z" fill="#8A243F"/>
<path transform="translate(153,155)" d="m0 0 4 2 3 2v2l4 2-3 1-8-5z" fill="#2D1118"/>
<path transform="translate(196,401)" d="m0 0 4 1v10l-3-2z" fill="#AC8E74"/>
<path transform="translate(1728,392)" d="m0 0 1 3h2l1-3h1v8h-3l-1 2-1-2z" fill="#DA9D5C"/>
<path transform="translate(112,349)" d="m0 0h2v2l-4 4-5 3-3-1 5-5z" fill="#38111C"/>
<path transform="translate(102,298)" d="m0 0 4 1h4l-2 1v2l-5 2-3-1-2-3z" fill="#9B5359"/>
<path transform="translate(264,261)" d="m0 0 1 3 5 1-1 5-5 1z" fill="#D3BEA8"/>
<path transform="translate(113,116)" d="m0 0h6l1 3-5 2-1 5-2-2 1-6z" fill="#EAE1D8"/>
<path transform="translate(233,101)" d="m0 0 4 1 5 4 3 3 4 3-5-1-6-4-1-3h-3z" fill="#995B57"/>
<path transform="translate(203,400)" d="m0 0 3 1v6l-2-2-2 2-2 4v-9z" fill="#D3BEA8"/>
<path transform="translate(1775,387)" d="m0 0 2 1-3 4-3 5h-2l-1 2 1-6 4-5z" fill="#D18D41"/>
<path transform="translate(276,293)" d="m0 0 6 1 1 5-6 1z" fill="#C0996A"/>
<path transform="translate(157,251)" d="m0 0 2 1 1 5-6 5v-6z" fill="#83253D"/>
<path transform="translate(103,237)" d="m0 0h3v2h2v5l-6-1v-5z" fill="#CEB9A3"/>
<path transform="translate(284,188)" d="m0 0h2v13l-10-1v-1h8z" fill="#C2AD97"/>
<path transform="translate(121,134)" d="m0 0 5 1-1 3-10 1 1-4z" fill="#7E2A3D"/>
<path transform="translate(101,121)" d="m0 0h2v2h2v4l2 1-3 1v-2l-7-2v-2z" fill="#CEBAA5"/>
<path transform="translate(153,258)" d="m0 0 2 3h3l-1 4h-2l-1 2-3-1 1-6z" fill="#A27C65"/>
<path transform="translate(151,165)" d="m0 0 5 1 7 3 1 3h-4l-4-2-3-2z" fill="#9C655B"/>
<path transform="translate(202,158)" d="m0 0 3 1-1 5-3-1-5 1-1-2z" fill="#C5AE97"/>
<path transform="translate(114,138)" d="m0 0h7l-2 2h-5l4 9h-2v-2h-2v-2h-2v-6z" fill="#AD927A"/>
<path transform="translate(105,134)" d="m0 0 1 3 2 1-7 6h-3v-3h3v-2h2l1-4z" fill="#844E4C"/>
<path transform="translate(191,341)" d="m0 0 4 1v2l8 1v4l-7-2-5-5z" fill="#9B5659"/>
<path transform="translate(248,300)" d="m0 0h7l2 3-2 2-5-1z" fill="#160F0F"/>
<path transform="translate(185,279)" d="m0 0 8 1 1 2-2 2-8-1z" fill="#99685B"/>
<path transform="translate(196,271)" d="m0 0 15 3v3h-2v-3h-2v2l-7-1z" fill="#090708"/>
<path transform="translate(227,247)" d="m0 0 8 1 4 3-1 2-9-3z" fill="#4D1625"/>
<path transform="translate(129,225)" d="m0 0 2 2v11l-4-1h3l-3-9-3-2z" fill="#A58369"/>
<path transform="translate(174,158)" d="m0 0h4v2h-2v2h-6l1 3h-2v-2h-2l1-4 5 1z" fill="#C4AE99"/>
<path transform="translate(61,138)" d="m0 0 3 1 3 4v3h-5l-2-6z" fill="#CBB6A0"/>
<path transform="translate(69,129)" d="m0 0h10l-1 5-7 1v-3l-2-1z" fill="#B0927B"/>
<path transform="translate(109,120)" d="m0 0 3 1-1 3h-2v2l-4 1v-4h-2l1-2 5 1z" fill="#A58169"/>
<path transform="translate(202,95)" d="m0 0 4 4 6 10-1 2-4-2-1-5-4-7z" fill="#C0A993"/>
<path transform="translate(220,91)" d="m0 0h5v2l5 2v2l-11-2z" fill="#E2D6CB"/>
<path transform="translate(84,306)" d="m0 0h5l-1 4-11 1 3-3z" fill="#AE8F72"/>
<path transform="translate(84,239)" d="m0 0h5v2h-3v2l-2 1h-6l4-4z" fill="#AB8C70"/>
<path transform="translate(123,165)" d="m0 0 1 2h5l1 5-5-1-4-3v-2z" fill="#8A2740"/>
<path transform="translate(209,398)" d="m0 0h18l-3 2h-6l-1 5h-1v-5l-7-1z" fill="#CBB6A1"/>
<path transform="translate(135,214)" d="m0 0h8l-3 1v3l-7-1-2 1v-3z" fill="#2F0F18"/>
<path transform="translate(161,197)" d="m0 0 5 1 3 3-1 3-4-2-3-3z" fill="#521727"/>
<path transform="translate(94,139)" d="m0 0 4 2v3l2 1-4 3h-5v-3h6z" fill="#C5AE97"/>
<path transform="translate(157,113)" d="m0 0 6 5 1 4-5-1-2-5z" fill="#C09D74"/>
<path transform="translate(160,376)" d="m0 0h1v7l-1 2-9 1 1-3 7-1z" fill="#C1A993"/>
<path transform="translate(158,371)" d="m0 0h10v2h-3l-1 4-1-3-2 2-3-3z" fill="#D8C6B3"/>
<path transform="translate(245,352)" d="m0 0 4 2v2l3 1 2 3v6h-1v-5h-2l-6-7z" fill="#AE8175"/>
<path transform="translate(44,242)" d="m0 0 5 1 3 3-1 2-5-1-2-2z" fill="#621E2F"/>
<path transform="translate(223,216)" d="m0 0 5 2-1 5h-3v-2l-2-1z" fill="#C0A891"/>
<path transform="translate(136,140)" d="m0 0 3 2 2-2 3 5 1 3h-4l-5-6z" fill="#230D13"/>
<path transform="translate(231,111)" d="m0 0h3l3 6-4 1-3-2z" fill="#B59983"/>
<path transform="translate(217,89)" d="m0 0 4 1-2 4-4 2-1-5z" fill="#753B41"/>
<path transform="translate(75,319)" d="m0 0 2 2 1 8h-4v-8z" fill="#C19F76"/>
<path transform="translate(168,278)" d="m0 0 4 5-2 8-1-4 1-5h-7l1-2z" fill="#8A243F"/>
<path transform="translate(213,223)" d="m0 0h2l-2 4-5 2-2-3z" fill="#A48167"/>
<path transform="translate(77,213)" d="m0 0 1 2 6-2v2l3 1v1h-9l-4-2h3z" fill="#C8B19B"/>
<path transform="translate(88,118)" d="m0 0h3v2l3-1 1 2-1 2h-6v-2l-3-1z" fill="#B59581"/>
<path transform="translate(120,111)" d="m0 0 3 1-1 7-4 1 2-1-1-2-3-2 1-2h3z" fill="#BEA68F"/>
<path transform="translate(163,97)" d="m0 0m-1 1 7 2-2 2-5 1-4-1z" fill="#EEE6DF"/>
<path transform="translate(177,439)" d="m0 0h2l2 3-1 4-5-1-1-2h2z" fill="#7B3A43"/>
<path transform="translate(1774,398)" d="m0 0 2 2 1 4 6 1v1h-9l-1-1z" fill="#D4BFA9"/>
<path transform="translate(151,273)" d="m0 0h2v2l7-2 1 3-7 1-7-2z" fill="#6D1D32"/>
<path transform="translate(214,265)" d="m0 0h8l7 1-3 3-6-1v-2h-6z" fill="#AF9278"/>
<path transform="translate(112,257)" d="m0 0h8l-1 3-5 2-2-2z" fill="#A6876B"/>
<path transform="translate(204,247)" d="m0 0h10v2l-3 1h-7z" fill="#D8C7B4"/>
<path transform="translate(108,225)" d="m0 0h4l-2 6-5 1-1-2 3-1z" fill="#D1BCA8"/>
<path transform="translate(176,157)" d="m0 0 4 1 1 2 3 2-4 1h-8l4-1v-2h2v-2z" fill="#AC8D71"/>
<path transform="translate(267,134)" d="m0 0 4 2 5 5-2 4-2-4-3-2z" fill="#954550"/>
<path transform="translate(155,124)" d="m0 0h2l1 2 6-1v2l2 1h-4v2l-5-2z" fill="#BA956C"/>
<path transform="translate(87,123)" d="m0 0h3v3h-2l-1 4-4-1 3-5z" fill="#CCB6A1"/>
<path transform="translate(117,120)" d="m0 0 5 1 5 5-1 3-7-7-3-1z" fill="#421320"/>
<path transform="translate(222,119)" d="m0 0 3 1-1 7h-2l-1 2-1-5z" fill="#551828"/>
<path transform="translate(219,103)" d="m0 0 2 3 4 2 1 2-2 2-4-2-2-6z" fill="#A6866A"/>
<path transform="translate(241,346)" d="m0 0 5 5-1 2-1 9h-1l-1-10-1-4z" fill="#C1A991"/>
<path transform="translate(238,309)" d="m0 0 4 1 1 6-5-2-1-3z" fill="#12090C"/>
<path transform="translate(233,261)" d="m0 0h2v8l-2 1-1-4-3 1v-2h2z" fill="#E0D3C7"/>
<path transform="translate(239,237)" d="m0 0 9 3 2 1v2l-9-3-1 4z" fill="#BCA187"/>
<path transform="translate(160,159)" d="m0 0 9 4-1 3-5-1-1-3-2-1z" fill="#722236"/>
<path transform="translate(94,121)" d="m0 0h6l-3 3h-5l-1 3-3 1v-2h2v-3h4z" fill="#7B4B49"/>
</svg>
